<?xml version="1.0" encoding="UTF-8"?>
<svg id="Layer_1" data-name="Layer 1" xmlns="http://www.w3.org/2000/svg" width="362.4" height="108.2" version="1.1" viewBox="0 0 362.4 108.2">
  <path d="M82,2c.4-.3.9-.7,1.3-1,1.4,0,2.8,0,4.1,0,.5,0,.9.2,1.3.3.8.2.7,1,.9,1.6,0,.3,0,.6,0,.8,0,10,0,20,0,30,0,1,.3,1.9.8,2.7.4.7,1.2,1.1,1.9,1.4.5.2,1,.3,1.6.3,12.6,0,25.2,0,37.8,0,.6,0,1.2-.1,1.8.2.5.2,1.2-.1,1.7.3,1.3,0,2.5.6,3.7,1,.7.2,1.2.7,1.7,1,1.4.9,2.4,2.2,3.3,3.6.9,1.4,1.1,3,1.7,4.5-.2.9.3,1.7.3,2.5,0,14.6,0,29.1,0,43.7,0,2.3-.5,4.6-1.6,6.7-1.1,2-2.7,3.6-4.7,4.7-1.3.7-2.7,1-4.1,1.4-.8.2-1.8.3-2.7.3-12.3,0-24.5,0-36.8,0-.5,0-1.1,0-1.5,0-.5-.2-1.1,0-1.5-.2-.5-.3-1,0-1.4-.4-1.1,0-2-.5-3-1-2.9-1.4-4.8-3.7-5.8-6.7-.4-1.4-.6-2.9-.8-4.4-.4-3.8-.1-7.5-.2-11.3,0-3.8,0-7.6,0-11.4V15.4c0-3.8,0-7.6,0-11.4,0-.6.1-1.3.2-2.1ZM137.9,73c0-6.7,0-13.4,0-20,0-.7,0-1.4-.2-2.2-.4-1.7-1.2-3-2.5-4.1-.4-.3-.9-.6-1.4-.8-.9-.3-1.8-.7-2.7-.7-1,0-2-.3-3-.3-10.3,0-20.5,0-30.8,0s-1.5,0-2.3,0c-.8,0-1.6,0-2.3.3-.8.2-1.7.5-2.2,1.2-.5.7-.8,1.6-.8,2.5,0,2.9,0,5.8,0,8.8,0,.7.1,1.4.3,2,.2.8,1.3,2.8,1.9,3.4,2,2.1,4,4.2,6,6.3,1.1,1.1,2.3,2.2,3.4,3.4.6.6,1.1,1.3,1.6,2,1.5,2,2.1,4.4,2.1,6.8.1,4.7,0,9.4,0,14,0,.8,0,1.5.2,2.3.3,1.1,1.1,2.1,2.2,2.5.8.2,1.7.4,2.6.4,2.2,0,4.5,0,6.7,0s4.6,0,6.8,0c2.2,0,4.4.2,6.6-.2.4,0,.8,0,1.2,0,.4,0,.7-.1,1.1-.2.9-.2,1.8-.5,2.5-1.1,1.9-1.5,2.9-3.5,2.9-5.9,0-6.8,0-13.6,0-20.4Z" fill="#feb255" stroke-width="0"/>
  <path d="M223.5,72.9c0,7.2,0,14.4,0,21.6,0,1.9-.4,3.8-1.1,5.6-1,2.7-2.8,4.7-5.3,6-1.2.6-2.5,1.2-3.9,1.2-.6.5-1.5,0-2.1.5h-2.3c-11.9,0-23.8,0-35.7,0-1.4,0-2.8-.3-4.2-.7-1-.3-2-.5-2.9-1-.7-.4-1.4-.8-2-1.3-.3-.3-.6-.4-.9-.7-.2-.2-.4-.6-.6-.8-.7-.5-.9-1.3-1.3-2-.4-.8-.8-1.6-1-2.5-.3-1.3-.6-2.6-.5-4-.5-2.5-.2-5.1-.2-7.6,0-2.5,0-5,0-7.6v-7.7c0-6.3,0-12.6,0-18.8,0-1.3.2-2.6.3-3.9,0-1.1.4-2.3.8-3.4.4-1.1.8-2.2,1.5-3.1,1.2-1.5,2.6-2.8,4.5-3.5,1.1-.4,2.1-.9,3.3-1,.7-.5,1.5-.2,2.2-.4.7-.3,1.6,0,2.4,0,11.8,0,23.6,0,35.4,0,1.8,0,3.7.3,5.3,1,1.3.5,2.6,1.2,3.8,2.1,1.6,1.2,2.5,2.9,3.3,4.6.3.7.5,1.4.6,2.1.6,2.5.4,5.1.4,7.6,0,5.8,0,11.7,0,17.5ZM191.5,85.4c6.8,0,13.7,0,20.5,0,.6,0,1.1-.1,1.7-.4,1.3-.6,1.9-1.7,1.9-3.1,0-9.7,0-19.4,0-29,0-.7,0-1.4-.2-2.2-.3-1.2-.8-2.3-1.7-3.3-.7-.8-1.6-1.2-2.4-1.6-.8-.5-1.7-.5-2.6-.7-1.2-.2-2.4-.3-3.6-.3-3.3,0-6.6,0-10,0s-6.6,0-9.8,0c-3.3,0-6.6-.2-9.9.2-1.1.1-2.1.2-3.2.5-1.7.6-3.1,1.6-3.9,3.2-.7,1.3-1,2.7-1,4.1,0,9.3,0,18.6,0,28,0,.6,0,1.1.2,1.7.5,1.7,1.7,2.8,3.4,2.8,6.8,0,13.7,0,20.5,0Z" fill="#feb256" stroke-width="0"/>
  <path d="M57.3,65.1c-.2-1.1.3-2.2.2-3.4,0-1.2,0-2.4,0-3.6s0-2.4,0-3.6c0-.8-.4-1.5-.3-2.3,0-.8-.3-1.5-.4-2.2-.6-2.2-2.2-3.7-4.4-4.4-.9-.3-1.9-.4-2.9-.5-2.6-.4-5.2-.1-7.8-.2-2.6,0-5.2,0-7.8,0h-7.9c-2.6,0-5.2-.1-7.8,0-1.4,0-2.9.2-4.3.7-2.2.8-3.7,2.2-4.4,4.5-.3.9-.5,1.8-.5,2.8,0,2.7,0,5.4,0,8.2-.3.6-.6,1.1-1.6,1.4H2.5c-.3-.3-.7-.7-1.1-1.2,0-3.5,0-7.1,0-10.7,0-.9.3-1.8.3-2.8.6-1.3.6-2.8,1.6-3.9.2-.9,1-1.5,1.5-2.1.5-.6,1.3-1.1,2-1.5.9-.6,1.9-1.1,3-1.4.1,0,.3-.2.4-.2.8,0,1.6-.4,2.4-.5,3.3-.4,6.7-.1,10-.2,3.4,0,6.7,0,10.1,0h10.1c2.7,0,5.4,0,8,0,1.1,0,2.3.2,3.4.3,1.1.1,2.2.5,3.2.9,1.1.4,2.1.9,3,1.5,2.1,1.4,3.3,3.5,4.1,5.8.3.9.5,2,.6,3,.2,1.2.2,2.3.2,3.5,0,1.2,0,2.4,0,3.6,0,14.1,0,28.2,0,42.3,0,.9-.2,1.8-.4,2.6-.2.8-.5,1.6-.9,2.3-.6,1.2-1.6,2.1-2.8,2.8-1,.5-2,1-3.2,1-.6.4-1.4.2-2.1.2-13.7,0-27.4,0-41.1,0-.5,0-1.1,0-1.6-.2-.4-.2-1,.2-1.5-.3-1.6,0-3-.7-4.4-1.4-1.8-.9-3.2-2.3-4.2-4-.8-1.5-1.3-3.1-1.6-4.7-.2-.8-.2-1.6-.2-2.4,0-4.8,0-9.5,0-14.3,0-1.5.4-2.9.8-4.2.3-1.1.8-2,1.5-3,.8-1.1,1.8-2,2.9-2.8,1.5-1,3.2-1.6,4.9-2,.6-.1,1.2,0,1.8-.2,1.2-.3,2.3-.2,3.5-.2,1.2,0,2.3,0,3.5,0,10.9,0,21.9,0,32.8,0,1.1,0,1.9-.3,2.8-1,.3-.3.6-.6.8-1,.1-.3.3-.5.5-.9ZM27.6,74.4c-3.1,0-6.2,0-9.3,0-1.6,0-3,.2-4.5.7-.8.3-1.5.6-2.1,1.2-.8.8-1.6,1.6-1.8,2.7-.1.6-.3,1.1-.5,1.7-.2.7-.2,1.3-.2,1.9,0,3.4,0,6.8,0,10.2,0,1,.2,1.9.5,2.8.7,2.2,2.2,3.7,4.4,4.4,1.5.5,3,.6,4.5.7,5.3,0,10.5,0,15.8,0,1.5,0,3,0,4.6-.2,2.2-.3,3.3-2.1,3.3-3.6,0-6.3,0-12.6,0-18.8,0-.6-.2-1.1-.4-1.6-.6-1.3-2-2.1-3.5-2.1-3.6,0-7.1,0-10.7,0Z" fill="#feb255" stroke-width="0"/>
  <path d="M239.1,39c.3-.3.6-.5.8-.8.9-.4,1.8-.3,2.7-.3.9,0,1.8,0,2.5,0,.5.3.9.5,1.2.6.4.8.4,1.5.4,2.3,0,13.4,0,26.9,0,40.3,0,1.3.3,2.2,1,3.2.2.3.6.4.9.6.5.2,1,.4,1.6.5,3.2.4,6.4.1,9.6.2,3.2,0,6.5,0,9.7,0h9.7c3.2,0,6.5,0,9.7,0,1.2,0,2.4-.1,3.5-.8.8-.4,1.1-1.1,1.4-1.8.3-.6.3-1.3.3-1.9,0-13.4,0-26.7,0-40.1,0-.8,0-1.6.4-2.5.3-.1.7-.4,1.2-.7,1.6.1,3.4-.2,5.2.3.2.2.5.5.8.8v56.3c0,.4.2,1,0,1.3-.3.4-.1.8-.2,1.2-.1.4-.4.8-.4,1.1,0,.7-.5,1.3-.6,1.9-.1.6-.5,1.3-1,1.7-.7.6-.9,1.5-1.8,1.9-.6.3-.9,1-1.6,1.1-.8.8-1.8,1-2.8,1.3-1,.3-2,.5-3,.6-3.1.4-6.3.1-9.4.2-3.2,0-6.4,0-9.6,0h-9.5c-3.2,0-6.3,0-9.5,0-.7,0-1.5-.2-2.2-.2-.7,0-1.4-.1-2.1-.5-1,.1-1.8-.5-2.7-.8-.8-.3-1.6-.7-2.2-1.4-.5-.5-1.3-.7-1.5-1.5-.7-.5-.9-1.3-1.4-1.9-.4-.6-.5-1.4-.8-2.1-.2-.5-.3-.9-.5-1.4-.1-.4.1-.9-.2-1.4-.2-.2,0-.7,0-1.1,0-18.8,0-37.7,0-56.5Z" fill="#feb255" stroke-width="0"/>
  <path d="M331.4,17.3c.4.3.8.7,1.2,1,.5,2.7.2,5.4.3,8.1,0,2.7,0,5.4,0,8.2,0,1.6,1,2.8,2.6,3.2.6.2,1.2.2,1.8.2,7.2,0,14.3,0,21.5,0,.9,0,1.8-.2,2.6.5.2.4.4.7.6,1.2,0,.9,0,1.9,0,2.9,0,1.1-.2,2-1.4,2.4-7.5,0-15.1,0-22.7,0-.8,0-1.7.2-2.6.3-.2.1-.5.3-.8.4-.9.5-1.5,1.4-1.5,2.4,0,3.3,0,6.6,0,10,0,1.3.5,2.5,1.2,3.6.7,1,1.4,1.9,2.3,2.8.8.8,1.7,1.5,2.4,2.4,1.9,2.2,4.1,4.1,6,6.3.7.7,1.3,1.5,1.8,2.4.5.9.9,1.8,1.2,2.7.2.6.2,1.2.3,1.8.5,2,.2,4.1.2,6.1,0,6.5,0,13,0,19.4,0,.8-.2,1.5-.7,1.9-1.1.5-2.2.4-3.2.4-5.9,0-11.8,0-17.7,0-.4-.2-.9-.5-1.2-.6-.4-.8-.4-1.6-.4-2.4,0-18.6,0-37.2,0-55.8,0-.5,0-1-.2-1.5-.4-1.1-.8-1.7-1.9-2.2,0,0-.1-.1-.2-.1-.7,0-1.5-.2-2.2-.2-2.2,0-4.4,0-6.6,0-1.1-.4-1.4-1.3-1.4-2.4,0-.5,0-1,0-1.4,0-.9-.1-1.8.7-2.6.2,0,.6-.3,1-.5,2.2,0,4.5,0,6.7,0,.7,0,1.3-.1,1.9-.3,1-.3,1.6-1,1.9-2.1.2-.8.2-1.6.2-2.4,0-4.5,0-9,0-13.4,0-.3,0-.7.1-.9.2-.3,0-.8.4-.9.5-.2.9-.6,1.6-.6,1.4,0,2.9,0,4.3,0Z" fill="#feb255" stroke-width="0"/>
</svg>