<?xml version="1.0" encoding="utf-8"?>
<!-- Generator: Adobe Illustrator 24.2.3, SVG Export Plug-In . SVG Version: 6.00 Build 0)  -->
<svg version="1.0" id="Layer_1" xmlns="http://www.w3.org/2000/svg" xmlns:xlink="http://www.w3.org/1999/xlink" x="0px" y="0px"
	 width="27px" height="27px" viewBox="0 0 478.8 478.8" enable-background="new 0 0 478.8 478.8" xml:space="preserve">
<g>
	<path fill="#6E6E6E" class="fm_fill" d="M479.7,416.2c-159.1,0-318.2,0-477.8,0c-0.1-5.2,0-10.4,0-15.7c5.3,0,10.3,0,15.7,0c0-10.6,0-21.1,0-31.8
		c-5.1,0-10.2,0-15.5,0c0-5.7,0-11.2,0-16.9c5.2,0,10.3,0,15.5,0c0-74,0-147.8,0-222.1c-2.4-0.1-5,0-7.6,0c-2.6,0-5.2,0-8,0
		c0-5.6,0-11,0-16.7c5.1,0,10.3,0,15.6,0c0-10.7,0-21.1,0-31.8c-5.2,0-10.4,0-15.7,0c0-5.4,0-10.5,0-15.9c159.3,0,318.5,0,477.7,0
		c0,5.3,0,10.6,0,15.9c-5.2,0-10.5,0-15.9,0c0,10.5,0,20.8,0,31c0,0.1,0.1,0.3,0.2,0.4c0.1,0.1,0.2,0.2,0.3,0.3c5.1,0,10.3,0,15.4,0
		c0,5.6,0,11.2,0,16.8c-5.2,0-10.5,0-15.7,0c-0.7,18.1-0.4,217.9,0.3,222.1c5.1,0,10.3,0,15.4,0c0,5.6,0,11.2,0,16.8
		c-5.2,0-10.5,0-15.9,0c0,10.5,0,20.8,0,31c0,0.1,0.1,0.3,0.2,0.4c0.1,0.1,0.2,0.2,0.3,0.3c5.1,0,10.3,0,15.4,0
		C479.7,405.6,479.7,410.9,479.7,416.2z M161.3,351.8c0-74.2,0-148.1,0-221.9c-17.2-0.7-123.7-0.4-127.5,0.3c0,73.9,0,147.7,0,221.6
		C76.3,351.8,118.7,351.8,161.3,351.8z M447.9,129.9c-42.8,0-85.2,0-127.6,0c-0.7,15.8-0.4,217.8,0.3,221.8c42.4,0,84.8,0,127.3,0
		C447.9,277.7,447.9,203.9,447.9,129.9z M304.1,351.8c0-74.2,0-148,0-221.9c-14.6-0.7-122.8-0.4-126.6,0.3c0,73.8,0,147.7,0,221.6
		C219.7,351.8,261.8,351.8,304.1,351.8z M65.2,81.4c-10.8,0-21.1,0-31.7,0c0,10.4,0,20.6,0,30.9c0,0.1,0.1,0.3,0.2,0.4
		c0.1,0.1,0.2,0.2,0.2,0.1c10.5,0,20.9,0,31.3,0C65.2,102.2,65.2,91.9,65.2,81.4z M177.4,112.8c10.8,0,21.1,0,31.7,0
		c0-10.4,0-20.6,0-30.9c0-0.1-0.1-0.3-0.2-0.4c-0.1-0.1-0.2-0.2-0.2-0.2c-10.5,0-20.9,0-31.3,0C177.4,91.9,177.4,102.2,177.4,112.8z
		 M256.6,81.4c-10.8,0-21.1,0-31.7,0c0,10.4,0,20.6,0,30.9c0,0.1,0.1,0.3,0.2,0.4c0.1,0.1,0.2,0.2,0.2,0.2c10.5,0,20.9,0,31.3,0
		C256.6,102.2,256.6,91.9,256.6,81.4z M304.1,112.8c0-10.8,0-21.1,0-31.7c-10.4,0-20.6,0-30.8,0c-0.1,0-0.3,0.1-0.4,0.1
		c-0.1,0.1-0.2,0.2-0.2,0.2c0,10.5,0,20.9,0,31.4C283.2,112.8,293.5,112.8,304.1,112.8z M447.8,112.8c0-10.8,0-21.1,0-31.6
		c-10.4,0-20.6,0-30.8,0c-0.1,0-0.3,0.1-0.4,0.1c-0.1,0.1-0.2,0.2-0.2,0.2c0,10.5,0,20.9,0,31.3
		C426.9,112.8,437.3,112.8,447.8,112.8z M33.8,368.7c0,10.8,0,21.1,0,31.7c10.4,0,20.6,0,30.9,0c0.1,0,0.3-0.1,0.4-0.2
		c0.1-0.1,0.2-0.2,0.2-0.2c0-10.5,0-20.9,0-31.3C54.6,368.7,44.3,368.7,33.8,368.7z M177.4,400.2c10.8,0,21.1,0,31.7,0
		c0-10.4,0-20.6,0-30.9c0-0.1-0.1-0.3-0.2-0.4c-0.1-0.1-0.2-0.2-0.2-0.2c-10.5,0-20.9,0-31.3,0C177.4,379.3,177.4,389.7,177.4,400.2
		z M225.1,368.7c0,10.8,0,21.1,0,31.7c10.4,0,20.6,0,30.8,0c0.1,0,0.3-0.1,0.4-0.1c0.1-0.1,0.2-0.2,0.2-0.1c0-10.6,0-20.9,0-31.4
		C246,368.7,235.6,368.7,225.1,368.7z M272.6,400.2c10.8,0,21.1,0,31.6,0c0-10.4,0-20.6,0-30.9c0-0.1-0.1-0.3-0.2-0.4
		c-0.1-0.1-0.2-0.2-0.2-0.1c-10.5,0-20.9,0-31.3,0C272.6,379.3,272.6,389.7,272.6,400.2z M416.4,368.7c0,10.8,0,21.1,0,31.7
		c10.4,0,20.6,0,30.9,0c0.1,0,0.3-0.1,0.4-0.1c0.1-0.1,0.2-0.2,0.2-0.2c0-10.5,0-20.9,0-31.3C437.3,368.7,426.9,368.7,416.4,368.7z
		 M112.8,112.8c0-10.8,0-21.1,0-31.6c-10.2,0-20.2,0-30.7,0c-0.3,0.9-0.8,1.8-0.8,2.8c-0.1,3.7,0,7.5,0,11.2c0,5.9,0,11.7,0,17.6
		C91.9,112.8,102.2,112.8,112.8,112.8z M129.9,81.3c0,10.8,0,21.1,0,31.4c10.6,0,21.1,0,31.6,0c0-9.4,0-18.5,0-27.7
		c0-1.4,0.3-2.8-1.5-3.7C150.1,81.3,140.1,81.3,129.9,81.3z M351.7,112.8c0-10.6,0-21,0-31.6c-10.2,0-20.3,0-29.9,0
		c-0.8,0.6-1.2,0.9-1.5,1.1c0,10.3,0,20.4,0,30.5C330.8,112.8,341.2,112.8,351.7,112.8z M400.2,112.8c0-10.5,0-20.5,0-30.4
		c-0.5-0.5-0.8-0.8-1.1-1.1c-10.1,0-20.1,0-30.3,0c0,10.6,0,21,0,31.5C379.3,112.8,389.7,112.8,400.2,112.8z M81.4,368.7
		c0,10.5,0,20.5,0,30.4c0.5,0.5,0.8,0.8,1.1,1.1c10.1,0,20.1,0,30.3,0c0-10.6,0-21,0-31.5C102.2,368.7,91.9,368.7,81.4,368.7z
		 M129.9,368.7c0,10.8,0,21.1,0,31.6c10.2,0,20.2,0,30.2,0c0.5-0.5,1-0.9,1.3-1.1c0-10.3,0-20.3,0-30.4
		C150.8,368.7,140.4,368.7,129.9,368.7z M321.3,400.2c10.2,0,20.3,0,30.3,0c0-10.6,0-21.1,0-31.4c-10.6,0-21,0-31.4,0
		c0,10.2,0,20.2,0,30.2C320.7,399.5,321.1,399.9,321.3,400.2z M368.8,400c0.1,0.1,0.3,0.4,0.6,0.4c9.9,0,19.8,0,30.1,0
		c1.8-5.1,0.6-10.4,0.8-15.5c0.2-5.4,0.1-10.8,0.1-16.2c-10.7,0-21.1,0-31.6,0C368.8,379.2,368.8,389.5,368.8,400z"/>
</g>
</svg>
