<?xml version="1.0" encoding="utf-8"?>
<!-- Generator: Adobe Illustrator 28.1.0, SVG Export Plug-In . SVG Version: 6.00 Build 0)  -->
<svg version="1.0" id="Layer_1" xmlns="http://www.w3.org/2000/svg" xmlns:xlink="http://www.w3.org/1999/xlink" x="0px" y="0px"
	 width="35px" height="35px" viewBox="0 0 511.999 511.999" style="enable-background:new 0 0 511.999 511.999;" xml:space="preserve">
<g>
	<path fill="#020202" d="M171.75,0.75c14,0,28,0,42,0c0.32,0.25,0.61,0.61,0.98,0.73c0.66,0.22,1.42,0.19,2.06,0.46
		c3.87,1.62,6.12,3.5,8.87,6.53c2.15,2.38,2.96,5.24,3.9,8.16c0.66,2.04,0.23,4.17,0.83,6.04c0.43,1.33,0.44,2.57,0.62,3.86
		c0.2,1.4,0.71,2.8,0.69,4.19c-0.05,2.57,1.17,4.94,0.9,7.57c-0.11,1.11,0.87,2.34,1.25,3.27c2.41,0.7,4.55,1.27,6.65,1.95
		c5.39,1.74,10.72,3.66,15.88,6.01c3.79,1.72,7.59,3.47,11.19,5.54c1.7,0.98,3.29,1.32,5.12,1.12c0.53-0.53,1.01-1.13,1.6-1.58
		c5.12-3.91,10.23-7.84,15.42-11.66c2.64-1.94,5.7-3.43,8.87-3.85c7.14-0.93,13.51,1.23,18.69,6.33
		c7.39,7.28,14.68,14.66,22.02,21.99c4.78,4.77,7.52,10.36,7.21,17.27c-0.16,3.5-1.23,6.68-3.15,9.57c-1.53,2.29-3.4,4.35-4.95,6.6
		c-2.92,4.21-6.11,8.21-9.12,12.26c-0.18,1.78,0.32,3.23,1.15,4.81c4.02,7.69,7.81,15.49,10.41,23.8c1,3.21,2.05,6.41,3.24,10.13
		c1.11,0.3,2.67,0.81,4.26,1.11c0.97,0.18,2.34-0.37,2.92,0.12c1.17,0.98,2.35,0.46,3.51,0.67c1.28,0.23,2.53,0.6,3.82,0.73
		c3.32,0.34,6.61,0.73,9.88,1.48c5.46,1.25,8.01,2.71,11.66,7.04c2.1,2.49,3.7,5.16,3.99,8.48c0.01,0.11,0.4,0.18,0.61,0.27
		c0,14.25,0,28.5,0,42.75c-1.57,0.16-0.72,1.59-1.06,2.35c-1.44,3.12-3.49,5.66-5.9,8.07c-2.55,2.57-5.61,3.73-8.98,4.66
		c-2.04,0.57-4.22,0.15-6.03,0.83c-1.49,0.56-2.84,0.47-4.25,0.57c-1.55,0.11-2.88,1.02-4.57,0.84c-2.27-0.24-4.43,0.99-6.81,0.78
		c-1.12-0.1-2.33,0.89-3.14,1.24c-0.75,2.36-1.42,4.34-2,6.34c-1.75,6.01-4.05,11.81-6.76,17.45c-1.6,3.33-3.04,6.76-4.83,9.99
		c-0.93,1.68-1.39,3.26-1.07,5.11c0.62,0.62,1.32,1.17,1.84,1.87c2.94,3.89,5.87,7.81,8.75,11.74c1.04,1.42,1.75,3.15,2.98,4.35
		c1.46,1.43,1.95,3.23,2.56,4.97c1.79,5.07,1.43,10.05-0.91,14.91c-1.36,2.81-3.09,5.34-5.3,7.55
		c-5.93,5.91-11.82,11.86-17.78,17.75c-2.17,2.15-4.35,4.27-6.77,6.2c-2.86,2.29-6.07,3.81-9.46,4.33c-6,0.92-11.57-0.7-16.4-4.6
		c-2.5-2.02-5.16-3.84-7.72-5.78c-2.87-2.17-5.71-4.38-8.75-6.72c-1.56-0.15-3.12,0.27-4.84,1.17c-6.96,3.65-13.99,7.18-21.5,9.61
		c-3.97,1.29-7.81,3-12.25,3.76c-0.41,1.17-1.07,2.45-1.27,3.8c-0.4,2.62-0.55,5.28-0.79,7.93c-0.03,0.37,0.13,0.91-0.06,1.08
		c-1.24,1.13-0.47,2.57-0.7,3.85c-0.23,1.28-0.6,2.53-0.73,3.82c-0.48,5.05-1.63,9.71-5.39,13.54c-3.64,3.7-6.06,5.36-10.86,6.3
		c-0.13,0.02-0.18,0.4-0.27,0.62c-14.25,0-28.5,0-42.75,0c-0.16-1.57-1.59-0.72-2.34-1.06c-3.12-1.44-5.65-3.49-8.07-5.89
		c-2.57-2.55-3.72-5.61-4.66-8.98c-0.57-2.04-0.16-4.21-0.83-6.03c-0.55-1.48-0.48-2.83-0.57-4.24c-0.1-1.56-1.02-2.88-0.84-4.57
		c0.25-2.27-1-4.43-0.79-6.81c0.1-1.12-0.89-2.33-1.24-3.16c-2.35-0.75-4.33-1.42-6.33-2c-6.02-1.73-11.8-4.05-17.44-6.75
		c-3.34-1.6-6.77-3.02-9.98-4.84c-1.69-0.96-3.27-1.35-5.11-1.09c-0.44,0.44-0.84,0.94-1.33,1.32c-5.21,3.99-10.4,8.01-15.68,11.91
		c-2.64,1.95-5.7,3.43-8.87,3.84c-7.14,0.93-13.51-1.24-18.68-6.33c-7.39-7.28-14.67-14.66-22.01-21.98
		c-4.88-4.87-7.64-10.59-7.21-17.63c0.21-3.35,1.27-6.41,3.12-9.2c1.53-2.29,3.39-4.36,4.96-6.59c2.94-4.19,6.06-8.24,9.17-12.3
		c-0.04-2.38-0.04-2.38-1.24-4.73c-3.91-7.74-7.75-15.51-10.34-23.83c-1-3.21-2.07-6.4-3.23-9.97c-0.03-0.02-0.38-0.44-0.81-0.56
		c-1.25-0.33-2.53-0.65-3.81-0.74c-1.44-0.1-2.8-0.34-4.21-0.69c-1.7-0.42-3.52-0.29-5.32-0.73c-1.69-0.41-3.54-0.56-5.3-0.75
		c-1.91-0.2-3.79-0.51-5.68-0.86c-4.7-0.88-10.04-5.01-12.64-9.31c-1.12-1.85-1.52-4.03-2.93-5.7c0-14.5,0-29,0-43.5
		c0.13,0,0.35,0.03,0.36-0.01c2.78-7.7,4.04-7.91,7.93-11.65c2.02-1.94,4.68-2.56,7.24-3.32c2.08-0.62,4.23-1.04,6.43-0.77
		c1.09-1.17,2.52-0.58,3.81-0.76c1.4-0.2,2.8-0.71,4.19-0.69c2.57,0.05,4.94-1.17,7.57-0.9c1.11,0.11,2.34-0.87,3.27-1.25
		c0.7-2.41,1.27-4.55,1.95-6.65c1.74-5.39,3.66-10.72,6.01-15.88c1.72-3.79,3.47-7.59,5.54-11.19c0.98-1.7,1.32-3.29,1.12-5.12
		c-0.53-0.53-1.13-1.01-1.58-1.6c-3.91-5.12-7.84-10.23-11.66-15.42c-1.94-2.64-3.43-5.7-3.85-8.87
		c-0.93-7.14,1.23-13.51,6.33-18.69c7.28-7.39,14.66-14.68,21.99-22.02c4.77-4.78,10.36-7.52,17.27-7.21
		c3.5,0.16,6.68,1.23,9.57,3.15c2.29,1.53,4.35,3.4,6.6,4.95c4.21,2.92,8.21,6.11,12.26,9.12c1.78,0.18,3.23-0.33,4.81-1.15
		c7.7-3.98,15.51-7.77,23.8-10.41c3.21-1.02,6.41-2.05,10.13-3.24c0.3-1.13,0.81-2.67,1.11-4.26c0.18-0.97-0.37-2.34,0.12-2.92
		c0.98-1.17,0.46-2.35,0.67-3.51c0.23-1.28,0.6-2.53,0.73-3.82c0.34-3.32,0.73-6.61,1.48-9.88c1.25-5.46,2.71-8.01,7.04-11.66
		c2.49-2.1,5.16-3.7,8.48-3.99C171.59,1.36,171.66,0.96,171.75,0.75z M366.62,211.25c0-12.46,0-24.8,0-37
		c-0.39-0.39-0.66-0.66-0.94-0.94c-2.66,0.15-5.17-1.34-7.89-0.81c-0.12,0.02-0.31,0.06-0.37,0c-1.2-1.4-2.79-0.57-4.2-0.72
		c-1.54-0.16-2.93-0.81-4.56-0.88c-3.06-0.13-6.2-0.56-9.1-1.49c-3.12-1-6.22-2.6-8.3-5.16c-2.49-3.06-5.01-6.32-5.02-10.64
		c-2.43-6.74-4.72-13.54-7.84-20c-1.46-3.02-2.79-6.13-4.82-8.91c-1.24-1.7-1.97-4.01-2.25-6.14c-0.37-2.82-0.1-5.74-0.07-8.61
		c0-0.19,0.39-0.35,0.44-0.56c1.23-4.81,4.29-8.56,7.19-12.39c2.75-3.64,5.7-7.12,8.43-10.77c0.9-1.2,1.71-2.63,0.98-4.3
		c-8.31-8.31-16.62-16.62-24.86-24.86c-1.88-0.38-3.32,0.36-4.66,1.5c-1.74,1.5-3.35,3.28-5.33,4.35c-2.78,1.5-4.97,3.68-7.44,5.52
		c-4.79,3.56-9.68,6.35-15.99,5.87c-3.87-0.3-7.43-1.14-10.59-3.46c-0.64-0.47-1.43-0.76-2.17-1.1c-3.57-1.65-6.98-3.61-10.66-5.04
		c-4.31-1.68-8.61-3.38-13.05-4.71c-4.03-1.21-8.16-2.01-11.38-5.19c-1.82-1.8-4.63-5.02-5.45-7.54c-0.58-1.77-1.56-3.41-1.51-5.38
		c0.06-2.05-1.21-3.94-0.75-6.07c0.1-0.48,0.23-1.18-0.02-1.46c-1.04-1.18-0.57-2.55-0.73-3.84c-0.16-1.28-0.55-2.54-0.72-3.82
		c-0.3-2.26-0.47-4.55-0.81-6.81c-0.06-0.39-0.68-0.7-1.14-1.14c-5.11,0-10.35,0-15.59,0c-6.5,0-13,0.01-19.5-0.01
		c-1.02,0-2.01-0.07-2.73,1.27c0.34,2.53-1.3,5.13-0.75,7.98c-1.32,1.35-0.29,3.13-0.82,4.54c-0.62,1.65-0.52,3.3-0.72,4.96
		c-0.35,2.81-0.59,5.72-1.54,8.36c-1.94,5.42-4.84,9.23-10.71,11.94c-2.13,0.98-4.33,1.64-6.58,2.22c-2.81,0.73-5.44,1.97-8.16,2.91
		c-4.06,1.4-7.93,3.2-11.86,4.87c-3.74,1.58-6.99,4.13-10.82,5.56c-3.67,1.37-7.58,1.36-11.22,0.75c-3.48-0.58-6.87-2.43-9.56-4.81
		c-4.41-3.92-9.5-6.93-13.92-10.81c-1.34-1.18-2.8-1.78-3.88-1.51c-8.83,8.83-17.2,17.2-25.92,25.92c0.39,0.95,0.69,2.41,1.49,3.48
		c3.53,4.69,7.21,9.28,10.83,13.9c1.81,2.31,3.18,4.94,4.31,7.59c1.47,3.46,0.72,7.25,0.8,10.91c0,0.19-0.35,0.36-0.41,0.57
		c-0.72,2.71-1.95,5.18-3.27,7.65c-2.35,4.38-4.42,8.91-6.52,13.42c-0.73,1.57-1.21,3.25-1.77,4.89c-1.21,3.51-2.46,7-3.34,10.62
		c-0.67,2.75-1.84,5.38-4.16,7.27c-0.17,1.93-1.9,2.33-3.17,3.1c-1.39,0.84-2.52,2.04-4.2,2.55c-2.27,0.68-4.42,1.78-6.9,1.44
		c-1.5,1.19-3.4,0.29-4.91,0.84c-1.8,0.66-3.55,0.6-5.35,0.66c-0.37,0.01-0.79-0.11-1.12,0.02c-3.04,1.18-6.32,0.95-9.46,1.71
		c-0.23,0.23-0.5,0.5-0.83,0.83c0,12.27,0,24.61,0,36.89c0.32,0.32,0.59,0.59,1.04,1.04c2.49-0.39,4.99,0.74,7.65,0.94
		c1.86,0.14,3.95,0.07,5.65,0.71c1.47,0.55,2.83,0.44,4.24,0.62c1.53,0.2,3.05,0.72,4.56,0.69c2.35-0.05,4.2,1.59,6.48,1.62
		c4.04,2.75,7.87,5.7,9.71,10.47c0.63,1.64,0.85,3.41,1.38,5.06c2.59,8.04,5.61,15.92,9.48,23.44c0.91,1.76,2.15,3.36,2.95,5.15
		c1.5,3.38,2.38,6.85,2.39,10.68c0.01,4.41-1.52,8.14-3.94,11.52c-3.82,5.34-7.89,10.5-11.9,15.7c-1.07,1.39-1.79,2.81-1.53,4.16
		c8.65,8.65,17.03,17.03,25.51,25.51c1.44,0.1,2.83-0.32,4.1-1.45c4.39-3.91,9.56-6.84,13.89-10.84c1.53-1.41,3.39-2.63,5.32-3.4
		c2.63-1.04,5.38-1.84,8.35-1.62c2.63,0.2,5.33-0.2,7.65,1.48c2.13-0.21,3.41,1.46,5.03,2.33c5.1,2.75,10.38,5.09,15.77,7.2
		c2.9,1.14,5.77,2.51,8.78,3.21c4.3,0.99,8.52,1.92,11.7,5.29c3.23,1.04,3.51,4.62,5.66,6.59c1.04,3.5,1.82,7.06,2.24,10.69
		c0.32,2.76,0.16,5.63,0.86,8.29c0.83,3.14,0.75,6.37,1.63,9.35c0.42,1.35,1.5,1.12,2.49,1.12c11.74,0,23.48,0,35.27,0
		c0.35-0.51,1.04-1.08,0.95-1.48c-0.37-1.68,0.8-3.01,0.82-4.58c0.01-1.56,0.17-3.04,0.63-4.6c0.52-1.78,0.26-3.76,0.76-5.68
		c0.5-1.93,0.45-4.03,0.72-6.05c0.45-3.36,1.42-6.39,3.13-9.24c2.38-3.95,5.18-5.92,8.99-7.67c1.46-0.67,3.23-0.81,4.71-1.31
		c7.32-2.48,14.58-5.17,21.6-8.49c3.57-1.69,6.77-4.02,10.51-5.4c3.82-1.41,7.83-1.5,11.54-0.79c3.69,0.7,7.08,2.91,10.11,5.37
		c2.23,1.81,4.52,3.56,6.8,5.31c0.75,0.57,1.58,1.03,2.33,1.6c2.08,1.6,4.14,3.23,6.11,4.77c0.92,0,1.67,0,2.25,0
		c8.48-8.48,16.87-16.87,25.27-25.27c0.41-1.5-0.27-2.83-1.12-3.96c-3.38-4.5-6.86-8.92-10.31-13.36c-3.57-4.59-6.42-9.46-5.77-15.6
		c0.15-1.42-0.08-2.8,0.46-4.3c0.91-2.53,1.84-4.96,3.21-7.31c1.96-3.39,3.41-7.07,5.12-10.62c2.27-4.71,3.89-9.65,5.45-14.62
		c1.26-4.01,2.28-8,5.14-11.42c2-2.39,4.51-3.8,6.99-5.22c2.86-1.63,6.32-1.66,9.53-2.28c2.84-0.54,5.78-0.56,8.68-0.81
		c0.25-0.02,0.62,0.11,0.73-0.02c1.35-1.45,3.17-0.21,4.55-0.8c1.52-0.65,3.02-0.67,4.5-0.68
		C365.96,211.92,366.22,211.65,366.62,211.25z"/>
	<path fill="#F2D474" d="M366.62,211.25c-0.4,0.4-0.67,0.67-1,1c-1.48,0.01-2.98,0.04-4.5,0.68c-1.38,0.59-3.21-0.65-4.55,0.8
		c-0.12,0.12-0.48,0-0.73,0.02c-2.9,0.25-5.84,0.27-8.68,0.81c-3.21,0.61-6.67,0.65-9.53,2.28c-2.49,1.42-4.99,2.83-6.99,5.22
		c-2.87,3.42-3.89,7.41-5.14,11.42c-1.56,4.97-3.18,9.91-5.45,14.62c-1.71,3.54-3.16,7.22-5.12,10.62c-1.36,2.36-2.3,4.78-3.21,7.31
		c-0.54,1.5-0.31,2.88-0.46,4.3c-0.64,6.14,2.2,11.01,5.77,15.6c3.45,4.44,6.93,8.86,10.31,13.36c0.85,1.12,1.53,2.46,1.12,3.96
		c-8.4,8.4-16.79,16.79-25.27,25.27c-0.57,0-1.32,0-2.25,0c-1.96-1.54-4.02-3.17-6.11-4.77c-0.75-0.57-1.58-1.03-2.33-1.6
		c-2.28-1.75-4.57-3.49-6.8-5.31c-3.03-2.47-6.42-4.67-10.11-5.37c-3.71-0.71-7.72-0.62-11.54,0.79c-3.74,1.38-6.94,3.71-10.51,5.4
		c-7.02,3.32-14.27,6.01-21.6,8.49c-1.49,0.5-3.25,0.64-4.71,1.31c-3.81,1.75-6.62,3.72-8.99,7.67c-1.72,2.85-2.69,5.88-3.13,9.24
		c-0.27,2.03-0.22,4.13-0.72,6.05c-0.5,1.92-0.24,3.9-0.76,5.68c-0.46,1.56-0.62,3.04-0.63,4.6c-0.01,1.56-1.18,2.9-0.82,4.58
		c0.09,0.4-0.6,0.97-0.95,1.48c-11.79,0-23.53,0-35.27,0c-0.99,0-2.07,0.23-2.49-1.12c-0.88-2.99-0.81-6.22-1.63-9.35
		c-0.7-2.65-0.54-5.52-0.86-8.29c-0.41-3.63-1.2-7.19-2.24-10.69c-2.15-1.97-2.43-5.55-5.66-6.59c-3.18-3.37-7.4-4.3-11.7-5.29
		c-3.01-0.69-5.88-2.06-8.78-3.21c-5.38-2.12-10.66-4.46-15.77-7.2c-1.63-0.87-2.9-2.54-5.03-2.33c-2.33-1.68-5.02-1.28-7.65-1.48
		c-2.97-0.22-5.72,0.58-8.35,1.62c-1.93,0.76-3.79,1.99-5.32,3.4c-4.34,4.01-9.5,6.93-13.89,10.84c-1.27,1.13-2.66,1.55-4.1,1.45
		c-8.48-8.48-16.87-16.87-25.51-25.51c-0.26-1.35,0.46-2.77,1.53-4.16c4.01-5.2,8.09-10.36,11.9-15.7
		c2.42-3.38,3.94-7.11,3.94-11.52c-0.01-3.82-0.88-7.3-2.39-10.68c-0.8-1.8-2.04-3.4-2.95-5.15c-3.88-7.52-6.89-15.4-9.48-23.44
		c-0.53-1.65-0.75-3.42-1.38-5.06c-1.84-4.77-5.68-7.72-9.71-10.47c-2.28-0.03-4.13-1.67-6.48-1.62c-1.52,0.03-3.04-0.48-4.56-0.69
		c-1.41-0.19-2.77-0.07-4.24-0.62c-1.7-0.64-3.79-0.57-5.65-0.71c-2.66-0.2-5.16-1.34-7.65-0.94c-0.45-0.45-0.72-0.72-1.04-1.04
		c0-12.28,0-24.62,0-36.89c0.33-0.33,0.6-0.6,0.83-0.83c3.14-0.75,6.42-0.52,9.46-1.71c0.33-0.13,0.74-0.01,1.12-0.02
		c1.8-0.05,3.55,0,5.35-0.66c1.51-0.55,3.4,0.34,4.91-0.84c2.47,0.34,4.62-0.76,6.9-1.44c1.68-0.5,2.8-1.7,4.2-2.55
		c1.28-0.77,3-1.17,3.17-3.1c2.32-1.88,3.5-4.51,4.16-7.27c0.88-3.63,2.14-7.11,3.34-10.62c0.56-1.64,1.04-3.32,1.77-4.89
		c2.1-4.51,4.18-9.04,6.52-13.42c1.33-2.47,2.55-4.94,3.27-7.65c0.06-0.21,0.41-0.39,0.41-0.57c-0.08-3.66,0.67-7.45-0.8-10.91
		c-1.13-2.65-2.5-5.28-4.31-7.59c-3.62-4.63-7.3-9.21-10.83-13.9c-0.81-1.07-1.1-2.53-1.49-3.48c8.72-8.72,17.09-17.09,25.92-25.92
		c1.07-0.27,2.54,0.34,3.88,1.51c4.42,3.89,9.51,6.89,13.92,10.81c2.69,2.39,6.08,4.23,9.56,4.81c3.64,0.61,7.55,0.62,11.22-0.75
		c3.83-1.43,7.08-3.98,10.82-5.56c3.93-1.67,7.8-3.47,11.86-4.87c2.72-0.94,5.35-2.18,8.16-2.91c2.25-0.58,4.45-1.24,6.58-2.22
		c5.86-2.7,8.76-6.52,10.71-11.94c0.94-2.63,1.18-5.54,1.54-8.36c0.21-1.66,0.11-3.31,0.72-4.96c0.53-1.41-0.5-3.19,0.82-4.54
		c-0.55-2.84,1.09-5.45,0.75-7.98c0.72-1.34,1.71-1.27,2.73-1.27c6.5,0.02,13,0.01,19.5,0.01c5.24,0,10.48,0,15.59,0
		c0.46,0.45,1.08,0.75,1.14,1.14c0.34,2.26,0.51,4.54,0.81,6.81c0.17,1.28,0.55,2.54,0.72,3.82c0.16,1.29-0.31,2.67,0.73,3.84
		c0.25,0.28,0.13,0.99,0.02,1.46c-0.47,2.12,0.8,4.02,0.75,6.07c-0.06,1.97,0.93,3.61,1.51,5.38c0.83,2.51,3.63,5.74,5.45,7.54
		c3.22,3.18,7.36,3.98,11.38,5.19c4.44,1.33,8.73,3.03,13.05,4.71c3.68,1.43,7.09,3.39,10.66,5.04c0.73,0.34,1.52,0.62,2.17,1.1
		c3.16,2.32,6.72,3.16,10.59,3.46c6.3,0.48,11.2-2.31,15.99-5.87c2.47-1.83,4.66-4.02,7.44-5.52c1.98-1.07,3.59-2.85,5.33-4.35
		c1.33-1.14,2.78-1.88,4.66-1.5c8.25,8.25,16.56,16.56,24.86,24.86c0.73,1.67-0.08,3.1-0.98,4.3c-2.73,3.65-5.68,7.14-8.43,10.77
		c-2.9,3.83-5.96,7.58-7.19,12.39c-0.05,0.21-0.44,0.37-0.44,0.56c-0.03,2.87-0.3,5.79,0.07,8.61c0.28,2.13,1.01,4.43,2.25,6.14
		c2.03,2.78,3.36,5.89,4.82,8.91c3.12,6.45,5.41,13.26,7.84,20c0.01,4.32,2.53,7.58,5.02,10.64c2.08,2.56,5.19,4.16,8.3,5.16
		c2.91,0.93,6.04,1.35,9.1,1.49c1.62,0.07,3.01,0.72,4.56,0.88c1.41,0.14,3-0.69,4.2,0.72c0.05,0.06,0.24,0.03,0.37,0
		c2.72-0.53,5.23,0.97,7.89,0.81c0.28,0.28,0.55,0.55,0.94,0.94C366.62,186.46,366.62,198.79,366.62,211.25z M192.99,276
		c2.49-0.31,5.49,0.67,8.28-0.75c4.35,0.15,8.41-1.21,12.58-2.18c4.9-1.14,9.53-2.91,14.08-4.93c2.64-1.18,5.1-2.76,7.66-4.13
		c4.1-2.2,7.84-5,11.23-8.09c4.18-3.81,8.37-7.69,11.74-12.32c2.77-3.81,5.55-7.61,7.68-11.82c2.99-5.9,5.27-12.05,7-18.48
		c1.44-5.32,2.31-10.68,2.64-16.09c0.27-4.35,0.28-8.75-0.47-13.2c-0.69-4.09-1.45-8.12-2.32-12.18c-1.16-5.4-3.35-10.36-5.4-15.4
		c-0.96-2.35-2.39-4.52-3.71-6.7c-2.54-4.18-5.22-8.29-8.69-11.75c-3.66-3.65-7.13-7.49-11.26-10.7c-3.29-2.56-6.58-5.14-10.25-7.01
		c-8.68-4.43-12.23-6.21-23.44-8.55c-1.06-1.67-2.92-0.33-4.41-1.18c-1.33-0.76-3.58,0.22-5.04-0.43c-1.6-0.71-3.08-0.54-4.62-0.6
		c-2.12-0.08-4.25-0.04-6.37-0.02c-1.92,0.02-3.78,0.08-5.72,0.63c-1.9,0.54-4.01,0.15-6.06,0.74c-1.19,0.34-2.52,0.77-3.78,0.8
		c-1.37,0.03-2.57,0.41-3.81,0.82c-4.72,1.55-9.44,3.12-13.93,5.28c-2.3,1.11-4.45,2.52-6.71,3.72c-4.23,2.24-8.09,5.06-11.5,8.34
		c-3.81,3.67-7.7,7.27-11.01,11.49c-2.79,3.56-5.18,7.31-7.39,11.21c-3.98,7.03-6.73,14.43-8.32,22.42
		c-0.51,2.54-1.45,4.99-1.44,7.64c0.01,2.67-1.08,5.19-0.8,7.94c0.38,3.75,0.21,7.53,0.61,11.32c0.41,3.82,1.82,7.48,1.69,11.35
		c2.14,4.87,3.2,10.15,5.7,14.88c1.36,2.56,2.59,5.19,4.07,7.68c2.5,4.2,5.21,8.3,8.68,11.76c3.66,3.65,7.2,7.42,11.25,10.72
		c3.7,3.02,7.78,5.37,11.81,7.79c3.15,1.89,6.55,3.56,10.06,4.6c2.89,0.86,5.6,2.55,8.78,2.37c1.32,1.19,3.11,0.91,4.65,1.43
		c1.66,0.56,3.53,0.85,5.28,0.74c1.78-0.11,3.27,0.77,4.94,0.82C188.84,276.04,190.71,276,192.99,276z"/>
	<path fill="#020202" d="M192.99,276c-2.27,0-4.15,0.04-6.02-0.01c-1.67-0.05-3.17-0.93-4.94-0.82c-1.75,0.11-3.62-0.18-5.28-0.74
		c-1.54-0.52-3.33-0.24-4.65-1.43c-3.17,0.18-5.89-1.52-8.78-2.37c-3.51-1.04-6.91-2.71-10.06-4.6c-4.03-2.42-8.11-4.77-11.81-7.79
		c-4.05-3.3-7.58-7.07-11.25-10.72c-3.47-3.46-6.18-7.55-8.68-11.76c-1.48-2.49-2.71-5.12-4.07-7.68c-2.5-4.73-3.56-10.01-5.7-14.88
		c0.13-3.87-1.28-7.53-1.69-11.35c-0.41-3.79-0.23-7.57-0.61-11.32c-0.28-2.75,0.81-5.27,0.8-7.94c-0.01-2.64,0.93-5.09,1.44-7.64
		c1.59-7.99,4.34-15.39,8.32-22.42c2.21-3.9,4.6-7.65,7.39-11.21c3.31-4.22,7.2-7.82,11.01-11.49c3.41-3.28,7.27-6.1,11.5-8.34
		c2.26-1.2,4.41-2.61,6.71-3.72c4.48-2.16,9.21-3.72,13.93-5.28c1.24-0.41,2.44-0.79,3.81-0.82c1.25-0.03,2.59-0.45,3.78-0.8
		c2.05-0.59,4.16-0.2,6.06-0.74c1.93-0.55,3.79-0.62,5.72-0.63c2.12-0.02,4.25-0.07,6.37,0.02c1.54,0.06,3.02-0.1,4.62,0.6
		c1.46,0.65,3.72-0.33,5.04,0.43c1.49,0.85,3.34-0.5,4.41,1.18c11.21,2.34,14.76,4.11,23.44,8.55c3.66,1.87,6.96,4.45,10.25,7.01
		c4.13,3.21,7.6,7.05,11.26,10.7c3.47,3.46,6.15,7.57,8.69,11.75c1.33,2.18,2.76,4.35,3.71,6.7c2.05,5.03,4.25,10,5.4,15.4
		c0.87,4.05,1.63,8.09,2.32,12.18c0.75,4.45,0.73,8.85,0.47,13.2c-0.33,5.4-1.21,10.77-2.64,16.09c-1.74,6.43-4.01,12.57-7,18.48
		c-2.13,4.21-4.91,8.01-7.68,11.82c-3.37,4.63-7.56,8.51-11.74,12.32c-3.39,3.09-7.12,5.89-11.23,8.09
		c-2.56,1.37-5.02,2.96-7.66,4.13c-4.55,2.02-9.18,3.79-14.08,4.93c-4.17,0.97-8.23,2.33-12.58,2.18
		C198.48,276.67,195.48,275.69,192.99,276z M258,192.16c0.25-3.97-0.35-8.73-1.45-13.48c-1.11-4.77-2.57-9.43-4.6-13.84
		c-3.1-6.73-7.51-12.63-12.57-18.02c-1.65-1.76-3.66-3.19-5.49-4.8c-3.12-2.76-6.59-5.07-10.25-6.94
		c-4.73-2.41-9.67-4.38-14.92-5.62c-3.21-0.76-6.47-1.72-9.67-1.81c-5.25-0.15-10.52-0.57-15.83,0.46
		c-3.01,0.58-6.14,1.04-8.98,1.97c-4.92,1.61-9.73,3.51-14.28,6.28c-5.17,3.14-9.83,6.76-14.21,10.83
		c-1.22,1.14-2.05,2.69-3.22,3.89c-3.11,3.18-5.42,6.95-7.44,10.8c-2.47,4.7-4.43,9.65-5.61,14.92c-0.81,3.58-1.87,7.14-1.9,10.78
		c-0.03,5.02-0.48,10.04,0.57,15.08c0.62,2.99,1.32,5.96,2.07,8.91c0.6,2.35,1.6,4.58,2.48,6.84c1.06,2.72,2.28,5.34,3.87,7.77
		c2.16,3.3,4.06,6.81,7.14,9.41c2.16,4.34,6.32,6.79,9.91,9.53c4.39,3.35,9.16,6.41,14.55,8.19c1.97,0.65,3.89,1.5,5.88,2.08
		c1.91,0.56,3.93,0.75,5.8,1.39c2.04,0.7,4.23,1.03,6.24,1.1c6.93,0.25,13.88,0.49,20.75-1.3c4.73-1.24,9.42-2.59,13.83-4.62
		c6.73-3.1,12.62-7.53,18.02-12.56c1.4-1.31,2.4-3.04,3.75-4.41c3.8-3.85,6.39-8.48,8.8-13.23c2.05-4.05,4.01-8.14,4.51-12.75
		c1.32-1.13,0.71-2.89,1.38-4.31c0.61-1.28,0.23-2.98,0.77-4.54c0.5-1.45,0.11-3.21,0.11-4.84C258,194.56,258,193.81,258,192.16z"/>
</g>
</svg>
