<?xml version="1.0" encoding="utf-8"?>
<!-- Generator: Adobe Illustrator 24.2.3, SVG Export Plug-In . SVG Version: 6.00 Build 0)  -->
<svg version="1.0" id="Layer_1" xmlns="http://www.w3.org/2000/svg" xmlns:xlink="http://www.w3.org/1999/xlink" x="0px" y="0px"
	 width="225px" height="66.9px" viewBox="0 0 1460.4 431.2" enable-background="new 0 0 1460.4 431.2" xml:space="preserve">
<g>
	<g>
		<path fill="#F4D574" d="M1057.2,185.9c0.1-0.1,0.2-0.2,0.3-0.3c0-0.1,0.1-0.1,0.1-0.2c0-1,0-1.9,0-2.8c0.1-0.1,0.3-0.3,0.4-0.4
			c0-0.4,0-0.9,0-1.3c0.2-0.2,0.3-0.4,0.5-0.6c0-0.4,0-0.8,0-1.3c0.2-0.2,0.3-0.4,0.5-0.6c0-0.4,0-0.9,0-1.3
			c0.4-0.3,0.4-0.9,0.7-1.2c0.3-0.4,0.3-0.7,0.3-1.1c0-0.4,0.4-0.5,0.5-0.8c0.3-1.2,1.2-2.2,1.6-3.4c0.5-0.2,0.2-0.9,0.7-1.2
			c0.4-0.3,0.6-0.7,0.7-1.1c0.3-0.7,1.3-0.9,1.4-1.8c0.5-0.6,1.1-1.1,1.7-1.7c0.6-0.6,1.1-1.1,1.7-1.7c0.3-0.3,0.9-0.2,1.2-0.7
			c0.3-0.4,0.7-0.7,1-1c0.6,0.2,0.8-0.5,1.2-0.7c0.6-0.3,1.2-0.5,1.8-0.9c1.1-0.7,2.3-1,3.3-1.8c0.6,0.1,1-0.8,1.7-0.5
			c0.5-0.3,0.9-0.6,1.5-0.5c0.2,0,0.4-0.3,0.6-0.4c0.4,0,0.9,0,1.3,0c0.2-0.2,0.4-0.3,0.6-0.5c0.5,0,0.9,0,1.4,0
			c0.1-0.1,0.2-0.2,0.5-0.5c0.5-0.1,1.2,0,1.9,0c0.1-0.1,0.2-0.2,0.4-0.4c1.1-0.2,2.3,0,3.5-0.1c0.1-0.1,0.2-0.2,0.4-0.4
			c39,0,78.1,0,117.2,0c0.1,0.1,0.2,0.2,0.4,0.4c0.6,0,1.2,0,1.8,0c0.2,0.2,0.4,0.3,0.6,0.5c0.4,0,0.9,0,1.4,0
			c0.2,0.2,0.4,0.3,0.6,0.5c0.3,0,0.6,0,0.9,0c0.2,0.2,0.4,0.3,0.5,0.5c0.2,0,0.5,0,0.7,0c0.7,0.3,1.3,0.6,2,1
			c0.5,0.2,1,0.4,1.4,0.8c0.6,0.7,1.5,0.8,2,1.5c0.4,0.5,0.9,0.9,1.3,1.4c0.6,0.6,1.2,1.2,1.9,1.9c-0.2,0.9,1.2,1.1,1,2
			c0.7,0.6,0.6,1.5,1.2,2.1c0.1,0.1,0.3,0.3,0.2,0.4c-0.4,0.7,0.6,1.1,0.5,1.7c0,0.2,0,0.3,0,0.5c0.2,0.2,0.3,0.3,0.5,0.5
			c0,0.6,0,1.3,0,1.9c0.1,0.1,0.2,0.2,0.4,0.4c0,0.8,0,1.6,0,2.4c0.2,0.2,0.3,0.3,0.5,0.5c0,67.8,0,135.7,0,203.6
			c-0.1,0.1-0.2,0.2-0.4,0.4c0,0.9,0,1.9,0,2.9c-0.2,0.2-0.3,0.3-0.5,0.5c0,0.8,0,1.6,0,2.4c-0.2,0.2-0.3,0.3-0.5,0.5
			c0,0.4,0,0.9,0,1.4c-0.2,0.2-0.3,0.4-0.5,0.6c0,0.3,0,0.6,0,0.9c-0.2,0.2-0.3,0.4-0.5,0.5c0,0.3,0,0.6,0,0.9
			c-0.1,0.1-0.2,0.2-0.4,0.4c-0.2,0.2,0,0.5-0.1,0.8c-0.1,0.3-0.4,0.5-0.5,0.8c-0.4,1.2-1.2,2.2-1.6,3.4c-0.1,0.3-0.2,0.5-0.3,0.8
			c-0.1,0.3-0.6,0.6-0.8,0.9c-0.2,0.2-0.2,0.6-0.4,0.8c-0.5,0.6-1,1.1-1.4,1.8c-0.4,0.7-1.2,1.3-1.8,1.9c-0.6,0.6-1.2,1.1-1.7,1.7
			c-0.4,0.4-1,0.3-1.4,0.8c-0.3,0.4-0.6,0.9-1.3,1c-0.6,0.1-0.7,1.1-1.5,0.9c-0.3,0.5-0.9,0.4-1.4,0.8c-0.4,0.3-0.9,0.4-1.4,0.7
			c-0.7,0.3-1.3,0.9-2,0.9c-0.7,0.1-1.2,0.8-2,0.5c-0.1,0-0.3,0.3-0.6,0.4c-0.3,0-0.6,0-0.9,0c-0.2,0.2-0.4,0.3-0.5,0.5
			c-0.5,0-1,0-1.4,0c-0.1,0.1-0.2,0.2-0.4,0.4c-0.4,0-1,0.1-1.5,0.1c-0.2,0.2-0.4,0.3-0.5,0.4c-0.8,0-1.5,0-2.3,0
			c-0.1,0.1-0.3,0.3-0.6,0.5c-0.6,0-1.3,0-2,0c-0.6,0-1.3,0-1.8,0c-0.2,0.2-0.3,0.3-0.5,0.5c-33.9,0-67.8,0-101.8,0
			c-0.1-0.1-0.3-0.3-0.5-0.4c-1.1,0-2.2,0-3.3,0c-0.1-0.1-0.2-0.2-0.4-0.3c-0.1-0.1-0.3-0.2-0.4-0.2c-0.6,0-1.1,0-1.7,0
			c-0.1-0.1-0.2-0.2-0.4-0.4c-0.6,0-1.3,0-1.9,0c-0.3-0.2-0.5-0.5-0.7-0.5c-0.6,0.1-1-0.3-1.5-0.5c-0.4-0.2-0.9-0.1-1.3-0.4
			c-0.4-0.3-1,0-1.5-0.5c-0.3-0.3-0.9,0.1-1.3-0.4c-0.3-0.3-0.9-0.2-1.2-0.7c-0.5,0.2-0.8-0.4-1.2-0.5c-0.4-0.1-0.7-0.6-1.1-0.9
			c-0.6,0.2-0.8-0.7-1.4-0.5c-0.7-0.5-1.1-1.4-2.1-1.5c-0.6-0.6-1.1-1.1-1.7-1.7c-0.6-0.6-1.2-1.2-1.9-1.9c-0.3-0.3-0.8-0.5-0.8-0.9
			c-0.1-0.8-1-1-1.1-1.7c-0.1-0.8-1.2-0.9-1-1.7c-0.6-0.5-0.6-1.3-1-2c-0.4-0.6-0.6-1.2-0.9-1.8c-0.2-0.4-0.4-0.8-0.5-1.3
			c0-0.3-0.4-0.7-0.4-1c0-0.8-0.7-1.4-0.6-2.2c-0.7-0.4-0.3-1.2-0.5-1.9c0,0-0.2-0.2-0.4-0.4c0-0.6,0-1.2,0-1.9
			c-0.2-0.2-0.3-0.4-0.5-0.6c0-1.1,0-2.2,0-3.3c-0.2-0.2-0.3-0.4-0.5-0.5c0-9.8,0-19.5,0-29.3c0.1-0.1,0.2-0.2,0.4-0.4
			c0-0.3,0.1-0.7,0.1-1c0.5-0.5,1-1,1.5-1.5c0.5,0,0.8-0.4,1.2-0.6c0.4-0.1,1,0.1,1.3-0.5c3.8,0,7.6,0,11.5,0
			c0.1,0.1,0.3,0.3,0.5,0.4c0.3,0,0.6,0,0.9,0c0.2,0.2,0.4,0.3,0.5,0.5c0.1,0,0.3,0,0.4,0c0.6,0.6,1.2,1.1,1.7,1.7c0,0.3,0,0.7,0,1
			c0.1,0.1,0.2,0.2,0.3,0.3c0,0.1,0.1,0.1,0.1,0.2c0,7.4,0,14.7,0,22c0.2,0.2,0.3,0.3,0.4,0.4c0,1.1,0,2.2,0,3.3
			c0.2,0.2,0.3,0.4,0.5,0.6c0,0.1,0.1,0.3,0.1,0.4c0,0.4-0.1,0.8,0,1.2c0.1,0.4,0.3,0.7,0.5,1c0.1,0.3,0,0.7,0.2,0.9
			c0.4,0.3,0.3,0.7,0.5,1c0.7,1.2,1.4,2.5,1.9,3.8c1.1,1.1,2.1,2.1,3.2,3.2c0.2,0.2,0.4,0.5,0.7,0.7c0,0,0.1,0.1,0.2,0.1
			c0.8-0.1,0.9,0.8,1.5,1c0.9,0.3,1.8,0.7,2.6,1.3c0.1,0,0.1,0.1,0.2,0.1c1-0.2,1.7,1,2.6,0.4c0.3,0.2,0.5,0.4,0.7,0.6
			c0.6,0,1.2,0,1.9,0c0.2,0.2,0.4,0.3,0.5,0.5c20.9,0,41.9,0,62.9,0c0.2-0.1,0.3-0.3,0.5-0.5c0.3,0,0.6,0,0.8,0
			c0.5-0.2,0.8-0.4,1.3-0.7c0.7-0.7,1.5-1.5,2.3-2.3c0.6-1.1,1-2.1,1.6-3.3c0-15.3,0-30.8,0-46.3c-0.1-0.1-0.2-0.2-0.4-0.4
			c0-0.4,0-0.9,0-1.2c-0.5-0.7-0.6-1.5-1.3-2c-0.2-0.9-0.9-1.4-1.5-2c-0.6-0.5-1.4-0.6-1.8-1.3c-0.4,0-0.8,0.1-1-0.1
			c-0.3-0.2-0.6-0.4-1-0.4c-0.3,0-0.5-0.2-1.3-0.5c-20.7,0-41.9,0-63,0c-0.2-0.2-0.3-0.3-0.4-0.4c-1.6,0-3.2,0-4.8,0
			c-0.2-0.2-0.4-0.3-0.6-0.5c-0.8,0-1.6,0-2.4,0c-0.1-0.1-0.2-0.2-0.4-0.3c-0.1-0.1-0.3-0.1-0.4-0.2c-0.6,0-1.1,0-1.7,0
			c-0.2-0.2-0.4-0.3-0.5-0.5c-0.4,0-0.8,0-1.2,0c-0.1,0-0.2,0-0.2,0c-0.3-0.6-1.1-0.2-1.4-0.5c-0.4-0.4-0.9-0.3-1.3-0.4
			c-0.4-0.1-0.7-0.5-1.2-0.5c-0.5,0-1-0.3-1.4-0.6c-0.8-0.5-1.6-0.7-2.4-1.3c-0.4-0.3-1-0.4-1.4-0.6c-0.5-0.3-0.6-0.9-1.3-0.8
			c-0.9-1.1-2.3-1.6-3.2-2.7c-1-1.1-2-2.1-3-3.1c-0.3-0.3-0.2-0.9-0.7-1.2c-0.5-0.2-0.5-0.8-0.7-1.2c-0.2-0.4-0.7-0.6-0.8-1.1
			c-0.1-0.3-0.5-0.6-0.7-0.9c-0.2-0.3-0.3-0.7-0.5-1c-0.4-0.5,0.1-1.3-0.7-1.6c0.1-0.6-0.5-1-0.6-1.7c0-0.6-0.6-1.2-0.9-1.9
			c0.4-1-0.9-1.9-0.4-3.1c-0.2-0.2-0.3-0.4-0.5-0.6c0-0.4,0-0.9,0-1.4c-0.2-0.2-0.3-0.4-0.5-0.5c0-0.9,0-1.9,0-2.9
			c-0.1-0.1-0.2-0.2-0.3-0.3c-0.1-0.2-0.2-0.3-0.2-0.5C1057.2,261.6,1057.2,223.8,1057.2,185.9z M1207,302.1c0-38.6,0-77.1,0-115.7
			c-0.2-0.2-0.3-0.3-0.5-0.5c0-0.8,0-1.6,0-2.4c-0.2-0.2-0.3-0.4-0.5-0.6c0-0.5,0-0.9,0-1.4c-0.7-0.3-0.3-1-0.5-1.5
			c-0.6-0.4-0.8-1.2-1.2-1.6c-0.6-0.6-0.6-1.5-1.3-1.9c-0.1,0-0.3,0-0.5,0c-0.4-0.4-0.8-1.1-1.4-1.3c-0.6-0.2-0.9-0.7-1.7-0.7
			c-0.6,0.1-1-0.7-1.7-0.4c-0.2-0.2-0.3-0.3-0.5-0.5c-0.6,0-1.3,0-1.9,0c-0.2-0.2-0.4-0.3-0.5-0.5c-32,0-64,0-96,0
			c-0.2,0.2-0.4,0.3-0.6,0.5c-1,0-1.9,0-2.8,0c-0.1,0.1-0.2,0.2-0.4,0.4c-0.7,0-1.4,0.1-2,0.1c-0.4,0.8-1.4,0.1-1.8,0.8
			c-0.7-0.1-1.2,0.2-1.7,0.5c-0.6,0.3-1.2,0.6-1.8,0.9c-0.6,0.3-1.3,0.4-1.8,0.9c-0.5,0.5-1,1-1.4,1.5c-0.3,0-0.4,0-0.6,0
			c-0.2,0.2-0.5,0.5-0.7,0.7c0,0.1,0,0.3,0,0.5c-0.4,0.4-0.8,0.7-1.2,1.1c-0.3,0.3-0.7,0.6-0.8,1.1c-0.1,0.5-0.5,0.9-0.7,1.4
			c-0.2,0.4-0.2,0.9-0.7,1.2c0.1,0.6-0.1,1-0.4,1.5c-0.2,0.3,0,0.8-0.4,1.3c-0.3,0.4-0.2,1-0.2,1.5c-0.2,0.2-0.3,0.4-0.5,0.6
			c0,0.8,0,1.6,0,2.3c-0.2,0.2-0.3,0.3-0.4,0.4c-0.2,9.5-0.1,97.8,0.1,100.5c0.1,0.1,0.2,0.2,0.3,0.3c0,0.8,0,1.6,0,2.4
			c0.2,0.2,0.3,0.4,0.5,0.5c0,0.5,0,0.9,0,1.4c0.2,0.2,0.3,0.4,0.5,0.5c-0.2,0.9,0.7,1.6,0.5,2.4c0.6,0.8,1,1.7,1.3,2.6
			c0.3,0.7,1.2,0.9,1,1.7c0.5,0.5,0.9,0.9,1.3,1.4c0.9,1.1,2.4,1.5,3,2.5c1.5,0.5,2.5,1.6,3.9,1.6c0.2,0.2,0.5,0.3,0.6,0.5
			c0.4,0,0.6,0,0.8,0c0.2,0.2,0.3,0.3,0.5,0.5c0.5,0,0.9,0,1.4,0c0.2,0.2,0.4,0.3,0.5,0.5c0.6,0,1.3,0,1.9,0
			c0.1,0.1,0.2,0.2,0.4,0.4c33.8,0,67.6,0,101.4,0c0.1-0.1,0.2-0.2,0.4-0.4c0.5-0.1,1.2,0.1,1.6-0.2c1.4-0.9,3.2-1.2,4.2-2.7
			c0.3-0.5,0.4-1.2,1-1.5c0.1-0.1,0.2-0.2,0.2-0.4c0.1-0.6,0.8-1,0.5-1.7c0-0.1,0.3-0.4,0.5-0.6c0-0.7,0-1.5,0-2.3
			c0-0.1,0.1-0.1,0.2-0.2C1206.8,302.3,1206.9,302.2,1207,302.1z"/>
		<path fill="#F4D574" d="M229.7,189.8c0.1-0.1,0.2-0.2,0.3-0.3c0.1-0.1,0.1-0.1,0.1-0.2c0-1.4,0-2.9,0-4.3c0.1-0.1,0.3-0.3,0.5-0.5
			c0-0.8,0-1.6,0-2.4c0.2-0.2,0.3-0.3,0.4-0.4c0.3-0.7-0.2-1.6,0.3-2.3c0.4-0.5-0.1-1.3,0.7-1.6c0-0.3,0-0.6,0-1
			c0.2-0.2,0.3-0.4,0.5-0.5c0-0.3,0-0.6,0-0.9c0.2-0.2,0.3-0.4,0.5-0.5c0.1-0.4-0.1-0.8,0.2-1.2c0.6-0.6,0.5-1.6,1.2-2.1
			c0-0.6,0.5-1.1,0.7-1.6c0.2-0.5,0.9-0.7,0.8-1.3c1.2-0.8,1.6-2.3,2.7-3.2c1.1-1,2-2,3.1-3c0.3-0.3,0.9-0.2,1.2-0.7
			c0.2-0.3,0.6-0.4,1-0.6c0.4-0.2,0.7-0.8,1.1-0.8c0.6-0.1,0.8-0.7,1.3-1c0.6,0.3,0.8-0.8,1.5-0.5c0.4-0.8,1.4-0.1,1.8-0.8
			c0.7,0,1.1-0.8,1.9-0.6c0.4-0.3,0.8-0.8,1.4-0.4c0.2-0.2,0.4-0.4,0.6-0.5c0.5,0,0.9,0,1.4,0c0.2-0.2,0.4-0.3,0.5-0.5
			c0.5,0,0.9,0,1.4,0c0.1-0.1,0.2-0.2,0.4-0.4c0.6,0,1.3,0,1.9,0c0.2-0.2,0.3-0.3,0.5-0.5c0.9,0,1.9,0,2.9,0
			c0.2-0.2,0.3-0.3,0.4-0.4c34.6,0,69.2,0,103.8,0c0.2,0.2,0.3,0.3,0.4,0.4c1.1,0,2.2,0,3.3,0c0.2,0.2,0.4,0.3,0.5,0.5
			c0.6,0,1.3,0,1.9,0c0.2,0.2,0.4,0.3,0.5,0.5c0.5,0,0.9,0,1.4,0c0.2,0.2,0.4,0.3,0.5,0.5c0.4,0,0.8,0,1.2,0c0.4,0.2,0.7,0.5,1,0.4
			c0.6,0,0.8,0.4,1.2,0.5c0.5,0.1,1,0,1.3,0.5c0.7,0,1.2,0.8,1.9,0.5c0.3,0.6,1,0.4,1.3,0.8c0.3,0.4,0.7,0.6,1.1,0.7
			c0.5,0.2,1,0.5,1.3,0.8c0.3,0.4,0.9,0.3,1.2,0.7c0.5,0.7,1.4,0.7,1.9,1.3c0.5,0.6,1.1,1.1,1.7,1.7c0.5,0.5,0.9,0.9,1.4,1.4
			c0.5,0.5,1.1,0.8,1.3,1.4c0.2,0.7,0.7,1,1.1,1.5c-0.2,0.9,1.2,1.1,1,2c0.7,0.6,0.7,1.5,1.2,2.2c0.4,0.6,0.6,1.4,1,2
			c0.3,0.4-0.2,1.2,0.5,1.5c0,1,0.8,1.8,0.6,2.9c0.2,0.2,0.3,0.4,0.5,0.6c0,0.4,0,0.9,0,1.4c0.2,0.2,0.3,0.4,0.5,0.6
			c0,0.8,0,1.6,0,2.4c0.2,0.2,0.3,0.4,0.5,0.5c0,1.3,0,2.6,0,3.8c0.1,0.1,0.2,0.2,0.3,0.3c0.2,2.7,0.3,23.6,0.1,33.3
			c-0.1,0.1-0.2,0.2-0.4,0.4c0,1.2,0,2.5,0,3.7c-0.2,0.2-0.3,0.4-0.5,0.7c0,0.7,0,1.6,0,2.3c-0.2,0.2-0.3,0.3-0.4,0.4
			c0,0.4,0,0.9,0,1.4c-0.2,0.2-0.3,0.4-0.5,0.6c0,0.3,0,0.6,0,0.9c-0.2,0.2-0.3,0.4-0.5,0.5c0,0.3,0,0.6,0,0.9
			c-0.1,0.1-0.2,0.2-0.4,0.4c-0.3,0.5,0.1,1.3-0.6,1.7c0.1,0.6-0.2,1-0.5,1.5c-0.3,0.5-0.5,1.1-0.8,1.6c-0.2,0.5-0.4,0.9-0.8,1.4
			c-0.4,0.5-0.6,1.2-1,2c-0.4,0.4-1.1,0.9-1.5,1.6c-0.4,0.7-0.9,1.3-1.4,1.8c-0.6,0.6-1.2,1.2-1.9,1.9c-0.9,0.1-1.2,1.1-1.9,1.3
			c-0.9,0.2-1.2,1.2-2.1,1.2c-0.9,1.1-2.4,1.3-3.5,2.1c-0.5,0.4-1.1,0-1.5,0.5c-0.3,0.4-0.9,0.5-1.4,0.7c-0.2,0.1-0.5,0-0.7,0
			c-0.2,0.1-0.3,0.3-0.5,0.5c-0.3,0-0.6,0-1,0c-0.1,0.1-0.2,0.2-0.3,0.3c-0.5,0.3-1.1,0.1-1.6,0.2c-0.1,0.1-0.2,0.2-0.4,0.4
			c-0.6,0-1.3,0-1.9,0c-0.2,0.2-0.3,0.3-0.5,0.5c-0.8,0-1.6,0-2.4,0c-0.2,0.2-0.3,0.3-0.5,0.5c-1.1,0-2.3,0-3.4,0
			c-0.2,0.2-0.3,0.3-0.4,0.4c-21.7,0-43.5,0-65.2,0c-0.2,0.2-0.4,0.3-0.5,0.5c-0.5,0-0.9,0-1.4,0c-0.1,0.1-0.2,0.3-0.3,0.3
			c-1.7,0.5-2.8,1.8-4,3.1c-0.5,0.5-0.5,1.3-1.2,1.5c0,0.4,0,0.7,0,1.1c-0.1,0.1-0.2,0.2-0.3,0.3c-0.2,0.4-0.1,0.9-0.1,1.5
			c-0.1,0.1-0.2,0.3-0.4,0.6c0,15.8,0,31.7,0,47.6c0.1,0.1,0.3,0.3,0.4,0.4c0,0.6,0,1.2,0,1.8c2.2,3.6,1.4,2.8,4.5,5.6
			c0.9-0.1,1.5,0.7,2.4,0.5c0.2,0.1,0.3,0.3,0.5,0.5c20.3,0,40.6,0,60.9,0c0.2-0.2,0.3-0.3,0.5-0.5c0.8,0,1.6,0,2.4,0
			c0.1-0.1,0.2-0.2,0.3-0.3c0.4-0.2,0.9-0.1,1.4-0.1c0.4-0.1,0.6-0.6,1.2-0.5c0.4,0.1,0.8-0.4,1.2-0.4c0.6,0,0.8-0.5,1.2-0.5
			c0.5,0,0.7-0.7,1.2-0.5c0.6-0.8,1.7-1,2.4-1.8c0.5-0.6,1.1-1.1,1.7-1.7c0.5-0.5,1-0.8,1.3-1.4c0.3-0.6,0.7-1,1-1.5
			c0.4-0.7,0.7-1.4,1.1-2.2c0.1-0.3,0.4-0.7,0.5-1c0.1-0.2,0-0.5,0-0.7c0.2-0.2,0.3-0.4,0.5-0.5c0-0.4,0-0.8,0-1.3
			c0.1-0.1,0.2-0.3,0.5-0.6c0-0.7,0-1.6,0-2.3c0.2-0.2,0.3-0.3,0.5-0.5c0-7.8,0-15.6,0-23.4c0.3-0.5,0.8-0.9,0.5-1.4
			c0.2-0.4,0.7-0.6,0.5-1.1c0.6-0.6,1.1-1.1,1.7-1.7c0.3,0,0.6,0,0.9,0c0.1-0.1,0.2-0.2,0.3-0.3c0.1,0,0.3-0.1,0.4-0.1
			c4.2,0,8.5,0,12.7,0c0.3,0.5,0.7,0.7,1.3,0.4c0.5,0.5,1,0.9,1.3,1.4c0.3,0.4,0.6,0.9,0.9,1.4c0,0.4,0,0.8,0,1.3
			c0.2,0.2,0.3,0.4,0.5,0.6c0,8.8,0,17.6,0,26.4c-0.1,0.1-0.3,0.3-0.5,0.5c0,1.3,0,2.5,0,3.8c-0.1,0.1-0.2,0.2-0.4,0.4
			c0,0.8,0,1.6,0,2.4c-0.2,0.2-0.3,0.3-0.5,0.5c0,0.4,0,0.9,0,1.3c-0.2,0.2-0.3,0.4-0.5,0.6c0,0.5-0.1,1-0.1,1.5
			c-0.7,0.3-0.1,1.1-0.5,1.4c-0.6,0.4-0.1,1.1-0.5,1.5c-0.4,0.3-0.3,0.8-0.6,1.2c-0.3,0.3-0.4,0.9-0.6,1.4c-0.2,0.4-0.5,0.7-0.6,1.2
			c-0.1,0.5-0.5,1-0.8,1.3c-0.4,0.3-0.3,0.9-0.7,1.2c-0.7,0.5-0.7,1.4-1.3,1.9c-0.6,0.5-1.1,1.1-1.7,1.7c-0.8,0.8-1.7,1.7-2.5,2.5
			c-0.3,0.3-0.9,0.2-1.2,0.7c-0.3,0.4-0.7,0.7-0.9,1c-0.8,0.2-1.5,0.5-2,1.1c-0.6,0.7-1.7,0.7-2.3,1.4c-1.3-0.2-2.1,1.1-3.4,1.1
			c-0.2,0-0.3,0.3-0.5,0.4c-0.5,0-0.9,0-1.3,0c-0.1,0.1-0.3,0.4-0.5,0.4c-0.3,0.1-0.6,0.1-1,0.1c-0.1,0.1-0.3,0.3-0.5,0.5
			c-0.6,0-1.3,0-1.9,0c-0.2,0.2-0.4,0.3-0.5,0.5c-0.8,0-1.6,0-2.4,0c-0.1,0.1-0.2,0.2-0.3,0.3c-0.1,0-0.1,0.1-0.2,0.1
			c-1.4,0-2.9,0-4.3,0c-0.2,0.2-0.3,0.3-0.4,0.4c-32.8,0-65.7,0-98.5,0c-0.1-0.1-0.2-0.2-0.4-0.4c-1.6,0-3.1,0-4.7,0
			c-0.2-0.2-0.4-0.3-0.6-0.5c-0.7,0-1.5,0-2.3,0c-0.2-0.2-0.4-0.3-0.5-0.5c-0.5,0-0.9,0-1.4,0c-0.1-0.1-0.2-0.2-0.4-0.4
			c-0.5-0.3-1.1-0.1-1.3-0.1c-0.5-0.2-0.8-0.5-1-0.5c-0.6,0.2-1-0.6-1.5-0.5c-0.7,0.2-0.9-0.7-1.5-0.5c-0.7,0.2-0.9-0.7-1.5-0.5
			c-0.4-0.5-0.9-0.4-1.5-0.5c-0.3-0.1-0.5-0.5-1-0.5c-0.8-1.2-2.5-1.2-3.3-2.4c-0.2,0-0.3,0-0.5,0c-0.4-0.4-0.9-0.9-1.3-1.4
			c-0.5-0.5-1-0.9-1.7-1.2c-0.9-0.4-1-1.5-1.7-2.2c-0.6-0.6-1.2-1.3-1.8-1.9c0-0.6-0.5-0.7-0.8-1.1c-0.2-0.4-0.2-0.9-0.7-1.2
			c0.2-0.6-0.5-0.7-0.5-1.2c0-0.4-0.6-0.7-0.5-1.2c-0.7-0.6-0.6-1.7-1.4-2.3c0-0.3,0-0.6,0-1c-0.1-0.1-0.2-0.2-0.4-0.4
			c0-0.3,0-0.6-0.1-1c-0.2-0.2-0.3-0.4-0.5-0.5c0-0.4,0-0.8,0-1.3c-0.1-0.1-0.2-0.3-0.5-0.6c0-0.4,0-0.9,0-1.4
			c-0.2-0.2-0.3-0.3-0.5-0.5c0-0.8,0-1.6,0-2.4c-0.2-0.2-0.3-0.3-0.4-0.4c0-0.1,0-0.2,0-0.2c0-1.5,0-3,0-4.6
			c-0.2-0.2-0.3-0.3-0.5-0.5C229.7,266.6,229.7,228.2,229.7,189.8z M267.9,174.1c-0.9,0.2-1.9-0.2-2.6,0.5c-0.5,0-0.9,0.1-1.3,0.4
			c-0.4,0.3-1.1,0-1.4,0.6c-0.6-0.2-0.8,0.4-1.2,0.5c-0.8,0.2-1.5,0.7-2.2,1c-0.5,0.2-0.6,0.9-1.3,0.9c-0.1,0-0.2,0.2-0.3,0.3
			c-0.5,0.5-0.9,0.9-1.3,1.4c-0.3,0.4-0.9,0.6-1,1.3c-0.1,0.7-1.1,0.7-1,1.5c-0.5,0.4-0.4,1.2-1,1.5c0.2,0.6-0.5,0.7-0.5,1.2
			c0,0.3-0.4,0.7-0.4,1c0,0.5-0.4,0.8-0.5,1.3c-0.1,0.4,0,0.9,0,1.3c-0.2,0.3-0.4,0.5-0.5,0.7c0,0.8,0,1.6,0,2.3
			c-0.2,0.2-0.3,0.3-0.4,0.4c-0.2,8.9-0.1,34.9,0.1,37.6c0.1,0.1,0.2,0.2,0.3,0.3c0,0.5,0,0.9,0,1.4c0.2,0.2,0.3,0.4,0.5,0.5
			c0,0.3,0,0.6,0,1c0.8,0.3,0.8,1.2,1.4,1.8c0.6,0.6,1.1,1.1,1.6,1.6c1.1,0.6,2.1,1,3.3,1.6c0.4,0,1,0,1.6,0
			c0.2,0.2,0.4,0.3,0.5,0.5c32.7,0,65.3,0,97.9,0c0.1-0.1,0.2-0.2,0.4-0.4c1.2,0,2.6,0,3.8,0c0.3-0.2,0.5-0.4,0.7-0.6
			c1.1,0.3,1.9-0.6,2.9-0.5c0.3-0.7,1-0.2,1.5-0.5c0.7-0.5,1.5-0.7,2.2-1.2c0.4-0.3,1-0.3,1.4-0.6c0.5-0.3,0.9-0.8,1.4-1.2
			c0.2-0.1,0.4-0.2,0.8-0.3c0.4-0.4,0.9-0.9,1.4-1.4c0.4-0.5,0.7-1.2,1.2-1.6c0.4-0.4,0.3-0.9,0.7-1.2c0.5-0.3,0.5-1,0.9-1.3
			c0.5-0.5,0-1.1,0.5-1.5c0.4-0.3,0.4-0.8,0.6-1.2c0.3-0.4,0.2-1,0.2-1.5c0.2-0.2,0.3-0.4,0.5-0.6c0-0.8,0-1.6,0-2.3
			c0.2-0.2,0.3-0.3,0.4-0.4c0.1-6.9,0.1-26-0.1-28.5c-0.1-0.1-0.2-0.2-0.3-0.3c0-0.8,0-1.6,0-2.4c-0.2-0.2-0.3-0.4-0.5-0.5
			c0-0.3,0-0.6,0-0.9c-0.2-0.2-0.3-0.4-0.5-0.5c0.1-0.9-0.5-1.6-0.9-2.3c-0.4-0.8-0.7-1.6-1.2-2.6c-0.5-0.4-1.1-1-1.7-1.6
			c0-0.4-0.1-0.8-0.5-1c-0.5-0.3-1.2-0.5-1.5-1c-0.3-0.6-1-0.6-1.5-1c-1.1-0.9-2.9-1.7-4.4-2.1c-0.2-0.1-0.4-0.3-0.7-0.5
			c-0.4,0-0.9,0-1.4,0c-0.2-0.2-0.3-0.3-0.4-0.4c-0.5,0-1,0-1.4,0c-0.2-0.2-0.4-0.3-0.5-0.5c-1.6,0-3.2,0-4.8,0
			c-0.1-0.1-0.2-0.2-0.4-0.4c-27.8,0-55.7,0-83.6,0c-0.1,0.1-0.2,0.2-0.4,0.4c-1.4,0-2.9,0-4.3,0C268.2,173.8,268.1,174,267.9,174.1
			z"/>
		<path fill="#F4D574" d="M1301.8,253.4c-0.1-0.1-0.2-0.2-0.4-0.4c-0.9,0-2,0-2.9,0c-0.2-0.2-0.3-0.3-0.5-0.5c-0.7,0-1.5,0-2.3,0
			c-0.2-0.2-0.4-0.3-0.7-0.5c-0.4,0-0.8,0-1.3,0c-0.2-0.2-0.4-0.3-0.6-0.5c-0.6-0.2-1.4,0.3-1.9-0.5c-0.7,0.1-1.2-0.2-1.7-0.5
			c-0.5-0.3-1-0.7-1.7-0.5c-0.5-0.5-1.2-0.6-1.8-0.9c-0.5-0.3-1-0.6-1.5-0.9c-0.9,0.2-1.1-1.2-2-1c-0.5-0.5-0.8-1.1-1.4-1.3
			c-0.7-0.2-1-0.7-1.5-1.1c-0.5-0.4-0.9-0.9-1.4-1.4c-0.4-0.5-0.4-1.1-1-1.5c-0.5-0.3-0.8-0.8-1.1-1.1c-0.1-0.3-0.1-0.6-0.2-0.7
			c-0.5-0.3-0.2-0.9-0.7-1.2c-0.4-0.2-0.6-0.7-0.7-1.1c-0.1-0.3-0.3-0.6-0.4-1c-0.1-0.5-0.3-1.1-0.6-1.4c-0.4-0.4-0.3-0.9-0.3-1.3
			c-0.2-0.2-0.3-0.3-0.5-0.5c0-0.3,0-0.6,0-0.9c-0.1-0.1-0.2-0.2-0.4-0.4c0-0.4,0-1-0.1-1.5c-0.1-0.1-0.2-0.2-0.4-0.4
			c0-0.8,0-1.6,0-2.4c-0.2-0.2-0.3-0.3-0.5-0.5c0-1.7,0-3.5,0-5.3c-0.2-0.2-0.3-0.3-0.4-0.4c0-11.9,0-23.8,0-35.6
			c0.2-0.2,0.3-0.3,0.4-0.4c0-1.7,0-3.5,0-5.3c0.2-0.2,0.3-0.4,0.5-0.5c0-0.6,0-1.3,0-1.9c0.2-0.2,0.3-0.4,0.5-0.5c0-0.5,0-1,0-1.4
			c0.2-0.2,0.5-0.5,0.4-0.6c-0.3-0.8,0.5-1.3,0.5-2c0-0.6,0.5-1.1,0.7-1.6c0.3-0.6,0.5-1.2,0.9-1.8c0.3-0.5,0.4-1.2,1-1.5
			c0.2-0.9,1-1.4,1.5-2c0.4-0.5,0.8-1.1,1.2-1.6c0.5-0.6,1.1-1.3,1.7-1.6c0.8-0.4,1.2-1,1.8-1.5c0.9,0.2,1.1-1.2,2-1
			c0.4-0.3,0.7-0.7,1.1-0.9c0.8-0.5,1.7-0.9,2.6-1.3c0.8-0.3,1.7-0.5,2.4-1.1c0.9,0.1,1.5-0.7,2.4-0.6c0.2,0,0.4-0.3,0.6-0.4
			c0.4,0,0.9,0,1.4,0c0.1-0.1,0.2-0.2,0.5-0.4c0.6-0.2,1.3,0.1,2-0.1c0.1-0.1,0.2-0.2,0.4-0.4c0.6,0,1.3,0,1.9,0
			c0.2-0.2,0.3-0.3,0.5-0.5c1.1,0,2.2,0,3.3,0c0.2-0.2,0.4-0.3,0.6-0.5c34.9,0,69.8,0,104.7,0c0.2,0.2,0.3,0.3,0.5,0.5
			c0.9,0,1.9,0,2.9,0c0.2,0.2,0.3,0.3,0.4,0.4c0.6,0,1.3,0,1.9,0c0.2,0.2,0.4,0.3,0.5,0.5c0.6,0,1.3,0,1.9,0
			c0.2,0.2,0.4,0.3,0.5,0.5c0.6-0.1,1,0.3,1.5,0.4c0.5,0.1,1,0.4,1.5,0.5c0.6,0.1,1,0.3,1.5,0.5c0.7-0.4,1.1,0.6,1.7,0.5
			c0.3,0.5,0.9,0.4,1.4,0.8c0.4,0.3,1,0.4,1.4,0.7c0.5,0.3,0.8,0.8,1.3,0.9c0.6,0.2,0.8,0.7,1.3,1c0.1,0,0.3,0,0.5,0
			c1.4,1.4,2.7,2.8,4.1,4.1c1.1,1,1.6,2.3,2.7,3.2c0.1,0.1,0.1,0.3,0.2,0.4c0.4,1.1,1.3,2,1.9,3.1c-0.1,0.6,0.2,1.2,0.5,1.7
			c0.3,0.5,0.7,1,0.5,1.7c0.8,0.3,0.2,1.2,0.7,1.6c0.5,0.4-0.1,1.3,0.7,1.6c0,0.5,0.1,0.9,0.1,1.5c0.1,0.1,0.2,0.3,0.4,0.5
			c0,0.7,0,1.5,0,2.3c0.2,0.2,0.3,0.4,0.5,0.5c0,1.1,0,2.2,0,3.3c0.1,0.1,0.2,0.2,0.3,0.4c0,0.1,0.1,0.3,0.1,0.4
			c0,7.8,0,15.5,0,23.3c-0.1,0.1-0.2,0.2-0.4,0.4c0,0.3-0.1,0.7-0.1,1.1c-0.3,0.3-0.6,0.6-0.8,0.8c-0.1,0.3-0.2,0.5-0.3,0.8
			c-0.2,0-0.4,0-0.6,0c-0.3,0.3-0.6,0.6-0.9,0.9c-0.5,0-1,0-1.4,0c-0.2,0.2-0.3,0.3-0.5,0.5c-3.6,0-7.3,0-11.1,0
			c-0.1-0.1-0.3-0.3-0.5-0.4c-0.4,0-0.9,0-1.4,0c-0.5-0.3-0.8-0.9-1.5-1.1c-0.6-0.1-1.1-1.6-1.2-2.6c-0.2-0.2-0.3-0.4-0.5-0.5
			c0-6.9,0-13.7,0-20.6c-0.1-0.1-0.2-0.2-0.4-0.4c0-0.2-0.1-0.4,0-0.6c0.3-1.1-0.6-1.9-0.6-2.9c-0.5-0.3-0.2-1-0.4-1.3
			c-0.4-0.4-0.4-1-0.8-1.4c-0.3-0.3-0.3-0.8-0.6-1.2c-0.1-0.1-0.1-0.5-0.2-0.6c-0.5-0.4-0.6-1.1-1-1.5c-1-1.1-2-2.1-3-3.1
			c-0.1-0.1-0.3-0.3-0.4-0.3c-0.8,0.1-0.9-0.8-1.5-1c-0.6-0.2-1.1-0.4-1.6-0.8c-0.1,0-0.1-0.1-0.2-0.1c-0.9,0.1-1.5-0.5-2.3-0.8
			c-0.5-0.2-1.1-0.1-1.6-0.2c-0.1-0.1-0.2-0.2-0.4-0.4c-0.6,0-1.3,0-1.9,0c-0.2-0.2-0.3-0.3-0.4-0.4c-1.4,0-2.9,0-4.3,0
			c-0.2-0.2-0.4-0.3-0.5-0.5c-28,0-56,0-84,0c-0.2,0.2-0.3,0.3-0.5,0.5c-1.8,0-3.5,0-5.3,0c-0.1,0.1-0.2,0.2-0.4,0.4
			c-0.6,0-1.3,0-1.9,0c-0.2,0.2-0.3,0.3-0.5,0.5c-0.4,0-0.9,0-1.2,0c-0.6,0.3-1.1,0.4-1.4,0.7c-0.4,0.4-0.9,0.2-1.3,0.4
			c-0.7,0.4-1.6,0.6-2.1,1.2c-0.5,0.5-1.2,0.6-1.7,1.1c-0.9,1-1.9,2-2.9,2.9c-0.4,0.3-0.2,0.9-0.7,1.2c-0.4,0.2-0.5,0.7-0.7,1.1
			c-0.2,0.4-0.3,0.7-0.4,1.1c0,0.3-0.2,0.5-0.5,1c0,0.1,0,0.4,0,0.8c-0.1,0.1-0.2,0.2-0.3,0.4c-0.1,0.1-0.1,0.3-0.1,0.4
			c0,0.6,0,1.1,0,1.7c-0.1,0.1-0.2,0.2-0.4,0.4c-0.2,2.6-0.3,22.7-0.1,30.9c0.1,0.1,0.2,0.2,0.4,0.4c0,0.7,0,1.5,0,2.3
			c0.2,0.2,0.3,0.4,0.5,0.7c0,0.3-0.2,0.9,0,1.3c0.4,0.7,0.7,1.5,1.1,2.2c0.2,0.3,0.1,0.8,0.5,1c0.8,0.6,0.9,1.6,1.7,2.2
			c0.8,0.7,1.5,1.5,2,2c1.1,0.5,2,0.8,2.5,1.6c1-0.1,1.7,0.6,2.7,1c0,0,0.4,0,0.7,0c0.2,0.2,0.4,0.3,0.5,0.5c0.5,0,1,0,1.4,0
			c0.1,0.1,0.2,0.2,0.3,0.3c0.1,0,0.1,0.1,0.2,0.1c0.8,0,1.6,0,2.3,0c0.1,0.1,0.3,0.3,0.5,0.5c33.3,0,66.6,0,99.8,0
			c0.2,0.2,0.3,0.3,0.5,0.5c1.1,0,2.3,0,3.4,0c0.2,0.2,0.3,0.3,0.5,0.5c0.6,0,1.3,0,1.9,0c0.2,0.2,0.3,0.3,0.4,0.4
			c0.5,0,0.9,0,1.4,0c0.2,0.2,0.4,0.3,0.5,0.5c0.5,0,1,0,1.4,0c0.1,0.1,0.2,0.2,0.3,0.3c0.4,0.4,1.2-0.2,1.5,0.5
			c0.6,0.2,1.2,0.1,1.7,0.6c0.4,0.3,1,0.4,1.4,0.6c0.7,0.5,1.5,0.6,2.1,1.2c0.6,0.5,1.3,0.8,2,1.1c0.1,0,0.2,0,0.2,0.1
			c0.7,0.7,1.3,1.5,2.1,2c0.8,0.5,1.7,1,2.1,1.8c0.6,1,1.4,1.7,2.1,2.5c0.3,0.4,0.4,1,0.9,1.3c0.4,0.3,0.2,0.9,0.7,1.2
			c0.2,0.1,0.1,0.6,0.4,0.8c0.3,0.2,0.5,0.4,0.7,0.6c0,0.3,0,0.7,0,0.8c0.5,1.2,1.2,2.1,1.5,3.2c0.1,0.6,0.5,1.2,0.6,1.9
			c0,0.1,0.2,0.2,0.3,0.4c0,0.5,0,0.9,0,1.4c0.2,0.2,0.3,0.4,0.5,0.5c0,0.5,0,1,0,1.4c0.2,0.2,0.3,0.4,0.5,0.5c0,0.8,0,1.6,0,2.4
			c0.1,0.1,0.2,0.2,0.4,0.4c0,1.1,0,2.2,0,3.3c0.2,0.2,0.3,0.4,0.5,0.6c0,14.1,0,28.2,0,42.3c-0.2,0.2-0.3,0.3-0.4,0.4
			c0,0.9,0,1.9,0,2.8c-0.2,0.2-0.3,0.4-0.5,0.6c0,0.6,0,1.2,0,1.9c-0.2,0.2-0.3,0.4-0.5,0.5c0,0.5,0,1,0,1.4
			c-0.1,0.1-0.2,0.2-0.4,0.4c-0.3,0.5,0.1,1.3-0.6,1.7c0.1,0.5-0.4,0.6-0.5,1c-0.1,0.4,0,0.7-0.2,1.1c-0.4,0.5-0.5,1.3-0.9,1.8
			c-0.5,0.5-0.6,1.3-1.2,1.7c-0.5,0.4-0.5,1.1-1,1.5c-0.4,0.4-0.9,0.7-1.2,1.2c-0.4,0.6-0.6,1.3-1.2,1.6c-0.6,0.4-1.2,0.7-1.7,1.2
			c-0.5,0.5-1,1-1.5,1.5c-0.2,0-0.3,0-0.5,0c-0.5,0.4-0.8,1-1.5,1c-1.1,0.7-2.3,1.3-3.6,1.8c-0.5,0.2-0.8,0.6-1.5,0.5
			c-0.4-0.1-0.7,0.6-1.2,0.5c-0.3,0.7-1,0.2-1.5,0.5c-0.1,0.1-0.2,0.2-0.4,0.4c-0.5,0-0.9,0-1.4,0c-0.2,0.2-0.4,0.3-0.5,0.5
			c-0.5,0-0.9,0-1.4,0c-0.1,0.1-0.2,0.2-0.5,0.5c-0.5,0.1-1.3,0-2,0c-0.1,0.1-0.2,0.2-0.4,0.4c-0.8,0.2-1.7,0-2.5,0.1
			c-0.1,0.1-0.2,0.2-0.4,0.4c-1.7,0-3.5,0-5.3,0c-0.2,0.2-0.3,0.3-0.4,0.4c-32.5,0-65,0-97.5,0c-0.2-0.2-0.3-0.3-0.4-0.4
			c-1.6,0-3.2,0-4.8,0c-0.2-0.2-0.4-0.3-0.6-0.5c-0.6,0-1.2,0-1.9,0c-0.2-0.2-0.4-0.3-0.5-0.5c-0.6,0-1.3,0-1.9,0
			c-0.1-0.1-0.2-0.2-0.3-0.3c-0.4-0.3-0.9-0.1-1.4-0.1c-0.1,0-0.2,0-0.2,0c-0.3-0.6-1.1-0.2-1.4-0.5c-0.4-0.4-0.9-0.3-1.3-0.4
			c-0.4-0.1-0.7-0.5-1.2-0.5c-0.5,0-1.1-0.3-1.4-0.6c-0.4-0.4-0.9-0.2-1.4-0.4c-0.4-0.7-1.3-0.9-2-1.4c-0.5-0.3-1.2-0.4-1.6-0.8
			c-0.7-0.8-1.7-1.1-2.4-1.8c-0.6-0.7-1.3-1.4-2-2c-0.5-0.5-1-1-1.5-1.5c-0.4-0.5-1-0.9-1.2-1.4c-0.2-0.6-0.9-0.8-1-1.3
			c-0.1-0.7-0.7-0.9-0.9-1.3c-0.2-0.4-0.4-0.8-0.6-1.2c-0.2-0.5-0.3-1.1-0.6-1.4c-0.4-0.4-0.2-0.9-0.6-1.2c-0.4-0.3,0-0.8-0.2-1.1
			c-0.1-0.3-0.4-0.4-0.5-0.8c0-0.3-0.3-0.5-0.4-0.7c0-0.5-0.1-1-0.1-1.5c-0.8-0.4-0.1-1.4-0.9-1.8c0-0.6,0-1.3,0-1.9
			c-0.2-0.2-0.3-0.4-0.5-0.5c0-0.8,0-1.6,0-2.4c-0.1-0.1-0.2-0.2-0.3-0.2c-0.1-0.1-0.2-0.2-0.2-0.3c0-2.1,0-4.2,0-6.2
			c-0.1-0.1-0.2-0.2-0.4-0.4c-0.2-2.3-0.2-16.8-0.1-22.2c0.1-0.1,0.2-0.2,0.4-0.4c0-0.6,0-1.2,0-1.7c0.5-0.9,0.8-1.8,1.3-2.5
			c0.5-0.8,1.7-0.7,2.3-1.4c4.3,0,8.6,0,13,0c0.2,0.1,0.3,0.3,0.5,0.5c0.3,0,0.6,0,0.9,0c0.7,0.7,1.4,1.4,2.1,2.1
			c0,0.3,0.1,0.7,0.1,1.1c0.1,0.1,0.2,0.2,0.4,0.4c0,7.7,0,15.4,0,23c0.2,0.2,0.3,0.3,0.5,0.5c0,0.9,0,1.9,0,2.9
			c0.2,0.2,0.3,0.3,0.4,0.4c0,0.5,0,0.9,0,1.4c0.2,0.2,0.3,0.4,0.5,0.5c0,0.2-0.1,0.5,0,0.7c0.6,1.4,1.4,2.6,1.9,4
			c0.2,0.4,0.6,0.7,0.9,1.1c0,0.1,0,0.3,0,0.4c0.5,0.5,1,1,1.5,1.5c0.5,0.5,1,1,1.5,1.5c0.8-0.1,1,0.8,1.7,1.1
			c0.6,0.2,1.2,0.6,1.8,0.9c0.6,0.3,1.2,0.7,2.3,1c0,0,0.4,0,0.9,0c0.2,0.2,0.4,0.3,0.6,0.5c0.4,0,0.9,0,1.4,0
			c0.2,0.2,0.4,0.3,0.5,0.5c0.8,0,1.6,0,2.4,0c0.1,0.1,0.2,0.2,0.3,0.3c3.1,0.3,44.3,0.3,65.9,0.1c0.3-0.6,1-0.3,1.5-0.5
			c0.5-0.2,0.9-0.6,1.3-0.8c0.5-0.2,1-0.4,1.6-0.7c0.4-0.4,1-1,1.6-1.7c0,0,0-0.2,0-0.3c0.3-0.4,0.7-0.7,1-1c-0.1-0.6,0.2-1,0.4-1.5
			c0.2-0.4,0-0.9,0-1.3c0.2-0.2,0.3-0.3,0.4-0.4c0-17.1,0-34.3,0-51.5c-0.2-0.2-0.3-0.3-0.4-0.4c0-0.4,0-0.9,0-1.4
			c-0.2-0.3-0.5-0.5-0.5-0.8c0-0.5-0.7-0.7-0.5-1.2c-0.7-0.4-0.8-1.4-1.4-1.8c-0.5-0.4-1.1-0.8-1.7-1.2c-0.5-0.3-1.1-0.9-1.9-0.6
			c-0.1,0-0.4-0.3-0.6-0.4c-0.4,0-0.9,0-1.4,0c-0.2-0.2-0.4-0.3-0.5-0.5C1351.4,253.4,1326.6,253.4,1301.8,253.4z"/>
		<path fill="#F4D574" d="M52.8,154.5c34.9,0,69.7,0,104.6,0c0.1,0.1,0.2,0.2,0.4,0.4c0.9,0,2,0,2.9,0c0.2,0.2,0.3,0.3,0.5,0.5
			c0.8,0,1.6,0,2.4,0c0.2,0.2,0.3,0.3,0.5,0.5c0.5,0,1,0,1.4,0c0.2,0.2,0.3,0.3,0.5,0.5c0.4,0,0.9,0,1.4,0c0.2,0.2,0.4,0.3,0.5,0.5
			c0.6-0.1,1.1,0.3,1.7,0.5c0.5,0.2,0.8,0.6,1.5,0.5c0.4-0.1,0.7,0.5,1.2,0.6c0.5,0.1,0.9,0.6,1.3,0.8c0.6,0.2,1.3,0.5,1.8,0.9
			c0.5,0.5,1.2,0.5,1.5,1c0.4,0.6,1.1,0.5,1.5,1c0.4,0.5,0.8,1.1,1.4,1.3c1,0.4,1.5,1.2,2.2,1.7c0.3,1.2,1.4,1.7,2,2.6
			c0,0.1,0,0.3,0,0.3c0.6,0.8,1,1.5,1.5,2.1c0.5,0.6,0.6,1.4,1,2c0.3,0.4,0.4,1,0.7,1.4c0.2,0.3,0,0.9,0.4,1.3
			c0.3,0.3,0.6,0.9,0.6,1.4c0,0.5,0.4,0.8,0.5,1.2c0.1,0.5-0.2,1,0.5,1.2c0,0.6,0,1,0,1.5c0.1,0.1,0.2,0.2,0.5,0.5
			c0.1,0.5,0,1.2,0,1.9c0.1,0.1,0.2,0.2,0.4,0.4c0.2,1.1,0,2.3,0.1,3.5c0.1,0.1,0.2,0.2,0.4,0.4c0,8.1,0,16.2,0,24.5
			c-0.1,0.3-0.6,0.5-0.4,1.1c0.2,0.5-0.5,0.7-0.5,1.2c0,0.4-0.6,0.7-0.9,1c-0.3,0.3-0.8,0.4-1.3,0.7c-0.3,0-0.8,0-1.2,0
			c-0.2,0.2-0.4,0.3-0.5,0.5c-3.7,0-7.4,0-11,0c-0.2-0.2-0.4-0.3-0.5-0.5c-2.1-0.1-3.1-1.5-4-3.2c0-0.4,0-0.9,0-1.3
			c-0.2-0.2-0.3-0.4-0.5-0.6c0-6.7,0-13.4,0-20.1c-0.2-0.2-0.3-0.4-0.5-0.5c0-0.6,0-1.3,0-1.9c-0.2-0.2-0.3-0.4-0.5-0.5
			c0-0.3,0-0.6,0-0.9c-0.6-0.3-0.3-1.1-0.6-1.4c-0.3-0.5-0.7-1-0.8-1.6c-0.2-0.6-0.7-0.8-1-1.3c0-0.2,0-0.3,0-0.5
			c-0.9-0.9-1.8-1.8-2.7-2.7c-0.5-0.5-0.9-0.9-1.4-1.4c-0.8,0.1-1-0.8-1.5-1c-0.7-0.2-1.4-0.6-2-1c-0.3-0.2-0.5-0.3-1-0.5
			c-0.1,0-0.4,0-0.7,0c-0.2-0.2-0.4-0.3-0.5-0.5c-0.5,0-0.9,0-1.4,0c-0.1-0.1-0.2-0.2-0.3-0.3c-0.5-0.3-1.1-0.1-1.6-0.2
			c-0.2-0.2-0.4-0.3-0.5-0.5c-1.4,0-2.8,0-4.2,0c-0.1-0.1-0.3-0.2-0.6-0.4c-28.1,0-56.3,0-84.5,0c-0.1,0.1-0.3,0.3-0.4,0.4
			c-1.6,0-3.2,0-4.7,0c-0.2,0.2-0.4,0.3-0.6,0.5c-0.8,0-1.6,0-2.3,0c-0.2,0.2-0.4,0.3-0.5,0.5c-0.3,0-0.6,0-0.9,0
			c-0.2,0.2-0.4,0.3-0.5,0.5c-0.3,0-0.5,0-0.7,0c-0.8,0.5-1.7,0.5-2.5,1c-0.7,0.5-1.6,0.6-2,1.4c-0.2,0-0.4,0-0.6,0
			c-1.2,1.2-2.4,2.4-3.4,3.4c-0.5,1-0.9,1.9-1.3,2.8c-0.7,1.4-0.7,1.4-0.8,2.8c-0.1,0.1-0.2,0.2-0.4,0.4c0,0.9,0,1.9,0,2.9
			c-0.2,0.2-0.3,0.3-0.4,0.4c0,9.4,0,18.9,0,28.3c0.1,0.1,0.3,0.3,0.5,0.5c0,0.9,0,1.9,0,2.9c0.1,0.1,0.2,0.2,0.4,0.4
			c0,0.5,0,1,0,1.4c0.2,0.3,0.6,0.5,0.5,0.7c-0.2,0.7,0.4,1.2,0.5,1.7c0.1,0.3,0.5,0.6,0.7,0.9c0.2,0.3,0.3,0.7,0.5,1
			c0.2,0.3,0.6,0.5,0.6,0.7c0,0.5,0.3,0.7,0.6,1c0.5,0.5,1,1,1.5,1.5c0.8,0,1.1,0.8,1.7,1.1c0.6,0.3,1.3,0.5,1.8,0.9
			c0.5-0.1,0.7,0.3,1,0.5c0.4,0.2,0.8,0.4,1.2,0.5c0.4,0,0.7,0.2,1,0.4c0.4,0.2,0.9,0.1,1.5,0.1c0.1,0.1,0.3,0.3,0.5,0.4
			c0.9,0,1.9,0,2.8,0c0.2,0.2,0.4,0.3,0.5,0.5c33.1,0,66.2,0,99.4,0c0.1,0.1,0.2,0.2,0.3,0.3c0.1,0.1,0.2,0.2,0.3,0.2
			c1.1,0,2.2,0,3.3,0c0.1,0.1,0.2,0.2,0.4,0.4c0.6,0,1.3,0,1.9,0c0.2,0.2,0.3,0.3,0.5,0.5c0.2,0,0.5,0,0.8,0c0.4,0,0.8,0.1,1.2,0.1
			c0.3,0.8,1.2,0.1,1.6,0.7c0.3,0.4,0.7,0.1,1.1,0.2c0.1,0.1,0.3,0.3,0.5,0.5c0.4,0,0.9,0,1.3,0.3c0.7,0.5,1.6,0.7,2.4,1.1
			c0.8,0.4,1.7,0.7,2.3,1.3c0.7,0.6,1.6,0.9,2.2,1.7c0.3,0.4,0.9,0.5,1.3,0.9c0.4,0.4,0.8,0.8,1.2,1.2c0.4,0.4,0.9,0.7,1.2,1.2
			c0.5,1.1,1.4,1.8,2.2,2.7c0,0.2-0.1,0.4,0,0.5c0.6,0.3,0.3,1,0.8,1.4c0.2,0.2,0.5,0.4,0.6,0.7c0.4,1,0.9,1.9,1.4,2.8
			c0.2,0.4-0.1,0.9,0.3,1.3c0.3,0.3,0.3,0.8,0.6,1.1c0,0.4,0,0.8,0,1.2c0,0.1,0.1,0.3,0.2,0.4c0.5,0.4-0.1,1.3,0.7,1.6
			c0,0.5,0,0.9,0,1.4c0.2,0.2,0.3,0.4,0.5,0.6c0,0.6,0,1.2,0,1.9c0.2,0.2,0.3,0.4,0.5,0.5c0,1.1,0,2.2,0,3.3
			c0.1,0.1,0.2,0.2,0.3,0.3c0.2,2.7,0.3,35.1,0.1,44.3c-0.1,0.1-0.2,0.2-0.4,0.4c0,0.7,0,1.5,0,2.3c-0.2,0.2-0.3,0.4-0.5,0.6
			c0,0.5-0.1,1.1-0.1,1.6c0,0.5-0.6,0.7-0.5,1.2c0.2,0.7-0.5,1-0.5,1.7c0,0.5-0.5,1-0.5,1.7c0,0.4-0.6,0.9-0.8,1.3
			c-0.3,0.8-0.9,1.5-1.1,2.4c0,0.1-0.1,0.1-0.1,0.2c-0.3,0.3-0.6,0.6-0.8,0.9c-0.1,0.1,0,0.4,0,0.5c-0.5,0.5-1.1,1-1.4,1.6
			c-0.3,0.6-0.8,1-1.2,1.4c-0.5,0.5-1,1.1-1.5,1.5c-0.4,0.3-0.9,0.6-1.3,0.9c-0.4,0.3-0.8,0.9-1.3,1c-0.6,0.2-0.8,0.8-1.3,1
			c-1.1,0.3-2,1-3,1.5c-0.5,0.3-1.1,0.5-1.6,0.8c-0.5,0.2-1,0.7-1.4,0.6c-0.6-0.1-0.9,0.6-1.5,0.5c-0.5-0.1-0.8,0.3-1.3,0.5
			c-0.4,0.1-0.9,0-1.3,0c-0.2,0.2-0.3,0.3-0.4,0.4c-0.4,0-0.9,0-1.4,0c-0.2,0.2-0.4,0.3-0.6,0.5c-0.6,0-1.2,0-1.9,0
			c-0.2,0.2-0.4,0.3-0.5,0.5c-0.8,0-1.6,0-2.4,0c-0.1,0.1-0.2,0.2-0.3,0.3c-0.1,0.1-0.2,0.2-0.2,0.2c-1.8,0-3.5,0-5.2,0
			c-0.1,0.1-0.2,0.2-0.4,0.4c-32.5,0-65,0-97.6,0c-0.1-0.1-0.2-0.2-0.4-0.4c-1.4,0-2.9,0-4.3,0c-0.2-0.2-0.3-0.3-0.5-0.5
			c-0.8,0-1.5,0-2.3,0c-0.2-0.2-0.4-0.3-0.6-0.5c-0.6,0-1.2,0-1.9,0c-0.2-0.2-0.4-0.3-0.5-0.5c-0.5,0-0.9,0-1.4,0
			c-0.2-0.2-0.4-0.3-0.5-0.5c-0.2,0-0.5,0-0.8,0c-0.4,0-0.6-0.7-1.2-0.5c-0.5,0.2-0.6-0.4-1-0.5c-0.3-0.1-0.7,0.1-0.9-0.1
			c-0.6-0.5-1.4-0.6-2-1c-0.3-0.2-0.5-0.3-0.8-0.3c-0.3,0-0.4-0.4-0.8-0.5c-0.5-0.1-1-0.3-1.4-0.7c-0.6-0.7-1.7-0.8-2.2-1.7
			c-0.2,0-0.4,0-0.5,0c-1.2-1.2-2.4-2.5-3.8-3.7c-0.8-0.7-1.1-1.7-1.9-2.3c-0.7-0.6-0.9-1.7-1.7-2.2c-0.4-1.3-1.4-2.3-1.6-3.7
			c-0.1-0.5-0.3-1.1-0.6-1.4c-0.5-0.5,0-1.2-0.5-1.5c-0.6-0.4,0-1.1-0.5-1.5c-0.6-0.5-0.1-1.2-0.3-1.8c-0.1-0.1-0.2-0.2-0.4-0.4
			c0-0.6,0-1.3,0-1.9c-0.2-0.2-0.3-0.3-0.4-0.4c0-0.9,0-1.9,0-2.8c-0.2-0.2-0.3-0.4-0.5-0.6c0-10.1,0-20.1,0-30.1
			c0.2-0.4,0.4-0.7,0.8-1.4c0.2-0.2,0.8-0.7,1.2-1.2c0.4-0.5,1.1-0.5,1.5-1c4.4,0,8.9,0,13.4,0c0.5,0.3,1.1,0.7,1.7,0.9
			c0.5,0.2,0.8,0.5,1,0.9c0.3,0.6,0.6,1.2,1,2c0,7.1,0,14.5,0,21.8c0.1,0.1,0.2,0.2,0.3,0.4c0.1,0.1,0.1,0.1,0.1,0.2
			c0,1.3,0,2.6,0,3.8c0.1,0.1,0.2,0.2,0.4,0.4c0.3,0.4,0,0.9,0.2,1.4c0.2,0.5,0.5,0.9,0.5,1.5c0,0.4,0.5,0.7,0.5,1.2
			c0,0.5,0.3,1.1,0.6,1.4c0.4,0.4,0.3,0.8,0.6,1.2c0.3,0.4,0.4,0.9,0.9,1.3c0.3,0.3,0.7,0.6,0.8,1.1c0.1,0.5,0.7,0.8,1.1,1.2
			c0.3,0.3,0.7,0.7,1,1c0.1,0,0.3,0,0.5,0c1,1.6,2.9,1.9,4.4,2.9c0.2,0,0.5,0,0.8,0c0.2,0.2,0.4,0.3,0.5,0.5c0.3,0,0.6,0,0.9,0
			c0.2,0.2,0.4,0.3,0.5,0.5c0.4,0,0.8,0,1.3,0c0.1,0.1,0.3,0.2,0.6,0.5c0.7,0,1.6,0,2.3,0c0.2,0.2,0.3,0.3,0.5,0.5
			c21.9,0,43.8,0,65.8,0c0.1-0.1,0.3-0.2,0.5-0.4c0.3,0,0.6,0,0.9,0c0.2-0.2,0.4-0.3,0.5-0.5c0.3,0,0.6,0,1,0
			c0.4-0.7,1.2-0.8,1.8-1.4c0.6-0.5,1.1-1.1,1.5-1.5c0.4-0.9,0.8-1.5,1.2-2.3c0-0.3,0-0.8,0-1.2c0.2-0.2,0.3-0.4,0.5-0.5
			c0-17.4,0-34.9,0-52.3c-0.1-0.1-0.2-0.2-0.3-0.3c-0.2-0.4-0.1-0.9-0.1-1.4c0-0.1,0-0.2,0-0.2c-0.3-0.2-0.3-0.7-0.5-1
			c-0.9-1-1.4-2.3-2.3-2.8c-1.2-0.6-2.1-1-3.4-1.6c-0.3,0-1,0-1.6,0c-0.2-0.2-0.3-0.3-0.5-0.5c-24.8,0-49.6,0-74.4,0
			c-0.2-0.2-0.3-0.3-0.5-0.5c-0.9,0-2,0-2.9,0c-0.2-0.2-0.3-0.3-0.4-0.4c-0.8,0-1.6,0-2.4,0c-0.2-0.2-0.4-0.3-0.5-0.5
			c-0.5,0-1,0-1.4,0c-0.1-0.1-0.2-0.2-0.4-0.4c-0.2,0-0.5,0-0.8-0.1c-0.8-0.4-0.8-0.4-1.9-0.5c-0.5-0.2-1-0.4-1.4-0.8
			c-0.5-0.4-1.1,0-1.5-0.5c-0.3-0.4-0.9-0.5-1.4-0.7c-0.5-0.2-1-0.4-1.4-0.7c-0.4-0.3-0.8-0.7-1.3-0.9c-0.5-0.1-0.7-0.7-1.3-0.9
			c-0.5-0.1-0.8-0.7-1.2-1.1c-0.4-0.4-0.8-0.8-1.2-1.2c-0.2,0-0.3,0-0.4,0c-0.4-0.1-0.3-0.5-0.3-0.8c-0.3-0.3-0.6-0.6-0.9-0.9
			c-0.5-0.5-0.9-0.9-1.4-1.4c-0.1-0.1-0.1-0.3-0.1-0.4c-0.8-1-1.4-2.1-1.9-3.3c-0.2-0.4-0.7-0.7-0.5-1.2c-0.6-0.3-0.3-1.1-0.6-1.4
			c-0.3-0.4-0.4-0.8-0.4-1.3c0-0.2-0.3-0.4-0.4-0.6c-0.1-0.3,0-0.6-0.1-0.9c-0.1-0.2-0.3-0.4-0.4-0.6c0-0.4,0-0.9,0-1.4
			c-0.2-0.2-0.3-0.4-0.5-0.5c0-0.8,0-1.6,0-2.4c-0.2-0.2-0.3-0.4-0.5-0.5c0-15.2,0-30.4,0-45.6c0.1-0.1,0.2-0.2,0.3-0.3
			c0-0.1,0.1-0.1,0.1-0.2c0-0.8,0-1.6,0-2.3c0.2-0.2,0.3-0.3,0.4-0.4c0.3-0.5-0.2-1.3,0.3-1.8c0.5-0.4,0-1.3,0.7-1.6
			c-0.3-0.8,0.7-1.4,0.5-2.2c0-0.1,0-0.2,0-0.2c0.5-0.5,0.5-1.3,1-1.8c0.7-0.8,1-1.9,1.9-2.6c0-0.2,0-0.3,0-0.5
			c1.5-1.5,2.9-2.9,4.4-4.4c0.5-0.5,0.9-1.1,1.7-1.2c0.4-0.6,1-0.9,1.7-1.2c0.6-0.2,1-0.6,1.5-1c0.5-0.3,1.1-0.4,1.6-0.7
			c0.3-0.2,0.6-0.4,1-0.4c0.3,0,0.7-0.3,1-0.5c0.3-0.1,0.5-0.3,0.9-0.5c0.2,0,0.5,0,0.8,0c0.2-0.2,0.4-0.3,0.5-0.5c0.5,0,1,0,1.4,0
			c0.4-0.8,1.4-0.1,1.8-0.9c0.7-0.1,1.4-0.1,2.1-0.1c0.1-0.1,0.2-0.2,0.4-0.4c0.8,0,1.6,0,2.4,0c0.2-0.2,0.3-0.3,0.4-0.4
			c0.9,0,1.9,0,2.9,0C52.5,154.8,52.7,154.6,52.8,154.5z"/>
		<path fill="#F4D574" d="M843.6,161.9c0.2-0.2,0.3-0.4,0.5-0.5c0-0.3,0-0.6,0-0.9c0.3-0.4,0.8-0.7,0.9-1.1c0.1-0.4,0.4-0.7,0.6-0.9
			c0.3-0.4,0.7-0.7,1-1c0.2-0.2,0.4-0.5,0.5-0.5c0.9,0.1,1-1,1.7-1c0.3,0,0.7-0.4,1-0.4c0.8,0,1.5-0.9,2.4-0.5c0.2,0.1,0.5,0,0.6,0
			c0.1-0.1,0.3-0.3,0.4-0.4c42.3,0,84.6,0,126.8,0c0.2,0.2,0.3,0.3,0.4,0.4c0.9,0,1.9,0,2.8,0c0.2,0.2,0.4,0.3,0.6,0.5
			c0.6,0,1.2,0,1.9,0c0.2,0.2,0.4,0.3,0.5,0.5c0.5,0,1,0,1.4,0c0.2,0.2,0.4,0.3,0.5,0.5c0.4,0,0.8,0,1.2,0c0.3,0.2,0.7,0.3,1,0.5
			c0.2,0.1,0.6,0,0.7,0.1c0.4,0.8,1.5,0,1.8,0.8c0.7,0.1,1.2,0.8,1.9,0.5c0.3,0.5,1,0.4,1.3,0.8c0.3,0.4,0.8,0.5,1.1,0.7
			c0.4,0.3,0.9,0.2,1.2,0.6c0.5,0.7,1.3,0.7,1.9,1.3c0.7,0.9,1.9,1.1,2.5,2c0.4,0.6,1,1,1.5,1.5c0.4,0.5,1.1,0.9,1.2,1.4
			c0.3,0.7,0.9,1.1,1.3,1.6c0.2,0.2,0.2,0.6,0.4,0.8c0.4,0.5,0.4,1.1,1,1.5c0.4,0.3,0.6,0.9,0.7,1.3c0.1,0.5,0.7,0.8,0.5,1.5
			c-0.1,0.5,0.7,0.7,0.5,1.2c0.6,0.4,0.5,0.9,0.5,1.5c0.8,0.3,0.2,1.2,0.7,1.6c0.5,0.5,0,1.2,0.3,1.5c0.5,0.6,0.4,1.3,0.4,2
			c0.1,0.2,0.3,0.3,0.5,0.5c0,0.8,0,1.5,0,2.3c0.2,0.2,0.3,0.4,0.5,0.5c0,2.1,0,4.1,0,6.2c0.1,0.1,0.2,0.2,0.3,0.3
			c0.1,0.2,0.2,0.3,0.2,0.5c0,47.6,0,95.2,0,142.8c-0.1,0.1-0.2,0.2-0.4,0.4c0,0.6,0,1.3,0,2c-0.5,1.1-1.4,1.7-2,2.4
			c-0.5,0.3-0.9,0.6-1.3,0.7c-0.4,0.1-1,0-1.3,0.5c-3.7,0-7.3,0-11.1,0c-0.1-0.1-0.3-0.3-0.5-0.5c-0.5,0-0.9,0-1.3,0
			c-0.8-0.5-1.7-0.8-2.1-1.5c-0.4-0.7-0.6-1.3-1.1-2.3c0-47.8,0-95.8,0-143.8c-0.2-0.2-0.3-0.3-0.5-0.5c0-0.9,0-1.8,0-2.8
			c-0.2-0.2-0.3-0.4-0.5-0.7c0-0.4,0.1-0.9,0-1.3c-0.2-0.4-0.5-0.7-0.5-1.3c0-0.3-0.4-0.7-0.4-1c-0.1-0.5-0.7-0.7-0.5-1.2
			c-0.8-1.1-1.2-2.5-2.4-3.3c-0.1-0.1,0-0.3,0-0.4c-0.6-0.6-1.1-1.2-1.7-1.8c-0.9,0-1.1-0.9-1.7-1.2c-0.8-0.4-1.6-0.8-2.4-1.2
			c-0.5-0.2-1-0.4-1.4-0.7c-0.4-0.4-1,0-1.3-0.3c-0.4-0.5-1-0.3-1.5-0.5c-0.1-0.1-0.2-0.2-0.4-0.4c-0.6,0-1.2,0-1.9,0
			c-0.2-0.2-0.4-0.3-0.6-0.5c-1.4,0-2.8,0-4.3,0c-0.2-0.2-0.4-0.3-0.5-0.5c-33.1,0-66.2,0-99.3,0c-0.2,0.2-0.3,0.3-0.5,0.5
			c-0.8,0-1.6,0-2.2,0c-0.5,0.2-0.8,0.4-1.3,0.7c-0.7,0.7-1.5,1.5-2.4,2.4c-0.1,0.5,0.1,1.1-0.5,1.5c0,10.4,0,20.8,0,31.2
			c0.1,0.1,0.3,0.3,0.5,0.5c0,0.6,0,1.3,0,1.9c0.2,0.2,0.3,0.4,0.5,0.5c0,0.3,0,0.6,0,0.9c0.2,0.2,0.4,0.4,0.5,0.6
			c0.4,1.4,0.9,2.6,1.6,3.4c0.4,0.4,0.3,1,0.8,1.4c0.6,0.3,0.5,1.1,1,1.5c0.4,0.3,0.8,0.6,0.9,1.3c0.1,0.5,0.7,0.8,1.1,1.2
			c4.6,4.6,9.2,9.2,13.7,13.7c0,0.2,0,0.4,0,0.5c4.5,4.5,8.9,8.9,13.4,13.4c0,0.2,0,0.3,0,0.5c0.4,0.4,1.1,0.8,1.3,1.3
			c0.2,0.6,0.7,1,1.1,1.5c-0.2,0.6,0.7,0.8,0.5,1.5c0.6,0.3,0.6,1,0.9,1.5c0.3,0.5,0.5,1.1,0.8,1.6c0.3,0.5-0.1,1.3,0.6,1.7
			c0.1,0.1,0,0.6,0,0.9c0.2,0.2,0.3,0.4,0.5,0.5c0,0.5,0,1,0,1.4c0.1,0.1,0.2,0.2,0.4,0.4c0,0.8,0,1.6,0,2.4
			c0.2,0.2,0.3,0.3,0.5,0.5c0,0.6,0,1.3,0,2c0,0.6,0,1.3,0,1.8c0.2,0.2,0.3,0.3,0.4,0.4c0,21.7,0,43.4,0,65.3
			c-0.1,0.1-0.2,0.3-0.4,0.5c0,0.4,0,0.9,0,1.2c-0.8,0.8-1.5,1.5-2.4,2.4c0,0-0.1,0-0.3,0c-0.2,0.2-0.4,0.3-0.5,0.5
			c-0.5,0-1,0-1.4,0c-0.2,0.2-0.4,0.3-0.5,0.5c-17.2,0-34.3,0-51.4,0c-0.1-0.1-0.2-0.2-0.4-0.4c-0.4,0-0.9,0-1.2,0
			c-0.9-0.4-1.6-0.8-2.4-1.2c0-0.1-0.1-0.4-0.1-0.6c-0.3-0.3-0.6-0.6-0.9-0.9c-0.1-0.5,0.1-1.1-0.5-1.4c0-57,0-114,0-171
			c0.2-0.2,0.3-0.3,0.4-0.4c0-0.5,0-0.9,0-1.4c0.2-0.2,0.3-0.4,0.5-0.5C843.6,162.6,843.6,162.2,843.6,161.9z"/>
		<path fill="#F4D574" d="M477.4,209.4c0.1,0.1,0.2,0.2,0.4,0.4c0,0.6,0,1.3,0,1.9c0.2,0.2,0.4,0.3,0.4,0.4c0,1.1,0.7,2,1.1,2.9
			c0.4,0.8,0.7,1.7,1.3,2.3c0.6,0.7,0.8,1.7,1.7,2.2c0.5,0.3,0.4,1.1,1,1.5c0.6,0.4,1,1,1.5,1.5c0.5,0.5,0.9,0.9,1.4,1.3
			c1.1,0.9,1.6,2.3,2.7,3.2c1,0.9,1.9,1.9,2.9,2.9c1,1,2,2,3.1,3.1c1,1,1.9,1.9,2.9,2.9c1,1,2,2.1,3.1,3c0.7,0.6,0.9,1.6,1.7,2.2
			c0.7,0.5,1.3,1.2,1.9,1.8c0.7,0.7,1.4,1.4,2,2c0.6,0.6,1.2,1.2,1.9,1.9c0.7,0.7,1.3,1.4,2.1,2c0.5,0.4,0.6,1.1,1,1.5
			c0.4,0.5,1,0.7,1.1,1.5c0.1,0.6,1,0.7,0.9,1.5c1.1,1,1.5,2.4,2.2,3.7c0.1,0.1,0.2,0.3,0.2,0.4c-0.4,0.7,0.6,1.1,0.5,1.7
			c0,0.2,0,0.3,0,0.5c0.2,0.2,0.3,0.3,0.5,0.5c0,0.3,0,0.6,0,1c0.1,0.1,0.2,0.2,0.4,0.4c0,0.5,0,1,0,1.4c0.2,0.2,0.3,0.3,0.5,0.5
			c0,0.8,0,1.6,0,2.4c0.2,0.2,0.3,0.3,0.5,0.5c0,1.6,0,3.2,0,4.8c0.2,0.2,0.3,0.3,0.4,0.4c0,21.2,0,42.3,0,63.5
			c-0.2,0.2-0.3,0.3-0.4,0.4c0,0.5,0,0.9,0,1.4c-0.2,0.3-0.7,0.5-0.5,1c-0.6,0.6-1.1,1.1-1.7,1.7c-0.5-0.2-0.7,0.3-1,0.5
			c-0.4,0-0.9,0-1.3,0c-0.2,0.2-0.4,0.3-0.5,0.5c-17.1,0-34.1,0-51.2,0c-0.1-0.1-0.3-0.2-0.6-0.4c-0.5,0-1.2,0-1.9,0
			c-0.4-0.6-1.2-0.9-1.8-1.3c-0.4-0.3-0.6-0.8-0.8-1.3c-0.1-0.3,0-0.6-0.1-1c-0.1-0.2-0.3-0.3-0.5-0.5c0-51.7,0-103.3,0-155
			c-0.1-0.1-0.2-0.2-0.3-0.4c-0.3-0.5-0.1-1-0.1-1.3c-0.4-0.9-0.8-1.5-1.2-2.4c-0.5-0.5-1.2-1.2-1.8-1.8c-1.1-0.6-2.1-1-3.3-1.6
			c-0.6,0-1.4,0-2.1,0c-0.1-0.1-0.2-0.2-0.4-0.4c-6.6,0-13.3,0-20,0c-0.6-0.4-1.3-0.6-1.8-1.1c-0.5-0.5-1-1-1.5-1.6
			c0-0.3,0-0.6,0-0.9c-0.2-0.2-0.3-0.4-0.5-0.5c0-3.5,0-7,0-10.5c0.2-0.2,0.3-0.3,0.5-0.5c0-0.3,0-0.6,0-0.9
			c0.7-0.7,1.4-1.4,2.1-2.1c0.3,0,0.7-0.1,1.1-0.1c0.1-0.1,0.2-0.2,0.4-0.4c6.8,0,13.7,0,20.6,0c0.2-0.2,0.4-0.3,0.6-0.5
			c0.4,0,0.9,0,1.4,0c0.2-0.2,0.4-0.3,0.6-0.5c0.3,0,0.6,0,0.8,0c0.4-0.2,0.7-0.4,1.4-0.8c0.5-0.5,1.4-1.4,2.1-2.1
			c0.4-0.9,0.8-1.5,1.2-2.3c0-0.3,0-0.8,0-1.2c0.2-0.2,0.3-0.4,0.5-0.5c0-14.4,0-28.8,0-43.2c0.2-0.2,0.3-0.3,0.5-0.5
			c0-0.3,0-0.6,0-0.9c0.7-0.7,1.4-1.4,2.1-2.1c0.3,0,0.7-0.1,1.1-0.1c0.1-0.1,0.2-0.2,0.4-0.4c4.3,0,8.6,0,12.9,0
			c0.6,0.5,1.4,0.7,2.1,1.1c0.7,0.4,1.2,1.2,1.5,2.5c0-0.2,0,0.1,0,0.4c0.2,0.2,0.3,0.4,0.5,0.5c0,14.4,0,28.8,0,43.2
			c0.8,0.3,0.3,1.2,0.7,1.7c0.4,0.5,0.6,1,0.9,1.6c0.8,0.8,1.6,1.6,2.7,2.7c0.4,0.2,1,0.5,2,1c0.3,0,1,0,1.6,0
			c0.2,0.2,0.3,0.3,0.5,0.5c21.6,0,43.1,0,64.7,0c0.2,0.2,0.4,0.3,0.6,0.5c0.3,0,0.6,0,0.8,0c0.8,0.8,1.5,1.5,2.3,2.3
			c0,0,0,0.2,0,0.3c0.2,0.2,0.3,0.4,0.5,0.5c0,3.9,0,7.7,0,11.5c-0.2,0.2-0.4,0.4-0.5,0.6c-0.3,0.6-0.3,1.4-0.9,1.8
			c-0.5,0.4-1.2,0.7-1.8,0.9c-0.1,0-0.2,0.2-0.4,0.4c-21.4,0-42.9,0-64.3,0c-0.2,0.2-0.3,0.3-0.4,0.4c-0.8,0-1.6,0-2.4,0
			c-0.2,0.2-0.4,0.3-0.6,0.5c-0.3,0-0.6,0-0.8,0c-0.4,0.2-0.7,0.4-1.4,0.8c-0.7,0.7-1.8,1.8-2.7,2.7c-0.2,0.4-0.4,0.8-0.6,1.3
			c0,0.3,0,0.7,0,1.2c-0.2,0.2-0.3,0.4-0.5,0.5C477.4,190.2,477.4,199.8,477.4,209.4z"/>
		<path fill="#F4D574" d="M668,336.5c-0.4,0.9-0.8,1.6-1.2,2.3c-0.4,0.7-1.2,0.9-2,1.4c-18.3,0-36.9,0-55.5,0
			c-0.4-0.3-1-0.5-1.4-0.9c-0.4-0.3-0.8-0.8-1.2-1.2c-0.1-0.5,0.1-1.1-0.5-1.5c0-51.7,0-103.3,0-155c-0.2-0.2-0.3-0.3-0.5-0.5
			c0-0.5,0-0.9,0-1.4c-0.2-0.2-0.3-0.4-0.5-0.5c0-0.3,0-0.6,0-0.9c-0.3-0.4-0.8-0.7-0.9-1.1c-0.1-0.4-0.4-0.7-0.6-0.9
			c-0.3-0.4-0.7-0.7-0.9-0.9c-1.2-0.6-2.2-1.1-3.3-1.7c-0.5,0-1.1,0-1.7,0c-0.1-0.1-0.2-0.2-0.3-0.3c-0.1,0-0.3-0.1-0.4-0.1
			c-6.7,0-13.4,0-20.2,0c-0.1-0.1-0.3-0.1-0.4-0.2c-0.6-0.5-1.6-0.5-2.1-1.2c-0.5-0.7-0.8-1.4-1.2-2.4c0-3.6,0-7.4,0-11.3
			c0.4-0.6,0.7-1.2,1-1.9c0.2-0.7,1.2-0.6,1.6-1.2c0.3,0,0.6,0,0.9,0c0.2-0.2,0.4-0.3,0.5-0.5c6.9,0,13.8,0,20.6,0
			c0.1-0.1,0.2-0.2,0.4-0.4c0.4,0,1-0.1,1.5-0.1c0.3-0.5,0.8-0.4,1.4-0.4c0.2-0.2,0.4-0.5,0.8-0.7c0.2-0.2,0.6-0.2,0.8-0.4
			c0.3-0.2,0.6-0.6,0.9-0.8c0.2-0.2,0.5-0.5,0.5-0.5c0.5-1.1,1-2.1,1.6-3.3c0-0.3,0-1,0-1.6c0.2-0.2,0.3-0.3,0.5-0.5
			c0-14.2,0-28.4,0-42.6c0.4-0.6,0.8-1.1,0.9-1.6c0.1-0.5,0.4-1,0.7-1.1c0.6-0.2,1.1-0.9,1.9-0.6c0.2-0.2,0.3-0.3,0.5-0.5
			c4.1,0,8.3,0,12.5,0c0.2,0.2,0.3,0.3,0.5,0.5c0.3,0,0.6,0,0.9,0c0.3,0.3,0.6,0.6,0.9,0.9c0.2,0.1,0.4,0.1,0.6,0.2
			c0.3,0.7,0.6,1.3,1.1,2.3c0,13.9,0,28.2,0,42.4c0.2,0.2,0.3,0.3,0.5,0.5c0,0.6,0,1.2,0,1.6c0.6,1.2,1.1,2.2,1.7,3.3
			c0.4,0.4,0.9,1,1.5,1.5c0.2,0,0.3,0,0.5,0c0.3,0.3,0.6,0.6,0.9,0.9c0.3,0,0.7,0.1,1.1,0.1c0.1,0.1,0.2,0.2,0.4,0.4
			c0.4,0,0.9,0,1.4,0c0.2,0.2,0.4,0.3,0.6,0.5c21.7,0,43.5,0,65.2,0c1,0.9,2.6,1,3.2,2.4c0.3,0.8,0.4,0.8,0.5,1.7
			c0.2,0.2,0.3,0.4,0.5,0.5c0,3.3,0,6.6,0,9.8c-0.4,0.7-0.7,1.3-1.2,2.3c-0.3,0.3-0.9,0.8-1.6,1.4c-0.1,0-0.4,0-0.8,0
			c-0.2,0.2-0.4,0.3-0.5,0.5c-21.6,0-43.2,0-64.8,0c-0.1,0.1-0.2,0.2-0.5,0.5c-0.5,0.1-1.2,0-1.8,0c-1.1,0.6-2,1-3.2,1.7
			c-0.3,0.3-0.8,0.9-1.3,1.5c0,0-0.1-0.1-0.1-0.1c-0.4,0.9-0.9,1.9-1.5,3.1c0,0.4,0,1.1,0,1.7c-0.2,0.2-0.3,0.3-0.5,0.5
			c0,8.5,0,17,0,25.5c0.1,0.1,0.2,0.2,0.4,0.4c0,0.8,0,1.6,0,2.4c0.2,0.2,0.3,0.3,0.4,0.4c0,0.4,0,0.9,0,1.4
			c0.2,0.2,0.3,0.4,0.5,0.6c0,0.2-0.1,0.5,0,0.7c0.5,1,0.8,2.1,1.5,3c0.6,0.9,1,1.9,1.9,2.6c0,0.2,0,0.3,0,0.5
			c0.8,0.8,1.6,1.6,2.4,2.4c0,0.2,0,0.3,0,0.5c4.1,4.1,8.3,8.3,12.4,12.4c0.1,0.3,0.1,0.5,0.2,0.7c4.3,4.3,8.6,8.6,12.9,12.9
			c0,0.2,0,0.3,0,0.5c0.4,0.4,0.9,0.9,1.4,1.4c0.4,0.4,1,0.7,1,1.2c0.1,0.7,0.9,0.8,1,1.5c0.1,0.5,0.6,0.8,0.9,1.3
			c0.3,0.5,0.5,1.1,0.8,1.6c0.2,0.5,0.4,0.9,0.7,1.4c0.3,0.5,0.6,1,0.5,1.7c0.6,0.3,0.2,1.1,0.5,1.4c0.6,0.6,0.2,1.2,0.5,2
			c0,0,0.1,0.2,0.3,0.4c0,0.4,0,0.9,0,1.4c0.2,0.2,0.3,0.4,0.5,0.6c0,1.1,0,2.2,0,3.3c0.2,0.2,0.3,0.4,0.5,0.5
			C668,291.2,668,313.9,668,336.5z"/>
		<path fill="#F4D574" d="M798,336.6c-0.8,1.1-1,2.5-2.2,3.1c-0.3,0.1-0.5,0.3-1,0.5c-18.3,0-36.8,0-55.5,0
			c-1.3-0.6-2.5-1.5-3.1-3.3c0-59.3,0-119,0-178.7c0.7-0.7,0.7-1.9,1.6-2.6c0.7,0,1.1-0.9,1.9-0.5c0.2-0.2,0.3-0.3,0.5-0.5
			c4.1,0,8.3,0,12.5,0c0.2,0.2,0.3,0.3,0.5,0.5c0.3,0,0.6,0,0.9,0c0.3,0.3,0.6,0.6,0.9,0.9c0.2,0.1,0.4,0.1,0.6,0.2
			c0.3,0.7,0.6,1.3,1.1,2.3c0,16.3,0,33,0,49.6c0.2,0.2,0.3,0.3,0.5,0.5c0,0.8,0,1.6,0,2.4c0.2,0.2,0.3,0.3,0.5,0.5
			c0,0.4,0,0.9,0,1.4c0.2,0.2,0.3,0.4,0.5,0.6c0,0.2,0,0.4,0,0.7c0,0.1,0.1,0.3,0.1,0.4c0.5,0.9,1,1.8,1.4,2.8
			c0.8,0.6,1,1.7,1.9,2.3c0,0.2,0,0.3,0,0.5c1,0.9,1.9,1.9,2.9,2.9c0,0.2,0,0.3,0,0.5c8.3,8.3,16.6,16.6,24.9,24.9
			c0,0.2,0,0.3,0,0.5c0.3,0.3,0.7,0.6,1,1c0.4,0.4,0.8,0.8,1.2,1.2c0.3,0.4,0.3,1,0.9,1.3c0.5,0.3,0.2,0.9,0.7,1.2
			c0.5,0.3,0.5,0.9,0.8,1.3c0.3,0.4,0.6,0.9,0.7,1.4c0.1,0.5,0.7,0.7,0.5,1.2c0.6,0.3,0.3,1.1,0.6,1.4c0.3,0.4,0.4,0.8,0.4,1.3
			c0,0.3,0.4,0.7,0.4,1c0.1,0.4,0,0.8,0,1.1c0.2,0.2,0.3,0.3,0.5,0.5c0,0.4,0,0.9,0,1.4c0.2,0.2,0.3,0.4,0.5,0.6c0,1.1,0,2.2,0,3.3
			c0.2,0.2,0.3,0.4,0.5,0.5C798,291.2,798,313.9,798,336.6z"/>
		<path fill="#F4D574" d="M736.6,126.2c0-0.1,0-0.4,0-0.7c-0.2-0.2-0.3-0.4-0.5-0.5c0-17.2,0-34.5,0-51.8c0.1-0.1,0.3-0.3,0.5-0.5
			c0-0.3,0-0.6,0-0.9c0.7-0.7,1.5-1.5,2-2c0.5-0.2,0.8-0.4,1-0.5c0.4-0.3,0.9-0.2,1.4-0.2c0.4,0,0.8,0,1.1,0
			c0.2-0.2,0.3-0.3,0.4-0.4c7,0,14.1,0,21.2,0c0.1,0.1,0.2,0.2,0.4,0.4c1.1,0,2.2,0,3.1,0c0.6,0.1,0.7,0.7,1.3,0.5
			c0.5,0.6,1,1.2,1.7,1.9c0-0.1-0.1,0.1,0,0.2c0.5,0.4,0.4,1.2,1,1.5c0,17.3,0,34.5,0,51.8c-0.2,0.2-0.3,0.3-0.5,0.5
			c0,0.3,0,0.6,0,0.9c-0.5,0.5-1,1-1.5,1.5c-0.3,0.1-0.6,0.2-0.8,0.4c-0.3,0.2-0.5,0.3-0.9,0.3c-0.3,0-0.6,0.2-1.3,0.4
			c-8.2,0-16.8,0-25.6,0c-0.3-0.1-0.5-0.5-1.1-0.5c-0.4,0-0.8-0.3-1.4-0.5C737.8,127.5,737.3,126.9,736.6,126.2z"/>
	</g>
</g>
</svg>
