<?xml version="1.0" encoding="utf-8"?>
<!-- Generator: Adobe Illustrator 28.0.0, SVG Export Plug-In . SVG Version: 6.00 Build 0)  -->
<svg version="1.0" id="Layer_1" xmlns="http://www.w3.org/2000/svg" xmlns:xlink="http://www.w3.org/1999/xlink" x="0px" y="0px"
	 width="666px" height="92.9px" viewBox="0 0 666 92.9" enable-background="new 0 0 666 92.9" xml:space="preserve">
<g>
	<g>
		<path fill="#FDFBF5" d="M6,0.5c0-0.1,0-0.2,0-0.2c24.5,0,48.9,0,73.4,0c0,0.1,0,0.2,0,0.2C54.9,0.5,30.5,0.5,6,0.5z"/>
		<path fill="#F3D474" d="M6,0.5c24.5,0,48.9,0,73.4,0c1.3-0.1,2.6,0.4,4,0.2c1,0.4,2.2,0.5,3.2,0.9c1.3,0.5,2.5,1.2,3.6,2.1
			c0.9,0.7,1.6,1.8,2.2,2.8c0.8,1.3,1.3,2.7,1.5,4.2c0.1,0.6,0.1,1.3,0.2,1.9c0.5,2.6,0.2,5.3,0.2,7.9c0,22.7,0,45.4,0,68.1
			c0,1,0.2,2.1-0.3,3.3c-0.4,0.5-1.1,0.7-1.8,0.7c-1.4,0-2.8,0-4.2,0c-0.4-0.3-0.8-0.6-1.2-0.9c-0.5-2.4-0.3-4.7-0.3-7
			c0-23.3,0-46.6,0-69.9c0-1.5-0.5-2.9-1.3-4.1c-0.8-1.2-2.1-2.2-3.6-2.5c-1-0.2-1.9-0.5-2.9-0.5c-7,0-14.1,0-21.1,0
			c-0.9,0-1.7,0.3-2.4,0.8c-0.1,0.1-0.2,0.3-0.3,0.5c-0.5,0.8-0.7,1.7-0.7,2.7c0,25.7,0,51.5,0,77.2c0,1,0.1,2-0.4,3.2
			c-0.4,0.5-1,0.7-1.8,0.7c-1,0-2,0-3,0c-1,0.1-1.9-0.2-2.4-1c-0.5-2.1-0.3-4.2-0.3-6.3c0-25.1,0-50.2,0-75.3
			c-0.1-0.3-0.3-0.5-0.4-0.8c-0.4-1-1.3-1.3-2.3-1.6c-1.6-0.4-3.3-0.2-4.9-0.2c-7.4,0-14.8,0-22.2,0c-2,0-4-0.2-6.1,0.3
			C9,8.2,8.6,9.2,8.6,10.4c0,5.6,0,11.2,0,16.8c0,1.6,0.6,3,1.4,4.3c0.6,1,1.4,1.9,2.2,2.7c2.6,2.6,5.3,5.2,7.9,7.9
			c1.1,1.1,2,2.3,2.6,3.8c0.5,1.3,0.8,2.5,1,3.9c0.4,3.4,0.1,6.7,0.2,10.1c0.1,3.4,0,6.8,0,10.2c0,3.4,0,6.7,0,10.1
			c0,3.4,0,6.8,0,10.2c0,0.4,0.2,0.8-0.2,1.1c0.1,1.1-0.9,1-1.6,1.3c-0.2,0.1-0.6,0-0.8,0c-6.3,0-12.6,0-19.1,0
			C1.9,92.3,1.4,92,1,91.7c-0.5-3-0.3-5.9-0.3-8.8c0-25.4,0-50.7,0-76.1c0-0.6,0-1.1,0.2-1.7C1.1,4.6,0.7,4,1.2,3.5
			c0.1-1.3,1.1-1.9,2-2.5c0.1-0.1,0.3-0.1,0.6-0.3C4.5,0.9,5.2,0.3,6,0.5z"/>
		<path fill="#F3D474" d="M166.3,50.1c0-4.3,0.1-8.6,0-12.9c0-2.6-1.3-4.7-3.5-6c-0.6-0.4-1.4-0.5-2.1-0.7c-0.4-0.1-0.7-0.2-1.1-0.2
			c-0.4,0-0.8,0.1-1.2,0c-2.5-0.5-5.1-0.2-7.6-0.2c-2.6-0.1-5.2,0-7.8,0c-2.6,0-5.1,0-7.7,0c-2.6,0-5.1-0.1-7.7,0
			c-1.5,0.1-3.1,0.1-4.6,0.7c-2.1,0.7-3.6,2.1-4.4,4.2c-0.1,0.3,0.1,0.8-0.3,1.1c0,0.9-0.3,1.7-0.3,2.5c0.1,2.4,0,4.7,0,7.1
			c0,0.9-0.4,1.5-1.3,1.8c-0.5,0.2-1,0.4-1.5,0.3c-0.6-0.1-1.3-0.1-1.9,0c-0.9,0.1-1.7-0.2-2.5-0.6c-0.4-0.7-0.7-1.5-0.7-2.4
			c0-2.2,0.1-4.4,0-6.6c0-1.3,0.2-2.5,0.3-3.7c0.1-1.1,0.3-2.3,0.7-3.3c0.6-1.3,1.2-2.7,2.2-3.8c1.2-1.3,2.2-2.2,3.9-2.9
			c1-0.4,2-0.8,3.1-1c1-0.2,2-0.3,3.1-0.4c1-0.1,2.1,0,3.1,0c11.2,0,22.4,0,33.6,0c2,0,4,0.2,5.8,1c1.3,0.5,2.7,1.1,3.8,2.1
			c1.4,1.1,2.3,2.6,3.1,4.1c0.4,0.8,0.6,1.7,0.9,2.6c0.4,1.5,0.5,3,0.5,4.6c0,15.4,0,30.7,0,46.1c0,1.8-0.3,3.5-1.2,5.1
			c-0.6,1.1-1.4,1.9-2.4,2.6c-1,0.7-2.2,1-3.4,1.3c-1.3,0.2-2.6,0.2-3.9,0.2c-13.2,0-26.3,0-39.5,0c-0.6,0-1.3,0-2-0.2
			c-0.6-0.1-1.2-0.2-1.8-0.3c-0.6-0.1-1.2-0.4-1.8-0.6c-2.2-0.7-3.9-2-5.3-3.7c-0.5-0.6-0.8-1.2-1.1-1.9c-0.3-0.6-0.9-1.2-0.7-2
			c-0.5-1.1-0.5-2.3-0.8-3.5c-0.2-0.8-0.2-1.6-0.2-2.4c0-3.8,0-7.6,0-11.4c0-0.5-0.2-1,0.2-1.5c0.3-0.4-0.2-1,0.3-1.4
			c-0.1-1.1,0.4-2.1,0.7-3.1c0.5-1.4,1.1-2.6,2.2-3.7c1.1-1.1,2.2-2,3.6-2.6c1.1-0.5,2.2-0.8,3.3-1.1c1.6-0.4,3.2-0.5,4.8-0.5
			c12.3,0,24.5,0,36.8,0c0.6,0,1.3,0,1.9-0.3c0.8-0.3,1.4-0.9,1.8-1.7C165.9,50.7,166.1,50.4,166.3,50.1z M149.3,59.8
			c-0.1,0-0.3,0.1-0.4,0c-0.7-0.4-1.5-0.5-2.3-0.5c-6.6,0-13.3,0-19.9,0c-0.6,0-1.3-0.2-1.9,0.2c-1.1,0-2.1,0.5-3.1,0.9
			c-0.9,0.4-1.6,1.1-2.2,1.9c-1,1.4-1.4,3-1.4,4.7c-0.1,3.5,0,7.1,0,10.6c0,1,0.2,1.9,0.5,2.8c0.7,2.2,2.2,3.7,4.4,4.5
			c1.5,0.5,3.1,0.7,4.6,0.7c6.2,0.1,12.5,0,18.7,0c0.7,0,1.5,0,2.2-0.3c0.7-0.2,1.5-0.4,1.9-1.2c0.4-0.8,0.9-1.6,0.9-2.5
			c0-6.2,0-12.4,0-18.7c0-1-0.3-1.8-1-2.5C149.9,60.4,149.6,60.1,149.3,59.8z"/>
		<path fill="#F3D474" d="M514.1,54.8c0.3,0.4,0.7,0.8,1,1.3c0,5.3,0,10.6,0,15.9c0,1.6,0,3.1,0,4.7c0,0.7,0,1.5,0.3,2.2
			c0.6,1.2,0.9,2.4,1.7,3.5c0.7,1,1.7,1.4,2.5,2.2c1,0.2,1.9,0.6,2.9,0.8c2.2,0.4,4.4,0.2,6.6,0.2c6.4,0,12.7,0,19.1,0
			c1,0,2-0.1,3-0.6c0.9-0.5,1.3-1.2,1.6-2.1c0.2-0.7,0.3-1.4,0.3-2.2c0-6.4,0-12.8,0-19.3c0-0.5,0-1,0-1.6c0-0.5,0-0.9,0.2-1.4
			c0.2-0.4,0.1-1,0.2-1.5c0.2-0.9,0.4-1.8,0.7-2.7c0.5-1.5,1.3-2.9,2.1-4.3c0.7-1,1.5-2,2.1-3.1c0.6-1,1.4-2,2.1-3
			c1.5-2.1,2.9-4.2,4.3-6.2c0.9-1.3,1.8-2.6,2.5-4c0.6-1.3,1.1-2.7,1.3-4.1c0.1-0.8,0.1-1.5,0.2-2.3c0.5-4.2,0.2-8.4,0.2-12.6
			c0.1-4.2,0-8.5,0-12.6c0.2-0.4,0.4-0.8,0.5-1c0.8-0.8,1.8-0.7,2.8-0.7c1.1,0,2.2,0,3.3,0c0.4,0.3,0.9,0.7,1.2,0.9
			c0.5,1.1,0.4,2.1,0.4,3c0,22.7,0,45.4,0,68.1c0,0.9,0.1,1.8-0.1,2.6c-0.2,0.8-0.1,1.6-0.1,2.5c0,0.9,0.1,1.8,0,2.6
			c-0.3,1.7-0.6,3.3-1.3,4.8c-0.9,1.8-1.6,3-2.8,4.2c-1.3,1.2-2.8,2.1-4.5,2.7c-1.2,0.4-2.4,0.6-3.6,0.8c-1.3,0.2-2.6,0.2-3.9,0.2
			c-13.3,0-26.5,0-39.8,0c-2.5,0-5-0.6-7.2-1.9c-1.7-0.9-3.1-2.2-4.1-3.8c-0.9-1.4-1.4-2.9-1.9-4.5c-0.1-0.4-0.2-0.7-0.2-1.1
			c0-0.3-0.2-0.7-0.2-1c0-1-0.3-2-0.3-3c0-6.8,0-13.6,0-20.3c0-0.4,0-0.8,0.2-1.2c0.4-0.9,0.7-1.3,1.6-1.3
			C510.5,54.8,512.2,54.8,514.1,54.8z"/>
		<path fill="#F3D474" d="M407.7,92c-0.3,0.2-0.7,0.4-1.2,0.6c0,0-0.1,0-0.2,0c-6.4,0-12.7,0-19.1,0c-0.7,0-1.2-0.3-1.8-0.6
			c-0.4-0.2-0.3-0.8-0.5-1.2c-0.1-0.2,0-0.5,0-0.7c0-20.9,0-41.8,0-62.7c0-1.2,0.5-2.2,1.2-3.1c0.5-0.7,1.3-0.8,2-1.1
			c0.3-0.1,0.7-0.2,1.1-0.2c0.4,0,0.8,0,1.2,0c14.7,0,29.4,0,44.1,0c1.1,0,2.2,0.3,3.4,0.3c0.7,0,1.5,0.3,2.2,0.4
			c0.7,0.2,1.4,0.5,2.1,0.8c1.4,0.8,2.8,1.6,3.8,3c0.8,1.2,1.6,2.4,2.1,3.8c0.2,0.4-0.1,0.9,0.4,1.2c0.1,0.8,0.1,1.5,0.2,2.3
			c0.5,2.7,0.2,5.4,0.2,8.2c0.1,2.8,0,5.5,0,8.3c0,13,0,25.9,0,38.9c0,0.4,0.2,0.9-0.2,1.2c0,1.1-0.9,1.3-1.6,1.3
			c-1.4,0.1-2.9,0.1-4.3,0c-0.3,0-0.6-0.2-0.9-0.4c-0.3-0.2-0.5-0.4-0.7-0.7c-0.5-4.5-0.2-9-0.2-13.5c-0.1-4.6,0-9.2,0-13.8
			c0-4.5,0-9.1,0-13.6s0.1-9.1,0-13.6c-0.1-2.2-0.9-4.2-3-5.4c-1-0.6-2-1-3-1.2c-1.2-0.2-2.3-0.4-3.5-0.4c-1.2-0.1-2.4,0-3.6,0
			c-10.4,0-20.9,0-31.3,0c-0.7,0-1.5,0.1-2.2,0.3c-0.6,0.1-1.1,0.6-1.3,1.1c-0.3,0.5-0.5,1-0.5,1.7c0.1,3.1,0,6.2,0,9.3
			c0.1,1.9,0.8,4,2.4,5.7c3.1,3.5,6.6,6.6,9.8,10c1.5,1.6,2.6,3.5,3,5.7c0.4,0.5,0.2,1.1,0.2,1.6c0.5,2.6,0.2,5.3,0.2,7.9
			c0,2.7,0,5.3,0,8c0,2.7,0,5.3,0,8C408.1,90.1,408.2,91,407.7,92z"/>
		<path fill="#F3D474" d="M214.5,92c-0.3,0.2-0.7,0.4-1.2,0.6c-4.3,0-8.8,0-13.3,0c-1.5,0-3,0-4.6,0c-1,0-2,0.1-3.1-0.4
			c-0.4-0.3-0.6-1-0.7-1.8c0-0.2,0-0.4,0-0.6c0-20.7,0-41.5,0-62.2c0-1.3,0.4-2.3,1.1-3.3c0.5-0.7,1.4-0.9,2.1-1.2
			c0.3-0.1,0.6-0.2,1-0.2c0.4,0,0.9,0,1.3,0c13.3,0,26.5,0,39.8,0c1.1,0,2.2,0.3,3.4,0.3c0.7,0,1.5,0.3,2.2,0.4
			c0.7,0.2,1.4,0.5,2.1,0.8c0.7,0.3,1.4,0.8,2.1,1.3c1.7,1.1,2.6,2.8,3.5,4.6c0.3,0.7,0.5,1.5,0.7,2.2c0.1,0.6,0.1,1.2,0.3,1.8
			c0.5,2.1,0.2,4.2,0.2,6.4c0.1,2.2,0,4.3,0,6.5c0,0.9-0.3,1.7-1.5,2.1c-1.2,0-2.6,0-4,0c-0.8,0-1.4-0.3-1.9-0.8
			c-0.1-0.1-0.2-0.2-0.2-0.2c-0.5-1.2-0.3-2.3-0.3-3.4c0-2.6,0.1-5.2,0-7.8c-0.1-2.6-1.2-4.7-3.6-6c-0.6-0.3-1.4-0.5-2.1-0.7
			c-0.8-0.3-1.5-0.1-2.3-0.3c-2.7-0.5-5.4-0.2-8.1-0.2c-2.7-0.1-5.4,0-8.2,0s-5.4,0-8.2,0s-5.4,0-8.2,0c-0.6,0-1.3,0-1.8,0.3
			c-0.6,0.2-1.1,0.6-1.4,1.2c-0.3,0.5-0.5,1.1-0.5,1.7c0,2.7,0.1,5.4,0,8.1c0,1,0.1,2,0.3,3c0.2,0.9,0.5,1.8,1.1,2.5
			c0.7,0.9,1.5,1.9,2.3,2.8c2.7,2.8,5.5,5.5,8.2,8.2c1,1,1.8,2.1,2.4,3.3c0.6,1.3,0.9,2.7,1.1,4.2c0.3,2.6,0.1,5.3,0.2,7.9
			c0,2.7,0,5.3,0,8c0,2.7,0,5.3,0,8C215,90.1,215.1,91,214.5,92z"/>
		<path fill="#F3D474" d="M648.1,49.6c-0.4-0.3-0.8-0.7-1.1-0.9c-0.5-1.2-0.4-2.2-0.4-3.3c0-2.6,0-5.1,0-7.7c0-1.6-0.4-3-1.2-4.3
			c-0.8-1.3-2.1-2.2-3.7-2.6c-1-0.3-2-0.4-3-0.5c-2.9-0.4-5.9-0.1-8.8-0.2c-2.9-0.1-5.8,0-8.8,0c-3,0-5.9,0-8.9,0
			c-2.7,0-5.4-0.2-7.6,0.2c-1.4,0.4-1.7,1.3-2.2,2.2c0,3.2,0,6.5,0,9.8c0,0.8,0.2,1.5,0.3,2.3c0.1,0.2,0.4,0.5,0.4,0.7
			c0.1,0.9,0.7,1.5,1.1,2.2c0.5,0.7,1.1,1.4,1.8,2c2.8,2.8,5.6,5.6,8.4,8.4c0.9,0.9,1.7,2,2.3,3.2c0.6,1.4,1,2.8,1.2,4.3
			c0.3,2.7,0.1,5.4,0.2,8c0.1,2.7,0,5.3,0,8c0,2.7,0,5.4,0,8.1c0,0.8,0.1,1.6-0.4,2.5c-0.6,0.4-1.3,0.7-2.1,0.7
			c-6.1,0-12.2,0-18.3,0c-0.8,0-1.6-0.1-2-0.7c-0.5-1.1-0.4-2.1-0.4-3.1c0-20.4,0-40.8,0-61.3c0-0.4,0-0.8,0-1.2
			c0.5-0.4,0.3-1.2,0.9-1.6c0.4-1.1,1.5-1.3,2.3-1.6c0.6-0.3,1.4-0.3,2.2-0.3c13.4,0,26.7,0,40.1,0c1,0,1.9,0.3,2.9,0.3
			c0.9,0,1.8,0.2,2.7,0.5c1.5,0.5,2.9,1.2,4.2,2.1c1.9,1.4,3,3.4,3.8,5.5c0.2,0.5,0.3,1.1,0.4,1.6c0.1,0.4,0.2,0.7,0.2,1.1
			c0.1,0.3-0.1,0.7,0.2,1c0.1,0.1,0,0.4,0,0.6c0,3.8,0,7.7,0,11.5c0,0.9-0.2,1.7-1.2,2c-0.2,0.1-0.5,0.1-0.8,0.1
			C651.1,49.6,649.7,49.6,648.1,49.6z"/>
		<path fill="#F3D474" d="M264.9,24c0.4-0.3,0.8-0.7,1.2-1c1.5,0,2.9,0,4.4,0c0.4,0,0.9,0.1,1.3,0.3c0.3,0.1,0.4,0.6,0.6,0.8
			c0.3,0.3,0.1,0.6,0.1,0.9c0,3.4,0,6.8,0,10.2c0,1.5,0.3,3,1.2,4.3c0.3,0.4,0.6,0.9,0.9,1.3c0.9,1,1.8,1.9,2.6,2.9
			c0.4,0.5,0.8,1,1.2,1.4c0.4,0.4,0.9,0.8,1.1,1.3c0,0.1,0.2,0.2,0.2,0.3c0.9,1,1.9,1.9,2.7,3c0.9,1.1,1.9,2,2.6,3.2
			c0.3,0.7,0.7,1.3,0.9,2c0.3,1.2,0.7,2.5,0.5,3.7c0.5,2.1,0.2,4.2,0.2,6.4c0,2.2,0,4.4,0,6.6c0,2.2,0,4.3,0,6.5
			c0,1,0.2,1.9,0.6,2.8c0.6,1.4,1.7,2.5,3.3,2.9c1,0.3,2.1,0.5,3.2,0.5c2.2-0.1,4.3-0.1,6.5,0c1.1,0,2.1-0.3,3-0.6
			c1-0.4,1.9-1.1,2.6-2.2c1-1.7,1.9-3.5,3-5.2c0.5-0.8,0.8-1.7,1.3-2.5c1-1.6,1.8-3.2,2.8-4.7c0.5-0.8,0.9-1.7,1.4-2.5
			c1-1.7,2-3.4,2.9-5.1c1-1.8,1.9-3.6,2.2-5.7c0.2-1.1,0.5-2.1,0.5-3.2c0-8.7,0-17.3,0-26c0-0.8,0.2-1.7,0.3-2.6
			c0.4-0.3,0.8-0.7,1.2-1c1.5,0,3,0,4.4,0c0.8,0,1.6,0.2,1.9,1.2c0.1,0.3,0.1,0.6,0.1,0.9c0,2.6,0,5.2,0,7.8c0,6.8,0,13.6,0,20.5
			c0,0.7-0.1,1.4-0.2,2.1c-0.1,0.6,0.1,1.3-0.2,2c-0.3,0.6-0.4,1.3-0.5,1.9c-0.2,1.2-0.8,2.3-1.2,3.4c-0.4,1.2-1.1,2.2-1.7,3.2
			c-0.6,1-1.2,2.1-1.8,3.1c-0.7,1.1-1.3,2.3-2,3.4c-1,1.6-1.8,3.2-2.8,4.7c-0.7,1.1-1.3,2.2-1.9,3.3c-0.6,1-1.1,1.9-1.7,2.9
			c-0.7,1.2-1.4,2.3-2,3.5c-0.8,1.6-2,2.8-3.3,4c-0.8,0.7-2.8,1.4-3.9,1.7c-1.4,0.3-2.8,0.2-4.2,0.2c-3.7,0-7.4,0.1-11.2,0
			c-1.5,0-2.9-0.5-4.1-1.3c-0.6-0.4-1.1-0.7-1.7-1.2c-1-0.9-1.7-2.1-2.4-3.3c-0.6-1.1-1.4-2.1-2-3.2c-0.6-1.1-1.2-2.2-1.9-3.3
			c-1-1.6-1.9-3.3-2.9-4.9c-0.7-1-1.2-2.1-1.8-3.1c-1-1.7-1.9-3.4-3-5.1c-0.7-1-1.2-2.1-1.8-3.2c-0.8-1.5-1.4-3.1-1.9-4.7
			c-0.2-0.7-0.3-1.5-0.5-2.2c-0.3-1-0.1-2.1-0.3-3.1c-0.4-1.9-0.2-3.8-0.2-5.8c0-2,0-3.9,0-5.9c0-5.2,0-10.5,0-15.7
			C264.6,25.8,264.8,24.9,264.9,24z"/>
		<path fill="#F3D474" d="M368,91.9c-0.9,0.7-1.7,0.8-2.7,0.8c-6.2,0-12.5,0-18.7,0c-0.4-0.2-0.9-0.5-1.3-0.7
			c-0.3-0.7-0.4-1.4-0.4-2.2c0-18,0-36.1,0-54.1c0-0.9-0.1-1.8,0.4-2.7c0.3-0.2,0.7-0.4,1.2-0.7c1.2,0,2.5,0,3.9,0
			c0.8,0,1.4,0.2,1.9,0.8c0.1,0.1,0.2,0.2,0.3,0.3c0,5.3,0,10.7,0,16c0,0.8,0,1.5,0,2.3c0,0.7,0.2,1.4,0.3,2.2
			c0.1,0.2,0.4,0.5,0.4,0.7c0.1,0.9,0.7,1.5,1.1,2.2c0.5,0.7,1.1,1.4,1.8,2c2.6,2.6,5.2,5.3,7.9,7.9c0.8,0.8,1.5,1.7,2.2,2.7
			c0.5,0.7,1.3,2.6,1.5,3.5c0.1,0.4,0.2,0.7,0.2,1.1c0,0.4-0.1,0.8,0,1.2c0.5,2.5,0.2,5,0.2,7.6c0.1,2.6,0,5.1,0,7.7
			C368.3,90.9,368,91.3,368,91.9z"/>
		<path fill="#F3D474" d="M652.3,68.1c0.3-0.2,0.6-0.4,0.9-0.6c3.7,0,7.5,0,11.2,0c1.1,0.4,1.3,1.3,1.3,2.3c0,7.2,0,14.4,0,21.6
			c-0.4,1.1-1.3,1.4-2.4,1.4c-2.8,0-5.6,0-8.4,0c-0.9,0-1.8,0.1-2.6-0.7c-0.1-0.2-0.3-0.6-0.5-1c0-6.8,0-13.7,0-20.6
			C651.8,69.7,652,68.9,652.3,68.1z"/>
		<path fill="#F3D474" d="M358.2,1.5c0.3,0.9,0.2,1.8,0.2,2.6c0,5.4,0,10.8,0,16.1c0,1.1-0.2,1.9-1.2,2.6c-0.9,0.4-1.9,0.2-2.9,0.2
			c-2.3,0-4.6,0-6.9,0c-1.2,0-2.2-1-2.2-2.2c0-6,0-12,0-17.9c0-0.4,0.2-0.9,0.2-1.3c0.2-0.2,0.3-0.3,0.5-0.5
			c0.4-0.4,0.9-0.6,1.4-0.6c3.1,0,6.2,0,9.4,0C357.3,0.8,357.7,1.1,358.2,1.5z"/>
	</g>
</g>
</svg>
