<?xml version="1.0" encoding="utf-8"?>
<!-- Generator: Adobe Illustrator 24.2.3, SVG Export Plug-In . SVG Version: 6.00 Build 0)  -->
<svg version="1.0" id="Layer_1" xmlns="http://www.w3.org/2000/svg" xmlns:xlink="http://www.w3.org/1999/xlink" x="0px" y="0px"
	 width="1404.4px" height="431.2px" viewBox="0 0 1404.4 431.2" enable-background="new 0 0 1404.4 431.2" xml:space="preserve">
<g>
	<g>
		<path fill="#F4D575" d="M1042.3,309.6c-0.1,0.1-0.2,0.2-0.3,0.3c-0.1,0.1-0.2,0.2-0.2,0.2c0,0.8,0,1.6,0,2.4
			c-0.1,0.1-0.3,0.3-0.4,0.4c0,0.6,0,1.3,0,1.9c-0.2,0.2-0.3,0.3-0.5,0.5c0,0.3,0.1,0.7,0,1.1c-0.1,0.4-0.4,0.7-0.4,1
			c-0.1,0.4,0.1,0.8-0.3,1.1c-0.4,0.3-0.1,0.7-0.2,1.1c-0.1,0.1-0.3,0.3-0.5,0.5c0,0.3,0,0.6,0,1c-0.7,0.6-0.7,1.6-1.3,2.3
			c-0.4,0.4-0.4,1.1-0.7,1.6c-0.4,0.5-0.7,1.1-1,1.5c-0.7,0.8-1,1.8-1.8,2.4c-0.8,0.6-1.4,1.3-2.1,2c-0.7,0.7-1.4,1.5-2.2,2.2
			c-0.4,0.3-1,0.4-1.3,0.9c-0.3,0.5-1.1,0.3-1.3,0.9c-0.2,0.5-0.8,0.4-1.2,0.7c-0.4,0.3-0.9,0.6-1.4,0.7c-0.5,0.1-0.7,0.7-1.2,0.5
			c-0.5,0.5-1.2,0.8-1.8,0.9c-0.7,0.1-1.2,0.8-2,0.6c-0.1,0-0.4,0.3-0.6,0.4c-0.4,0-0.9,0-1.3,0c-0.2,0.2-0.4,0.3-0.6,0.5
			c-0.5,0-0.9,0-1.4,0c-0.1,0.1-0.2,0.2-0.5,0.5c-0.5,0.1-1.2,0-1.9,0c-0.1,0.1-0.2,0.2-0.4,0.4c-1.1,0.2-2.3,0-3.5,0.1
			c-0.1,0.1-0.2,0.2-0.4,0.4c-34.9,0-69.8,0-104.7,0c-0.1-0.1-0.2-0.2-0.4-0.4c-1.1,0-2.3,0-3.4,0c-0.2-0.2-0.3-0.3-0.4-0.4
			c-0.6,0-1.2,0-1.9,0c-0.2-0.2-0.4-0.3-0.6-0.5c-0.5,0-0.9,0-1.4,0c-0.2-0.2-0.4-0.3-0.5-0.5c-0.5,0-0.9,0-1.4,0
			c-0.2-0.2-0.4-0.3-0.5-0.5c-0.3,0-0.5,0.1-0.7,0c-0.9-0.4-1.7-1-2.7-1c-0.8-0.6-1.7-0.9-2.6-1.3c-0.6-0.2-0.7-0.8-1.3-1
			c-0.4-0.1-0.9-0.3-1.2-0.5c-0.5-0.3-0.8-0.8-1.2-1.1c-1.7-0.9-2.7-2.6-4.2-3.7c-0.6-0.4-0.5-1.1-1-1.5c-0.5-0.5-1.1-0.9-1.2-1.7
			c-0.5-0.4-0.8-0.9-1-1.5c-0.7-1.4-1.3-2.8-2.2-4.1c-0.1-0.2,0-0.6-0.1-1c-0.1-0.1-0.3-0.3-0.5-0.5c0-0.3,0-0.6,0-0.9
			c-0.2-0.2-0.3-0.4-0.5-0.5c0-0.3,0-0.6,0-0.9c-0.2-0.2-0.3-0.4-0.5-0.5c0-0.4,0-0.8,0-1.3c-0.1-0.1-0.2-0.3-0.5-0.6
			c0-0.5,0-1.2,0-1.9c-0.2-0.2-0.3-0.3-0.5-0.5c0-1.1,0-2.3,0-3.4c-0.2-0.2-0.3-0.3-0.4-0.4c0-40.3,0-80.6,0-121
			c0.1-0.1,0.3-0.3,0.5-0.5c0-1.1,0-2.2,0-3.4c0.1-0.1,0.2-0.2,0.4-0.4c0-0.6,0-1.3,0-1.9c0.2-0.2,0.3-0.3,0.4-0.4
			c0.4-0.5-0.2-1.3,0.3-1.8c0.5-0.4-0.1-1.3,0.7-1.6c-0.2-0.8,0.6-1.4,0.5-2.2c-0.1-0.5,0.7-0.7,0.5-1.2c0.7-0.9,1-2,1.6-2.9
			c0.2-0.3,0.2-0.7,0.5-1c0.4-0.4,0.7-0.9,1-1.5c0.3-0.5,1-0.9,1.2-1.4c0.3-0.7,0.9-1.1,1.3-1.6c0.4-0.5,0.9-0.9,1.3-1.4
			c0.9-1.2,2.5-1.7,3.4-2.9c0.7,0.1,0.9-0.6,1.3-0.8c1.1-0.5,2.1-1.1,3.2-1.5c0.4-0.1,0.7-0.7,1.2-0.5c0.3-0.6,1.1-0.3,1.4-0.6
			c0.4-0.3,0.8-0.4,1.3-0.4c0.2,0,0.4-0.3,0.6-0.4c0.3-0.1,0.6,0,0.9-0.1c0.2-0.1,0.4-0.3,0.6-0.4c0.4,0,0.9,0,1.3,0
			c0.2-0.2,0.4-0.3,0.6-0.5c0.6,0,1.3,0,1.9,0c0.2-0.2,0.4-0.3,0.5-0.5c0.8,0,1.6,0,2.4,0c0.1-0.1,0.2-0.2,0.3-0.3
			c0.1,0,0.1-0.1,0.2-0.1c1.4,0,2.9,0,4.3,0c0.2-0.2,0.3-0.3,0.4-0.4c32.4,0,64.9,0,97.5,0c0.1,0.1,0.3,0.2,0.6,0.4
			c1.5,0,3.2,0,4.7,0c0.2,0.2,0.3,0.3,0.4,0.4c0.8,0,1.6,0,2.4,0c0.2,0.2,0.4,0.3,0.6,0.5c0.6,0,1.3,0,1.9,0
			c0.2,0.2,0.4,0.3,0.5,0.5c0.5,0,0.9,0,1.4,0c0.1,0.1,0.2,0.2,0.4,0.4c0.9-0.1,1.6,0.7,2.5,0.6c0.3,0.5,0.9,0.3,1.3,0.4
			c0.4,0.2,0.9,0.3,1.2,0.6c0.4,0.4,0.9,0.2,1.2,0.6c0.3,0.3,0.8,0.3,1.2,0.7c0.5-0.2,0.7,0.5,1.2,0.5c0.6,0,0.7,1,1.5,0.9
			c0.6,0.8,1.7,1,2.4,1.8c1.1,1.2,2.2,2.3,3.4,3.4c0.7,0.6,0.7,1.5,1.5,2c0.7,0.5,0.8,1.5,1.5,2c0.4,1.1,1,2.1,1.6,3.2
			c0.1,0.3,0.3,0.5,0.5,0.9c0,0.2,0,0.5,0,0.8c0.2,0.2,0.3,0.4,0.5,0.5c0,0.3,0,0.6,0,1c0.8,0.3,0.2,1.2,0.7,1.6
			c0.6,0.5,0,1.2,0.3,1.8c0.1,0.1,0.2,0.2,0.4,0.4c0,0.6,0,1.3,0,1.9c0.2,0.2,0.3,0.3,0.4,0.4c0,0.8,0,1.6,0,2.4
			c0.2,0.2,0.3,0.4,0.5,0.5C1042.3,227.1,1042.3,268.3,1042.3,309.6z M1001.8,173.5c-29.9,0-59.8,0-89.8,0c-0.2,0.2-0.3,0.3-0.5,0.5
			c-0.8,0-1.6,0-2.4,0c-0.2,0.2-0.4,0.3-0.6,0.5c-0.9-0.4-1.6,0.4-2.4,0.4c-0.6,0-0.8,0.6-1.5,0.5c-0.5,0-1.1,0.5-1.6,0.7
			c-0.3,0.1-0.6,0.2-0.8,0.4c-0.3,0.2-0.6,0.7-0.9,0.7c-0.8,0-0.9,0.9-1.5,1c-0.7,0.1-1,0.8-1.4,1.1c-0.4,0.3-0.7,0.7-1,1
			c0,0.2,0,0.3,0,0.3c-0.5,0.8-1,1.5-1.5,2.1c-0.6,0.7-0.6,1.7-1.3,2.3c0,0.3,0,0.6,0,0.9c-0.2,0.2-0.3,0.4-0.5,0.5
			c0,0.3,0,0.6,0,0.9c-0.1,0.1-0.2,0.2-0.4,0.4c0,0.6,0,1.3,0,1.9c-0.2,0.2-0.3,0.3-0.5,0.5c0,27.7,0,55.4,0,83.2
			c0.5,0.2,0.5,0.6,0.4,1c-0.1,0.5,0.6,0.7,0.5,1.2c0,0.3,0.6,0.5,0.5,0.9c0.9,0.9,1.8,1.8,2.6,2.6c0.5,0.3,0.8,0.6,1.1,0.6
			c0.5,0,0.7,0.7,1.2,0.5c0.4-0.1,0.8,0.1,1,0.5c37.8,0,75.5,0,113.3,0c0.2-0.1,0.3-0.3,0.5-0.5c0.2,0,0.5,0.1,0.7,0
			c0.7-0.3,1.5-0.7,2.3-1.1c0.7-0.7,1.6-1.6,2.3-2.3c0.6-1.2,1.1-2.2,1.7-3.4c0-0.4,0-1,0-1.6c0.1-0.1,0.2-0.2,0.4-0.4
			c0-25.9,0-51.9,0-77.9c-0.1-0.1-0.2-0.2-0.4-0.4c0-1.1,0-2.3,0-3.3c-0.2-0.3-0.4-0.5-0.5-0.7c0-0.5,0-0.9,0-1.3
			c-0.2-0.2-0.3-0.3-0.4-0.4c0-0.3,0-0.6,0-0.9c-0.2-0.2-0.3-0.4-0.5-0.5c0-0.3,0-0.6,0-0.9c-0.1-0.1-0.3-0.2-0.3-0.3
			c-0.2-0.7-0.5-1.3-0.9-1.8c-0.6-0.6-0.6-1.5-1.3-1.9c-0.7-0.4-0.8-1.1-1.2-1.7c-0.5-0.7-1.4-0.7-1.9-1.3c-0.5-0.7-1.3-1.1-2.1-1.4
			c-0.3-0.1-0.5-0.4-0.8-0.5c-0.3,0-0.6-0.2-0.8-0.3c-0.4-0.2-0.8-0.4-1.2-0.6c-0.4-0.2-0.8-0.5-1.2-0.5c-0.5,0-0.8-0.4-1.2-0.5
			c-0.5-0.1-0.9,0-1.3,0c-0.2-0.2-0.3-0.3-0.5-0.5c-0.9,0-1.9,0-2.8,0c-0.1,0-0.1-0.1-0.3-0.2C1002,173.8,1001.9,173.7,1001.8,173.5
			z"/>
		<path fill="#F4D575" d="M619,297.1c-0.1,0.1-0.2,0.2-0.3,0.3c-0.1,0.1-0.1,0.1-0.1,0.2c0,1.3,0,2.6,0,3.8
			c-0.1,0.1-0.2,0.2-0.4,0.4c-0.1,0.8,0,1.6-0.1,2.5c-0.1,0.1-0.2,0.2-0.3,0.3c-0.3,0.6,0.2,1.3-0.3,1.8c-0.5,0.5-0.1,1.1-0.3,1.6
			c-0.2,0.4-0.5,0.7-0.5,1.3c0,0.3-0.3,0.7-0.4,1c-0.1,0.5-0.7,0.8-0.5,1.5c0.1,0.4-0.5,0.7-0.6,1.2c-0.1,0.5-0.6,0.9-0.8,1.3
			c-0.3,0.5-0.4,1.2-0.7,1.6c-0.4,0.5-0.8,0.9-1,1.5c-0.7,0.3-0.7,1.2-1.2,1.7c-1.5,1.4-2.9,2.9-4.4,4.4c-0.3,0.3-0.8,0.3-1.2,0.7
			c-0.3,0.4-0.6,0.9-1.3,1c-0.4,0.1-0.8,0.3-1.2,0.5c-0.4,0.2-0.7,0.7-1.1,0.8c-0.5,0.1-0.7,0.7-1.2,0.5c-0.3,0.8-1.2,0.3-1.7,0.7
			c-0.4,0.3-0.9,0.7-1.4,0.7c-0.6,0-1,0.5-1.5,0.5c-0.6,0-1,0.4-1.5,0.5c-0.2,0.1-0.5,0-0.7,0c-0.2,0.2-0.3,0.3-0.5,0.5
			c-0.6,0-1.3,0-1.9,0c-0.1,0.1-0.2,0.2-0.4,0.4c-0.6,0-1.3,0-1.9,0c-0.2,0.2-0.3,0.3-0.5,0.5c-1,0-2.2,0-3.3,0
			c-0.2,0.2-0.4,0.3-0.7,0.5c-21.8,0-43.8,0-65.7,0c-0.2,0.2-0.3,0.3-0.5,0.5c-0.6,0-1.2,0-1.6,0c-1.2,0.6-2.2,1.1-3.4,1.7
			c-0.5,0.5-1.2,1.2-1.8,1.8c-0.2,1-1.2,1.8-1.1,2.9c-0.1,0.2-0.3,0.3-0.5,0.5c0,0.5,0,0.9,0,1.4c-0.2,0.2-0.3,0.4-0.5,0.5
			c0,22.2,0,44.5,0,66.7c-0.1,0.1-0.2,0.2-0.4,0.4c0,0.3,0,0.7-0.1,1c-0.3,0.3-0.6,0.6-0.8,0.8c-0.1,0.2-0.1,0.4-0.2,0.6
			c-0.7,0.3-1.4,0.6-2.3,1.1c-17.9,0-36,0-54.1,0c-0.3-0.5-0.8-0.5-1.2-0.4c-1-0.7-1.7-1.6-2.3-2.9c0-0.3,0-0.7,0-1.2
			c-0.2-0.2-0.3-0.4-0.5-0.5c0-72,0-144,0-216c0.2-0.2,0.3-0.3,0.5-0.5c0-1.4,0-2.9,0-4.3c0.1-0.1,0.2-0.2,0.4-0.4c0-0.9,0-2,0-2.9
			c0.2-0.2,0.3-0.3,0.5-0.5c0-0.6,0-1.3,0-1.9c0.2-0.2,0.3-0.3,0.4-0.4c0.3-0.6-0.3-1.5,0.5-1.9c-0.1-0.6,0.3-1.1,0.5-1.7
			c0.2-0.5,0.7-0.8,0.5-1.5c-0.1-0.5,0.5-0.7,0.5-1.2c0-0.5,0.6-0.9,0.8-1.3c0.1-0.5,0.5-0.8,0.6-1.2c0-0.7,1-0.8,1-1.5
			c0-0.1,0.1-0.3,0.2-0.4c0.8-0.5,0.9-1.4,1.5-2c1.6-1.5,3.2-3.1,4.8-4.7c0.2,0,0.3,0,0.5,0c0.5-0.3,0.7-1.1,1.5-1
			c0.4-0.4,0.9-0.8,1.5-1.1c0.5-0.2,1.1-0.5,1.6-0.8c0.4-0.3,0.9-0.4,1.4-0.7c0.5-0.3,1.1-0.7,1.6-0.7c0.6,0,0.9-0.6,1.5-0.5
			c0.4,0.1,0.7-0.2,1-0.4c0.3-0.2,0.7-0.1,1.1-0.2c0.1,0,0.2-0.2,0.4-0.3c0.5,0,0.9,0,1.4,0c0.1-0.1,0.2-0.2,0.5-0.4
			c0.6-0.2,1.3,0.1,2-0.1c0.1-0.1,0.2-0.2,0.3-0.3c0.1,0,0.1-0.1,0.2-0.1c0.8,0,1.6,0,2.3,0c0.2-0.2,0.3-0.3,0.4-0.4
			c1.5,0,3.1,0,4.7,0c0.2-0.2,0.4-0.3,0.6-0.5c32.8,0,65.6,0,98.4,0c0.2,0.2,0.3,0.3,0.5,0.5c1.4,0,2.9,0,4.3,0
			c0.2,0.2,0.3,0.3,0.4,0.4c0.8,0,1.6,0,2.4,0c0.2,0.2,0.4,0.3,0.5,0.5c0.5,0,0.9,0,1.4,0c0.1,0.1,0.2,0.2,0.4,0.4c0.5,0,1,0,1.4,0
			c0.3,0.2,0.5,0.5,0.7,0.5c0.6-0.1,1,0.4,1.5,0.4c0.6,0.1,1,0.3,1.5,0.5c0.7-0.4,1.1,0.6,1.7,0.5c0.3,0.5,0.9,0.4,1.4,0.8
			c0.4,0.3,1,0.4,1.4,0.7c0.9,0.6,1.7,1.2,2.7,1.9c0,0,0.2,0,0.3,0c1.5,1.5,3.1,3.1,4.6,4.6c0.4,0.4,0.8,0.8,1.1,1.5
			c0.2,0.5,0.9,0.9,1.3,1.4c-0.3,0.6,0.6,0.8,0.6,1.5c0,0.4,0.6,0.9,0.8,1.3c0.2,0.3,0.3,0.7,0.5,1c0.2,0.3,0.2,0.7,0.5,1
			c-0.2,0.6,0.8,0.8,0.5,1.5c-0.2,0.6,0.6,0.8,0.5,1.2c-0.2,0.7,0.7,1.1,0.5,1.7c-0.1,0.6,0.2,1,0.5,1.5c0.1,0.3,0,0.8,0,1.2
			c0.1,0.1,0.3,0.3,0.5,0.5c0,0.7,0,1.5,0,2.3c0.2,0.2,0.3,0.4,0.5,0.6c0,1.1,0,2.2,0,3.3c0.2,0.2,0.3,0.4,0.5,0.5
			C619,224.5,619,260.8,619,297.1z M579.4,173.5c-30,0-60,0-90,0c-0.1,0-0.3,0.1-0.4,0.2c-0.1,0.1-0.2,0.2-0.3,0.3c-1,0-1.9,0-2.9,0
			c-0.2,0.2-0.4,0.3-0.5,0.5c-0.5,0-1,0-1.4,0c-0.1,0.1-0.2,0.3-0.4,0.3c-1.3,0-2.3,1.1-3.6,1.2c-0.2,0-0.4,0.3-0.6,0.3
			c-0.7,0.1-0.9,1.2-1.7,1c-0.7,0.9-2,1.2-2.7,2.2c-0.4,0.5-0.9,0.9-1.3,1.4c0,0.2,0,0.3,0,0.4c-0.3,0.4-0.8,0.7-0.9,1.1
			c-0.6,1.4-1.4,2.6-1.9,4c-0.1,0.2,0,0.5,0,0.7c-0.2,0.2-0.3,0.4-0.5,0.5c0,0.5,0,1,0,1.4c-0.1,0.1-0.2,0.2-0.4,0.4
			c0,0.8,0,1.6,0,2.4c-0.2,0.2-0.3,0.3-0.5,0.5c0,37,0,74,0,111c0.1,0.1,0.2,0.2,0.4,0.4c0,0.6,0,1.3,0,1.8c0.5,0.7,0.6,1.4,1,1.9
			c0.3,0.5,0.4,1.2,0.9,1.5c0.6,0.3,0.8,1.2,1.7,1.2c0.4,0.4,0.8,1,1.5,1c0.4,0.7,1.4,0.1,1.8,0.8c1,0.1,2,0,3,0.1
			c0.2,0.2,0.3,0.3,0.4,0.4c31.3,0,62.7,0,94.1,0c0.2-0.2,0.3-0.3,0.5-0.5c1.7,0,3.4,0,5,0c0.1,0,0.2,0,0.2,0
			c0.2-0.2,0.4-0.3,0.5-0.5c0.6,0,1.3,0,1.9,0c0.2-0.2,0.5-0.5,0.6-0.4c0.8,0.2,1.3-0.4,2-0.6c0.7-0.1,1.3-0.6,2-0.9
			c0.2,0,0.5,0,0.7,0c0.3-0.3,0.7-0.9,1-0.9c0.6-0.1,0.8-0.7,1.4-0.6c0.8-0.8,1.6-1.6,2.4-2.4c0.3-0.3,0.6-0.5,0.8-0.9
			c0.3-0.3,0.7-0.6,0.8-1.1c0.1-0.3,0.4-0.6,0.7-0.9c0.3-0.3,0.2-0.9,0.7-1.2c0-0.4,0.4-0.7,0.5-1c0.1-0.7,0.9-1.2,0.5-1.9
			c0.2-0.2,0.3-0.4,0.5-0.6c0-0.5,0-0.9,0-1.4c0.1-0.1,0.3-0.3,0.5-0.5c0-0.6,0-1.3,0-1.9c0.2-0.2,0.3-0.3,0.4-0.4
			c0-34.3,0-68.6,0-102.8c-0.2-0.2-0.3-0.3-0.4-0.4c0-0.8,0-1.6,0-2.4c-0.2-0.2-0.3-0.4-0.5-0.6c0-0.3,0-0.6,0-0.9
			c-0.2-0.2-0.3-0.4-0.5-0.5c0-0.3,0-0.6,0-0.8c-0.2-0.4-0.3-0.7-0.5-0.9c-0.2-0.5-0.4-1-0.7-1.4c-0.3-0.4-0.2-0.9-0.7-1.2
			c0-0.7-0.4-1-0.9-1.3c-0.5-0.4-0.5-0.9-0.8-1.3c-0.9-1.2-2.4-1.7-3.4-2.9c-0.1-0.1-0.4,0-0.4,0c-0.3-0.5-0.9-0.5-1.4-0.8
			c-0.5-0.3-1-0.8-1.6-0.7c-0.6,0.1-0.8-0.7-1.5-0.5c-0.6,0.1-1-0.7-1.7-0.5c-0.1,0-0.4-0.3-0.7-0.5c-0.7,0-1.6,0-2.4,0
			C579.6,173.8,579.5,173.7,579.4,173.5z"/>
		<path fill="#F4D575" d="M832.6,297.2c-0.1,0.1-0.2,0.2-0.3,0.2c-0.1,0.1-0.2,0.2-0.2,0.3c0,1.3,0,2.6,0,3.8
			c-0.1,0.1-0.2,0.2-0.4,0.4c0,0.8,0,1.6,0,2.4c-0.2,0.2-0.3,0.3-0.5,0.5c0.3,1.1-0.7,2.1-0.5,3.3c-0.3,0.4-0.5,0.7-0.5,1.2
			c0,0.3-0.3,0.7-0.4,1c-0.1,0.5-0.6,0.8-0.5,1.5c0.1,0.4-0.5,0.7-0.6,1.2c-0.1,0.5-0.6,0.9-0.8,1.3c-0.3,0.5-0.4,1.2-0.7,1.6
			c-0.4,0.5-0.8,0.9-1,1.5c-0.7,0.3-0.7,1.2-1.2,1.7c-1.5,1.4-2.9,2.9-4.4,4.4c-0.3,0.3-0.8,0.3-1.2,0.7c-0.3,0.4-0.6,0.9-1.3,1
			c-0.4,0.1-0.7,0.6-1.2,0.5c-0.6,0.8-1.7,1-2.5,1.6c-0.5,0.4-1.3-0.1-1.7,0.6c-0.6,0-1,0.6-1.7,0.6c-0.6,0-1.2,0.5-1.9,0.6
			c-0.1,0-0.2,0.2-0.4,0.3c-0.3,0-0.6,0-0.9,0c-0.2,0.2-0.4,0.3-0.5,0.5c-0.6,0-1.3,0-1.9,0c-0.1,0.1-0.2,0.2-0.4,0.4
			c-0.6,0-1.3,0-1.9,0c-0.2,0.2-0.3,0.3-0.5,0.5c-1,0-2.2,0-3.3,0c-0.2,0.2-0.4,0.3-0.7,0.5c-21.8,0-43.8,0-65.7,0
			c-0.2,0.2-0.3,0.3-0.5,0.4c-0.6,0-1.2,0-1.6,0c-1.2,0.6-2.2,1.1-3.5,1.7c-0.5,0.5-1.3,1.2-1.9,2c-0.4,0.6-0.7,1.3-1,2
			c-0.1,0.2,0,0.5,0,0.7c-0.1,0.2-0.3,0.3-0.5,0.5c0,0.5,0,0.9,0,1.4c-0.2,0.2-0.3,0.4-0.5,0.5c0,22.2,0,44.5,0,66.7
			c-0.2,0.2-0.3,0.4-0.5,0.5c0,0.3,0,0.6,0,0.9c-0.3,0.3-0.6,0.6-0.9,0.9c-0.1,0.2-0.1,0.4-0.2,0.6c-0.7,0.3-1.4,0.7-2.3,1.1
			c-17.8,0-35.9,0-54,0c-0.1-0.1-0.3-0.2-0.5-0.4c-0.2,0-0.5,0-0.8,0c-1-0.7-1.7-1.6-2.3-2.8c0-0.3,0-0.8,0-1.2
			c-0.2-0.2-0.3-0.4-0.5-0.5c0-72,0-144,0-216c0.2-0.2,0.3-0.3,0.5-0.5c0-1.4,0-2.9,0-4.3c0.1-0.1,0.2-0.2,0.4-0.4
			c0.1-0.9,0-1.9,0.1-2.9c0.1-0.1,0.2-0.2,0.4-0.4c0-0.6,0-1.3,0-1.9c0.2-0.2,0.3-0.3,0.4-0.4c0.3-0.6-0.3-1.5,0.5-1.9
			c-0.1-0.6,0.2-1.2,0.5-1.7c0.3-0.5,0.7-1,0.5-1.7c0.6-0.4,0.5-1.1,0.9-1.5c0.3-0.4,0.3-1,0.6-1.4c0.4-0.5,0.5-1.1,0.8-1.6
			c0-0.1,0-0.2,0-0.2c0.5-0.7,1.4-1.1,1.5-2c0.6-0.6,1.2-1.2,1.9-1.9c0.6-0.6,1.1-1.1,1.7-1.7c0.6-0.6,1.2-1.2,1.9-1.9
			c0.2,0,0.3,0,0.5,0c0.5-0.3,0.7-0.8,1.3-1c0.5-0.1,0.8-0.6,1.3-0.9c0.4-0.3,1-0.3,1.4-0.6c0.4-0.4,1.1-0.3,1.4-0.8
			c0.6,0.2,0.8-0.4,1.2-0.5c0.5-0.1,0.9-0.5,1.5-0.5c0.5,0,0.9-0.4,1.5-0.5c0.5-0.1,0.9-0.5,1.5-0.4c0.2-0.1,0.3-0.3,0.5-0.5
			c0.5,0,0.9,0,1.4,0c0.1-0.1,0.2-0.2,0.5-0.5c0.5-0.1,1.2,0,1.9,0c0.1-0.1,0.2-0.2,0.4-0.4c0.8-0.1,1.6,0,2.5-0.1
			c0.1-0.1,0.2-0.2,0.4-0.4c1.5,0,3.1,0,4.7,0c0.2-0.2,0.4-0.3,0.6-0.5c32.8,0,65.6,0,98.4,0c0.2,0.2,0.3,0.3,0.5,0.5
			c1.4,0,2.9,0,4.3,0c0.2,0.2,0.3,0.3,0.4,0.4c0.6,0,1.3,0,1.9,0c0.2,0.2,0.4,0.3,0.5,0.5c0.6,0,1.3,0,1.9,0
			c0.2,0.2,0.4,0.3,0.5,0.5c0.5,0,1,0,1.4,0c0.2,0.2,0.4,0.5,0.6,0.4c0.6-0.1,1,0.4,1.5,0.4c0.6,0.1,1,0.3,1.5,0.5
			c0.7-0.4,1.1,0.6,1.7,0.5c0.3,0.5,0.9,0.4,1.4,0.8c0.4,0.3,1,0.3,1.4,0.7c0.8,0.7,1.9,1,2.6,1.9c0.2,0,0.3,0,0.5,0
			c1.5,1.5,3.1,3.1,4.6,4.6c0.4,0.4,0.8,0.9,1.1,1.5c0.2,0.5,0.9,0.9,1.3,1.4c-0.1,0.5,0.4,0.7,0.4,1c0,0.6,0.6,0.9,0.6,1.5
			c0,0.5,0.6,0.9,0.8,1.3c0.2,0.8,1,1.4,1,2.2c0,0.8,0.8,1.4,0.6,2.2c0.8,0.5,0.1,1.4,0.5,1.9c0.5,0.6,0.3,1.2,0.4,1.8
			c0.1,0.1,0.3,0.3,0.4,0.5c0,0.7,0,1.5,0,2.3c0.2,0.2,0.3,0.4,0.5,0.6c0,1.1,0,2.2,0,3.3c0.2,0.2,0.3,0.4,0.5,0.5
			C832.6,224.5,832.6,260.8,832.6,297.2z M693.6,312.7c31.3,0,62.7,0,94,0c0.2-0.2,0.3-0.3,0.5-0.5c1.7,0,3.5,0,5.2,0
			c0.2-0.2,0.4-0.3,0.6-0.5c0.6,0,1.3,0,1.9,0c0.3-0.4,0.6-0.5,1-0.5c0.5,0.1,0.6-0.5,1-0.5c0.5,0,0.9-0.1,1.3-0.4
			c0.2-0.2,0.7-0.2,0.9-0.6c0.3,0,0.6,0,1,0c0.6-0.9,1.7-1.1,2.6-1.7c0.9-0.9,1.8-1.9,2.7-2.7c0.8-0.7,1.1-1.7,1.8-2.4
			c0.3-0.2,0.3-0.7,0.5-1c0.2-0.4,0.2-0.9,0.7-1.2c-0.2-0.6,0.6-0.7,0.5-1.2c-0.1-0.5,0.3-0.8,0.5-1.3c0.1-0.4,0-0.9,0-1.3
			c0.2-0.3,0.4-0.5,0.5-0.7c0-0.6,0-1.3,0-1.8c0.2-0.2,0.3-0.3,0.4-0.4c0-34.3,0-68.6,0-102.8c-0.2-0.2-0.3-0.3-0.4-0.4
			c0-0.8,0-1.6,0-2.4c-0.2-0.2-0.3-0.4-0.5-0.5c0-0.3,0-0.6,0-0.9c-0.2-0.2-0.3-0.4-0.5-0.5c0-0.3,0-0.6,0-0.8
			c-0.7-1.4-1.4-2.7-2-3.9c-0.2-0.5-0.5-0.8-0.9-1.1c-0.5-0.3-0.4-0.8-0.7-1.2c-0.9-1.2-2.5-1.7-3.4-2.9c-0.1-0.1-0.4,0-0.4,0
			c-0.3-0.4-0.8-0.4-1.2-0.6c-0.4-0.3-0.9-0.6-1.4-0.8c-0.4-0.1-1,0.1-1.3-0.4c-0.9,0.2-1.5-0.8-2.4-0.5c-0.2-0.2-0.3-0.3-0.5-0.5
			c-0.8,0-1.6,0-2.4,0c-0.2-0.2-0.4-0.3-0.5-0.5c-30.1,0-60.1,0-90.2,0c-0.2,0.2-0.3,0.3-0.5,0.5c-1,0-1.9,0-2.8,0
			c-0.2,0.2-0.4,0.3-0.5,0.4c-0.5,0-1.1-0.1-1.4,0.1c-0.4,0.3-0.8,0.3-1.3,0.4c-0.5,0.1-1,0.4-1.4,0.7c-0.4,0.4-0.9,0-1.3,0.3
			c-0.5,0.4-1.3,0.6-1.7,1.2c-0.9,0-1.2,1.1-2.1,1.2c-0.7,0.7-1.3,1.4-2,2c-0.5,0.5-0.5,1.3-1.2,1.7c-0.2,0.1-0.2,0.5-0.4,0.8
			c-0.3,0.5-0.8,0.9-0.8,1.3c0,0.6-0.8,0.8-0.6,1.5c-0.6,0.4-0.5,0.9-0.5,1.5c-0.2,0.2-0.3,0.4-0.5,0.5c0,0.5,0,0.9,0,1.4
			c-0.1,0.1-0.2,0.2-0.4,0.4c0,0.8,0,1.6,0,2.3c-0.2,0.3-0.4,0.5-0.5,0.6c0,37.1,0,74,0,110.9c0.2,0.2,0.3,0.3,0.5,0.5
			c0,0.6,0,1.3,0,1.6c0.6,1.3,1.1,2.2,1.6,3.3c0.3,0.3,0.8,1,1.4,1.3c0.6,0.3,1,0.6,1.5,1c0.1,0.1,0.3,0,0.4,0.1
			c0.2,0.1,0.3,0.3,0.5,0.4c0.1,0.1,0.3,0,0.5,0.1c0.2,0,0.4,0,0.6,0.1c0.2,0.2,0.3,0.3,0.4,0.4c0.9,0,1.9,0,2.9,0
			c0.1,0,0.1,0.1,0.2,0.1C693.4,312.5,693.5,312.6,693.6,312.7z"/>
		<path fill="#F4D575" d="M20.4,279c0.4-0.6,0.8-1.1,0.9-1.6c0.3-1.3,1.4-1.5,2.3-2c0.3-0.2,0.9,0,1.3,0c0.2-0.2,0.3-0.3,0.4-0.4
			c3.6,0,7.3,0,11.1,0c0.1,0.1,0.3,0.2,0.5,0.4c0.3,0,0.6,0,0.9,0c0.4,0.2,0.5,0.7,1,0.5c0.6,0.6,1.1,1.1,1.7,1.7c0,0.3,0,0.6,0,0.9
			c0.1,0.1,0.2,0.2,0.3,0.3c0,0.1,0.1,0.1,0.1,0.2c0,6.9,0,13.7,0,20.6c0.1,0.1,0.3,0.3,0.4,0.4c0,1.5,0,3.1,0,4.7
			c0.2,0.2,0.3,0.4,0.5,0.7c0,0.4,0,0.9,0,1.4c0.2,0.2,0.3,0.3,0.4,0.4c0,0.4,0,0.9,0,1.4c0.4,0.3,0.4,0.9,0.7,1.2
			c0.4,0.4,0.3,1.1,0.8,1.4c-0.2,0.5,0.6,0.7,0.5,1.2c0.5,0.7,0.8,1.5,1.4,2.1c0.8,0.7,1.6,1.5,2.4,2.4c0.4,0.5,1,0.7,1.5,1
			c0.4,0.3,0.9,0.6,1.3,0.8c0.5,0.3,1.1,0.5,1.6,0.8c0.5,0.2,0.9,0.7,1.5,0.5c0.6,0.5,1.2,0.6,1.9,0.4c0.2,0.2,0.4,0.3,0.6,0.5
			c0.4,0,0.9,0,1.4,0c0.2,0.2,0.4,0.3,0.6,0.5c1.4,0,2.9,0,4.3,0c0.2,0.2,0.4,0.3,0.5,0.5c20.3,0,40.6,0,61,0
			c0.1-0.1,0.2-0.2,0.4-0.4c0.8-0.1,1.6,0,2.5-0.1c0.3-0.8,1.1-0.3,1.6-0.6c0.5-0.3,1-0.6,1.5-1c0.4-0.3,0.9-0.5,1.3-0.8
			c0.5-0.4,0.4-1.2,1-1.5c0.6-0.3,0.5-1.1,1-1.5c0-0.4,0-0.9,0-1.4c0.1-0.1,0.3-0.3,0.4-0.4c0-0.1,0.1-0.3,0.1-0.4
			c0-16.8,0-33.6,0-50.4c0-0.6,0.1-1.3,0-1.9c-0.1-0.5-0.6-0.9-0.4-1.5c-0.5-0.4-0.4-1.2-0.9-1.5c-0.1,0,0-0.3,0-0.5
			c-0.9-0.8-1.8-1.8-2.8-2.6c-0.6-0.4-1.3-0.7-2-1c-0.2-0.1-0.5,0-0.7,0c-0.2-0.1-0.3-0.3-0.5-0.5c-24.1,0-48.3,0-72.5,0
			c-0.1-0.1-0.2-0.2-0.3-0.3c-0.1-0.1-0.1-0.1-0.2-0.1c-1.6,0-3.2,0-4.8,0c-0.1-0.1-0.2-0.2-0.4-0.4c-0.8-0.2-1.7,0-2.5-0.1
			c-0.1-0.1-0.2-0.2-0.4-0.4c-0.6,0-1.2,0-1.8,0c-0.2-0.2-0.4-0.3-0.6-0.5c-0.4,0-0.9,0-1.3,0c-0.2-0.2-0.4-0.3-0.6-0.5
			c-0.3,0-0.6,0-0.9,0c-0.2-0.2-0.4-0.3-0.5-0.5c-0.3,0-0.6,0-0.9,0c-0.2-0.2-0.4-0.3-0.5-0.5c-0.3,0-0.6,0-0.9,0
			c-0.6-0.7-1.7-0.7-2.3-1.4c-0.6,0.1-0.9-0.5-1.5-0.6c-0.5,0-0.7-0.8-1.3-0.9c-0.6-0.1-0.8-0.7-1.2-1c-0.6-0.5-1.4-0.7-1.9-1.3
			c-0.5-0.6-1.1-1.1-1.7-1.7c-0.4-0.4-0.8-0.8-1.1-1.5c-0.2-0.5-0.9-0.9-1.3-1.4c0.1-0.5-0.4-0.7-0.4-1c0-0.6-0.5-0.8-0.7-1.2
			c-0.2-0.3-0.3-0.7-0.5-1c-0.3-0.4-0.1-0.8-0.2-1.1c-0.1-0.3-0.3-0.5-0.5-0.8c-0.1-0.3-0.3-0.5-0.5-0.9c0-0.2,0-0.5,0-0.8
			c-0.1-0.1-0.2-0.2-0.4-0.4c0-0.5,0-1,0-1.4c-0.2-0.2-0.3-0.3-0.5-0.5c0-0.4,0-0.9,0-1.3c-0.2-0.2-0.3-0.4-0.5-0.7
			c0-0.7,0-1.6,0-2.3c-0.2-0.2-0.3-0.3-0.4-0.4c0-14.9,0-29.9,0-44.8c0.2-0.2,0.3-0.3,0.4-0.4c0-0.9,0-1.9,0-2.9
			c0.2-0.2,0.3-0.4,0.5-0.5c0-0.5,0-0.9,0-1.4c0.1-0.1,0.2-0.2,0.3-0.3c0.3-0.4,0.1-0.9,0.2-1.5c0.1-0.1,0.3-0.3,0.3-0.5
			c0.2-0.5,0.6-1,0.6-1.4c0-0.5,0.3-0.8,0.5-1.2c0.4-0.9,0.7-1.8,1.3-2.6c0.6-0.7,0.8-1.7,1.7-2.2c0.5-0.3,0.4-1.2,1-1.5
			c0.5-0.3,0.8-0.8,1.2-1.2c0.5-0.4,0.9-1.1,1.6-1.3c0.8-0.2,1-1.2,1.8-1.4c0.7-0.1,0.9-1.1,1.7-1c0.7-0.9,1.8-1.1,2.7-1.7
			c0.5-0.3,1.3,0.2,1.7-0.6c0.6,0.1,1-0.8,1.7-0.5c0.1,0,0.3-0.3,0.5-0.4c0.3-0.1,0.6,0,0.9-0.1c0.2-0.1,0.4-0.3,0.6-0.4
			c0.4,0,0.9,0,1.3,0c0.2-0.2,0.4-0.3,0.6-0.5c0.5,0,0.9,0,1.4,0c0.1-0.1,0.2-0.2,0.5-0.4c0.6-0.2,1.3,0.1,2-0.1
			c0.1-0.1,0.2-0.2,0.4-0.4c0.8-0.1,1.6,0,2.5-0.1c0.1-0.1,0.2-0.2,0.4-0.4c1.7,0,3.4,0,5.2,0c0.2-0.2,0.4-0.3,0.6-0.5
			c32.6,0,65.3,0,98,0c0.2,0.2,0.3,0.3,0.4,0.4c1.4,0,2.8,0,4.3,0c0.2,0.2,0.4,0.3,0.6,0.5c0.8,0,1.6,0,2.4,0
			c0.1,0.1,0.2,0.2,0.4,0.3c0.1,0.1,0.3,0.1,0.4,0.2c0.6,0,1.1,0,1.7,0c0.2,0.2,0.4,0.3,0.5,0.5c0.4,0,0.8,0,1.2,0
			c0.1,0,0.2,0,0.2,0c0.3,0.6,1.1,0.2,1.4,0.5c0.4,0.4,0.9,0.3,1.3,0.4c0.4,0.1,0.7,0.6,1.3,0.5c0.5-0.1,0.7,0.6,1.2,0.5
			c0.3,0,0.6,0.4,1,0.5c0.3,0.1,0.6,0.3,1,0.5c0.3,0.2,0.7,0.3,1,0.5c0.5,0.2,1,0.5,1.3,0.8c0.3,0.4,0.9,0.4,1.2,0.7
			c0.5,0.6,1.2,0.7,1.7,1.2c0.5,0.5,1,1,1.5,1.5c0.3,0.3,0.6,0.6,0.8,0.8c0.5,0.5,0.9,0.9,1.4,1.4c0.4,0.4,0.8,0.9,1.1,1.5
			c0.2,0.5,0.9,0.9,1.3,1.3c0,0.2-0.1,0.5,0,0.5c0.5,0.3,0.4,0.8,0.7,1.2c0.4,0.4,0.6,0.8,0.9,1.3c0.3,0.5,0.1,1,0.4,1.3
			c0.4,0.5,0.4,1.2,0.9,1.6c-0.2,0.6,0.6,0.7,0.5,1.2c-0.1,0.4,0.1,0.7,0.4,1.1c0.4,0.5-0.2,1.3,0.4,1.8c0.5,0.5,0.1,1.1,0.2,1.6
			c0.1,0.1,0.3,0.3,0.5,0.5c0,0.6,0,1.2,0,1.9c0.2,0.2,0.3,0.4,0.5,0.5c0,0.9,0,1.9,0,2.9c0.1,0.1,0.2,0.2,0.3,0.3
			c0.1,0.2,0.2,0.3,0.2,0.4c0,8.2,0,16.5,0,24.7c-0.2,0.2-0.3,0.4-0.5,0.5c0,0.3,0,0.5,0,0.9c-0.4,0.4-1,0.9-1.4,1.4
			c-0.4,0.6-1.2,0.6-1.7,1.2c-4.5,0-8.9,0-13.3,0c-0.8-0.4-1.6-0.7-2.3-1.1c-0.8-0.4-1-1.3-1.5-2.2c0-5.5,0-11.3,0-17
			c-0.1-0.1-0.2-0.2-0.4-0.4c0-1.6,0-3.2,0-4.8c-0.2-0.2-0.3-0.3-0.4-0.4c0-0.1-0.1-0.3-0.1-0.4c-0.1-0.7,0.3-1.4-0.4-2
			c0.1-0.6-0.3-1.1-0.5-1.7c-0.1-0.4-0.7-0.7-0.5-1.2c-0.5-0.2-0.4-0.8-0.7-1.2c-0.2-0.3-0.3-0.7-0.5-1c-0.2-0.4-0.8-0.5-0.7-1.1
			c-0.6-0.6-1.2-1.3-1.8-1.9c-0.6-0.5-1-1.2-1.8-1.4c-0.4-0.1-0.7-0.6-1.1-0.9c-0.8-0.5-1.8-0.8-2.6-1.3c-0.5-0.3-1.2,0.2-1.5-0.5
			c-1,0-1.8-1-2.8-0.5c-0.2-0.2-0.4-0.3-0.6-0.5c-0.7,0-1.5,0-2.3,0c-0.2-0.2-0.4-0.3-0.6-0.5c-30.2,0-60.4,0-90.7,0
			c-0.1,0.1-0.3,0.3-0.5,0.5c-0.9,0-1.9,0-2.9,0c-0.1,0.1-0.2,0.2-0.4,0.4c-0.5,0-1,0-1.5,0c-0.2,0.2-0.3,0.3-0.5,0.5
			c-0.4,0-0.9,0-1.3,0c-0.2,0.2-0.4,0.4-0.6,0.4c-0.7,0.1-1.1,0.9-1.9,0.6c-0.3,0.5-1,0.3-1.3,0.8c-0.3,0.5-0.9,0.6-1.3,0.8
			c-0.4,0.2-0.5,0.8-1.1,0.8c-0.6,0.6-1.2,1.2-1.8,1.8c0,0.6-0.5,0.7-0.8,1.1c-0.3,0.4-0.2,0.9-0.7,1.2c-0.3,0.2-0.8,1.5-1,2
			c-0.2,0.6-0.6,1.2-0.6,1.9c0,0.1-0.2,0.2-0.3,0.4c0,1.3,0,2.5,0,3.8c-0.2,0.2-0.3,0.4-0.5,0.5c0,8.8,0,17.6,0,26.4
			c0.1,0.1,0.2,0.2,0.4,0.4c0.1,1.4,0,2.9,0,4.4c0.2,0.2,0.5,0.4,0.4,0.6c-0.3,0.8,0.5,1.3,0.6,2c0.1,0.6,0.4,1.3,0.9,1.8
			c0.1,0.1,0.1,0.5,0.2,0.6c0.7,0.5,0.8,1.3,1.3,1.9c1,1,2,2,2.9,2.8c0.6,0.3,1,0.6,1.4,0.7c0.4,0.1,0.7,0.7,1.2,0.5
			c0.2,0.5,0.9,0.3,1.2,0.7c0.4,0.5,1,0,1.3,0.3c0.4,0.5,0.8,0.3,1.3,0.4c0.2,0.1,0.3,0.3,0.5,0.5c0.6,0,1.3,0,1.9,0
			c0.1,0.1,0.2,0.2,0.3,0.3c0.1,0.1,0.2,0.2,0.2,0.2c1.6,0,3.2,0,4.8,0c0.1,0.1,0.3,0.3,0.4,0.4c32.8,0,65.6,0,98.4,0
			c0.2,0.2,0.3,0.3,0.5,0.5c0.8,0,1.6,0,2.4,0c0.2,0.2,0.3,0.3,0.5,0.5c0.6,0,1.3,0,1.9,0c0.2,0.2,0.3,0.3,0.4,0.4
			c0.3,0,0.6,0,0.9,0c0.2,0.2,0.4,0.3,0.5,0.5c0.5,0,0.9,0,1.4,0c0.3,0.6,1.1,0.5,1.5,0.9c0.2,0.2,0.7,0,1.1,0.2
			c1.4,0.8,2.9,1.5,4.4,2.2c0.1,0,0.2,0,0.2,0c0.5,0.4,0.8,1.1,1.4,1.3c0.5,0.2,0.9,0.5,1.3,0.9c1.3,1.3,2.6,2.6,3.9,3.9
			c0.5,0.4,0.7,1,1,1.5c0.3,0.5,0.7,1,1,1.5c0.2,0.4,0.2,0.9,0.7,1.2c0.5,0.2,0.4,0.9,0.7,1.1c0.6,0.4-0.1,1.3,0.7,1.7
			c0,0.6,0.6,1,0.6,1.7c0,0.6,0.5,1.2,0.6,1.9c0,0.1,0.2,0.2,0.3,0.4c0,0.3,0,0.6,0,0.9c0.2,0.2,0.3,0.4,0.5,0.5c0,0.5,0,1,0,1.4
			c0.1,0.1,0.2,0.2,0.4,0.4c0,0.8,0,1.6,0,2.4c0.2,0.2,0.3,0.3,0.5,0.5c0,0.9,0,1.8,0,2.8c0.2,0.2,0.3,0.4,0.5,0.6
			c0,14.9,0,29.8,0,44.7c-0.2,0.2-0.3,0.3-0.4,0.4c0,0.8,0,1.6,0,2.4c-0.2,0.2-0.3,0.4-0.5,0.6c0,0.6,0,1.2,0,1.9
			c-0.2,0.2-0.3,0.4-0.5,0.5c0,0.3,0,0.6,0,0.9c-0.1,0.1-0.2,0.2-0.3,0.3c-0.4,0.4,0.2,1-0.3,1.3c-0.5,0.3,0,1-0.4,1.3
			c-0.4,0.3-0.3,0.9-0.7,1.2c-0.3,0.3-0.2,0.9-0.7,1.2c0.1,0.6-0.4,0.8-0.7,1.2c-0.3,0.6-0.6,1.2-1.2,1.7c0,0.7-0.6,1-1,1.5
			c-0.2,0.2-0.3,0.3-0.5,0.5c-1.4,1.4-2.7,2.7-4.1,4.1c-0.2,0-0.3,0-0.5,0c-0.5,0.4-0.8,0.9-1.5,1.1c-0.5,0.1-1,0.5-1.3,0.8
			c-0.3,0.4-0.8,0.4-1.2,0.7c-0.3,0.2-0.5,0.4-0.8,0.3c-0.1,0-0.2,0-0.2,0c-0.5,0.2-1,0.4-1.4,0.7c-0.4,0.4-0.9,0.1-1.3,0.3
			c-0.5,0.3-0.9,0.5-1.4,0.9c-0.4,0-0.8,0-1.3,0c-0.2,0.2-0.4,0.3-0.5,0.5c-0.3,0-0.6,0-0.9,0c-0.1,0.1-0.2,0.2-0.5,0.5
			c-0.5,0.1-1.3,0-2,0c-0.1,0.1-0.2,0.2-0.4,0.4c-0.8,0.1-1.6,0-2.5,0.1c-0.1,0.1-0.2,0.2-0.4,0.4c-0.9,0-1.9,0-2.9,0
			c-0.2,0.2-0.3,0.3-0.4,0.4c-34.8,0-69.5,0-104.3,0c-0.2-0.2-0.3-0.3-0.4-0.4c-0.9,0-1.9,0-2.8,0c-0.2-0.2-0.4-0.3-0.6-0.5
			c-0.8,0-1.6,0-2.4,0c-0.2-0.2-0.4-0.3-0.5-0.5c-0.5,0-0.9,0-1.4,0c-0.1-0.1-0.2-0.2-0.3-0.3c-0.4-0.2-0.9-0.1-1.4-0.1
			c-0.5-0.2-0.9-0.5-1.5-0.5c-0.5,0-1-0.4-1.4-0.7c-0.5-0.4-1.1,0-1.5-0.5c-0.3-0.4-0.9-0.5-1.4-0.7c-0.5-0.2-0.9-0.5-1.4-0.7
			c-0.5-0.2-0.9-0.6-1.4-0.7c-0.7-0.1-0.8-0.7-1.3-1c-0.2,0-0.3,0-0.5,0c-0.9-0.8-1.6-1.7-2.7-2.2c-0.6-0.3-1-1-1.6-1.5
			c-0.6-0.5-0.7-1.2-1.2-1.7c-0.5-0.5-1-1-1.5-1.5c0.1-0.9-0.9-1-1-1.7c-0.2-0.6-0.6-1.2-0.9-1.8c-0.4-0.9-0.9-1.9-1.5-2.9
			c0-0.1,0-0.5,0-0.8c-0.2-0.2-0.3-0.4-0.5-0.5c0-0.3,0-0.6,0-1c-0.8-0.3-0.2-1.2-0.7-1.6c-0.6-0.5-0.1-1.2-0.3-1.7
			c-0.1-0.1-0.3-0.3-0.5-0.5c0-0.6,0-1.3,0-1.9c-0.2-0.2-0.3-0.3-0.4-0.4c0-0.9,0-1.9,0-2.9c-0.2-0.2-0.3-0.4-0.5-0.5
			C20.4,298.8,20.4,288.8,20.4,279z"/>
		<path fill="#F4D575" d="M402,307.2c-0.1,0.1-0.2,0.2-0.4,0.4c-0.1,1.2,0,2.6-0.1,3.9c-0.1,0.1-0.2,0.2-0.4,0.4c0,0.8,0,1.6,0,2.4
			c-0.2,0.2-0.3,0.3-0.4,0.4c0,0.5-0.1,1-0.1,1.6c-0.7,0.4,0,1.4-0.9,1.8c0,0.3,0,0.6,0,0.9c-0.2,0.2-0.3,0.4-0.5,0.5
			c0,0.3,0,0.6,0,0.8c-0.7,1.3-1.3,2.5-1.9,3.7c-0.2,0.5-0.3,1.1-0.7,1.4c-0.7,0.6-0.8,1.5-1.5,2c-0.8,0.5-0.9,1.6-1.7,2.2
			c-0.7,0.5-1.2,1.2-1.9,1.8c-0.5,0.4-0.9,1-1.4,1.2c-0.6,0.2-0.8,0.9-1.3,1c-0.8,0-0.9,0.9-1.5,1c-0.7,0.1-0.8,0.9-1.3,0.9
			c-0.6,0-0.8,0.8-1.5,0.6c-0.3,0.8-1.2,0.3-1.7,0.6c-0.4,0.3-0.9,0.7-1.4,0.7c-0.6,0.1-1,0.4-1.5,0.5c-0.6,0.1-1,0.3-1.5,0.5
			c-0.2,0.1-0.5,0-0.7,0c-0.2,0.1-0.3,0.3-0.5,0.5c-0.5,0-0.9,0-1.4,0c-0.2,0.2-0.4,0.3-0.5,0.5c-0.8,0-1.6,0-2.4,0
			c-0.1,0.1-0.2,0.2-0.5,0.5c-1.2,0-2.6,0-3.9,0c-0.1,0.1-0.3,0.3-0.4,0.4c-33.5,0-67.1,0-100.8,0c-0.1-0.1-0.3-0.2-0.6-0.4
			c-1.2,0-2.5,0-3.8,0c-0.2-0.2-0.3-0.3-0.4-0.4c-0.6,0-1.2,0-1.9,0c-0.2-0.2-0.4-0.3-0.6-0.5c-0.6,0-1.3,0-1.9,0
			c-0.2-0.2-0.4-0.3-0.5-0.5c-0.3,0-0.6,0-0.9,0c-0.2-0.2-0.4-0.3-0.5-0.5c-0.9,0.3-1.4-0.6-2.2-0.5c-0.4,0-0.7-0.5-1.2-0.5
			c-0.3-0.7-1.1-0.1-1.4-0.5c-0.3-0.4-0.9-0.3-1.2-0.6c-0.3-0.3-0.9-0.2-1.1-0.7c-0.2-0.4-0.7-0.3-1-0.5c-0.5-0.4-0.9-0.8-1.5-1
			c-0.5-0.2-0.7-0.9-1.3-0.8c-0.5-0.5-0.9-0.9-1.4-1.4c-0.4-0.4-0.8-0.8-1.2-1.2c-0.5-0.5-0.9-0.9-1.3-1.4c-0.3-0.3-0.3-0.8-0.7-1.2
			c-0.4-0.3-0.9-0.6-1-1.3c-0.1-0.4-0.6-0.7-0.9-1.1c0,0,0-0.2,0-0.2c0.1-0.4-0.4-0.5-0.5-0.8c-0.2-0.7-0.6-1.3-0.9-2
			c-0.3-0.5-0.5-1.1-0.8-1.6c-0.3-0.4-0.1-0.8-0.3-1.3c0,0-0.2-0.2-0.4-0.4c0-0.3,0-0.6,0-1c-0.1-0.1-0.2-0.2-0.3-0.3
			c-0.3-0.5-0.1-1.1-0.2-1.6c-0.1-0.1-0.2-0.2-0.4-0.4c0-0.4,0-0.9,0-1.3c-0.2-0.2-0.3-0.4-0.5-0.7c0-0.5,0-1.2,0-1.9
			c-0.2-0.2-0.3-0.3-0.5-0.5c0-1.4,0-2.9,0-4.3c-0.2-0.2-0.3-0.3-0.4-0.4c0-49.3,0-98.5,0-147.8c0.1-0.1,0.3-0.3,0.5-0.5
			c-0.3-0.8,0.5-1.2,0.5-1.9c0.4-0.3,0.5-0.8,1.1-0.7c0.4-0.6,1.2-0.4,1.5-0.9c4.7,0,9.3,0,13.7,0c0.5,0.2,0.9,0.4,1.3,0.6
			c0.7,0.7,1.6,1.4,2,2.4c0,37.7,0,75.3,0,112.9c0.2,0.2,0.3,0.3,0.4,0.4c0,0.8,0,1.6,0,2.4c0.2,0.2,0.3,0.4,0.5,0.5
			c0,0.5-0.1,1.1,0.5,1.5c0.4,1.8,2,2.7,3.1,4c0.6-0.2,0.8,0.4,1.2,0.5c0.4,0.1,0.7,0.3,1,0.4c0.2,0.1,0.5,0,0.7,0
			c0.2,0.2,0.4,0.3,0.6,0.5c0.8,0,1.6,0,2.4,0c0.1,0.1,0.2,0.2,0.4,0.4c35.3,0,70.6,0,106.1,0c0.1-0.1,0.3-0.2,0.6-0.4
			c0.4,0,1,0,1.5,0c0.6,0,0.8-0.6,1.5-0.5c0.4,0,1-0.3,1.4-0.6c0.5-0.3,1.2-0.4,1.5-1c0.3-0.5,0.8-0.8,1.2-1.2
			c0.4-0.4,0.8-0.7,0.9-1.3c0.1-0.5,0.5-0.9,0.8-1.5c0-0.2,0-0.5,0-0.8c0.2-0.2,0.3-0.4,0.5-0.5c0-0.8,0-1.6,0-2.4
			c0.1-0.1,0.2-0.2,0.3-0.3c0-0.1,0.1-0.1,0.1-0.2c0-37.6,0-75.2,0-112.6c0.3-0.6,0.6-1.1,0.9-1.5c0.3-0.4,0.8-0.8,1.2-1.2
			c0.1,0,0.1-0.1,0.2-0.1c0.3-0.1,0.5-0.2,1.1-0.4c4.3,0,8.9,0,13.6,0c0.6,0.4,1.2,0.7,1.9,1c0.7,0.2,0.7,1.1,1.2,1.7
			c0,0.2,0,0.6,0,0.9c0.2,0.2,0.3,0.4,0.5,0.5C402,208.4,402,257.8,402,307.2z"/>
		<path fill="#F4D575" d="M1238.6,168.3c0-0.2-0.1,0.1,0,0.2c0.8,0.5,0.9,1.4,1.5,2c0.6,0.5,0.6,1.4,1.1,1.9
			c0.5,0.5-0.1,1.3,0.6,1.7c0.1,0.6,0.7,1,0.6,1.7c0,0.6,0.8,1,0.5,1.7c0.6,0.4,0.4,1.1,0.6,1.7c0.1,0.1,0.2,0.2,0.3,0.4
			c0,0.6,0,1.3,0,1.9c0.2,0.2,0.3,0.4,0.5,0.5c0,0.8,0,1.6,0,2.4c0.1,0.1,0.2,0.2,0.4,0.4c0.1,1.2,0,2.6,0.1,3.9
			c0.1,0.1,0.2,0.2,0.4,0.4c0,10.2,0,20.5,0,30.8c-0.1,0.1-0.2,0.2-0.4,0.4c0,0.4,0,0.9,0,1.1c-0.1,0.6-0.7,0.7-0.5,1.3
			c-0.6,0.6-1.2,1.1-1.9,1.7c-0.1,0-0.4,0-0.7,0c-0.2,0.2-0.4,0.3-0.5,0.5c-4.3,0-8.6,0-12.9,0c-0.2-0.2-0.3-0.3-0.5-0.5
			c-0.3,0-0.6,0-0.9,0c-0.5-0.5-1-1-1.5-1.5c-0.1-0.7-0.8-1.1-0.6-1.9c-0.7-0.6-0.5-1.4-0.5-2.2c0-8.4,0-16.8,0-25.2
			c0-0.7,0-1.4,0-2c-0.2-0.2-0.3-0.3-0.5-0.5c0-0.6,0-1.3,0-1.9c-0.2-0.2-0.3-0.3-0.4-0.4c0-0.5,0-0.9,0-1.4
			c-0.2-0.2-0.3-0.4-0.5-0.5c0-0.3,0-0.6,0-0.8c-0.7-1.4-1.4-2.6-2-4c-1.4-1.4-3-3-4.5-4.5c-0.8-0.4-1.7-0.7-2.5-1.2
			c-0.7-0.4-1.5-0.6-2.2-1.1c-0.4-0.3-1.1,0.1-1.4-0.6c-0.5,0-0.9,0-1.4,0c-0.2-0.2-0.4-0.3-0.5-0.5c-1,0-1.9,0-2.9,0
			c-0.1-0.1-0.2-0.2-0.3-0.3c-2.7-0.2-60.7-0.3-92.8-0.1c-0.1,0.1-0.2,0.2-0.4,0.4c-0.7,0-1.4,0.2-2.1,0.6c-0.7,0.7-1.4,1.4-2.1,2.1
			c0,0.3,0,0.6,0,0.9c-0.2,0.2-0.3,0.4-0.5,0.6c0,10.7,0,21.4,0,32.1c0.1,0.1,0.3,0.3,0.5,0.5c0,0.5,0,0.9,0,1.4
			c0.2,0.2,0.3,0.4,0.5,0.5c0,0.3,0,0.6,0,1c0.8,0.4,0.2,1.3,0.8,1.8c0.4,0.3,0.4,1.2,0.7,1.6c0.5,0.5,0.7,1.2,1.2,1.7
			c0.5,0.4,0.5,1.1,1,1.5c0.5,0.5,1,1,1.5,1.5c0,0.2,0,0.3,0,0.5c6.3,6.3,12.6,12.6,18.8,18.8c0.8,0.8,1.5,1.5,2.1,2.5
			c0.6,0.9,1.5,1.6,2.3,2.4c0.7,0.7,1.5,1.5,2.2,2.2c0.8,0.8,1.6,1.6,2.4,2.4c0,0.2,0,0.3,0,0.5c0.4,0.4,0.8,0.8,1.2,1.1
			c0.4,0.3,0.2,0.9,0.7,1.2c0.6,0.3,0.5,0.9,0.8,1.3c0.3,0.4,0.5,0.9,0.7,1.4c0.1,0.4,0.7,0.7,0.5,1.2c0.6,0.3,0.2,1.1,0.5,1.4
			c0.4,0.4,0.2,0.9,0.4,1.3c0.2,0.5,0.5,0.9,0.4,1.5c0.2,0.2,0.3,0.3,0.5,0.5c0,0.5,0,0.9,0,1.4c0.2,0.2,0.3,0.4,0.5,0.5
			c0,0.8,0,1.6,0,2.4c0.1,0.1,0.2,0.2,0.4,0.4c0,23.4,0,46.8,0,70c-0.2,0.5-0.3,0.9-0.5,1.2c-0.5,0.5-0.4,1.4-1.2,1.6
			c-0.6,0.1-1,0.8-1.7,0.5c-0.1,0-0.4,0.2-0.6,0.4c-17.8,0-35.7,0-53.7,0c-0.1-0.1-0.3-0.2-0.5-0.4c-0.3,0-0.6,0-0.8,0
			c-0.8-0.8-1.5-1.5-2.3-2.3c0-0.2,0-0.5,0-0.8c-0.1-0.1-0.2-0.2-0.3-0.3c0-0.1-0.1-0.3-0.1-0.4c0-57.2,0-114.4,0-171.6
			c0.1-0.1,0.2-0.2,0.4-0.4c0-0.5,0-1,0-1.5c0.7-0.4,0.3-1.1,0.6-1.5c0.4-0.5,0.4-1.2,1-1.5c0.5-0.3,0.3-1,0.8-1.3
			c0.5-0.3,0.8-0.8,1.2-1.2c0.2,0,0.3,0,0.5,0c1-0.9,1-0.9,2.8-1.4c0.4-0.5,1.1-0.4,1.7-0.6c0.1,0,0.2-0.2,0.4-0.3
			c0.8,0,1.6,0,2.4,0c0.2-0.2,0.4-0.3,0.5-0.5c36.8,0,73.6,0,110.4,0c0.2,0.1,0.3,0.3,0.5,0.5c1.6,0,3.2,0,4.8,0
			c0.1,0.1,0.2,0.2,0.4,0.4c0.8,0,1.6,0,2.4,0c0.2,0.2,0.3,0.3,0.5,0.5c0.6,0,1.3,0,1.9,0c0.1,0.1,0.2,0.2,0.3,0.3
			c0.1,0.1,0.1,0.2,0.2,0.2c0.7-0.1,1.3,0.4,1.9,0.6c0.3,0.1,0.6,0,1,0c0.2,0.1,0.3,0.3,0.5,0.5c0.8-0.2,1.5,0.3,2.1,0.7
			c0.6,0.4,1.5-0.1,1.9,0.7c0.7,0.2,1.3,0.8,2,0.9c0.7,0.2,0.9,1.2,1.7,1c0.4,0.7,1.3,0.8,1.8,1.4c0.5,0.5,1,1,1.5,1.5
			c0.2,0,0.4,0,0.5,0c0.7,0.7,1.4,1.5,2.1,2.2C1236.9,166.9,1238.2,167.1,1238.6,168.3z"/>
		<path fill="#F4D575" d="M1358.6,258.7c0.1,0.2,0.3,0.3,0.5,0.5c0,0.3,0,0.6,0,0.9c0.2,0.2,0.3,0.4,0.5,0.5c0,0.3,0,0.6,0,0.9
			c0.2,0.2,0.3,0.4,0.5,0.5c0,0.4,0,0.8,0,1.3c0.1,0.1,0.2,0.3,0.5,0.6c0,0.7,0,1.6,0,2.3c0.2,0.2,0.3,0.3,0.5,0.5
			c0,23.3,0,46.7,0,70c-0.3,0.6-0.7,1.1-0.9,1.8c-0.2,0.5-0.5,0.8-0.9,1c-0.6,0.3-1.2,0.6-2,1c-17.8,0-35.9,0-54,0
			c-0.2-0.2-0.3-0.3-0.5-0.5c-0.3,0-0.6,0-0.9,0c-0.7-0.7-1.4-1.4-2.1-2.1c0-0.3-0.1-0.7-0.1-1.1c0-0.1-0.2-0.2-0.4-0.4
			c0-51.7,0-103.4,0-155c-0.2-0.2-0.3-0.3-0.5-0.5c0-0.4,0-0.9,0-1.2c-0.4-0.8-0.8-1.4-1.3-2.5c-0.5-0.5-1.4-1.4-2.3-2.2
			c-0.5-0.3-1.2-0.5-1.7-0.9c-0.5-0.4-1.3,0.1-1.7-0.7c-7,0-14.1,0-21.1,0c-0.2-0.2-0.4-0.3-0.5-0.5c-0.3,0-0.6,0-0.9,0
			c-0.2-0.2-0.4-0.3-0.5-0.5c-0.1,0-0.3,0-0.3,0c-0.6-0.6-1.2-1.2-1.8-1.7c0-0.3,0-0.7,0-1c-0.1-0.1-0.2-0.2-0.4-0.4
			c0-3.6,0-7.3,0-11c0.2-0.4,0.5-0.8,0.7-1.3c0.2-0.6,0.5-1.1,1-1.5c0.4-0.3,0.9-0.5,1.4-0.9c0.4,0,0.8,0,1.3,0
			c0.2-0.2,0.4-0.3,0.5-0.5c6.9,0,13.7,0,20.6,0c0.2-0.2,0.3-0.3,0.5-0.5c0.3,0,0.6,0,0.9,0c0.3-0.6,1-0.4,1.5-0.5
			c0.4-0.3,0.6-0.9,1.3-1c0.3,0,0.8-0.5,0.8-0.8c0-0.8,0.8-0.9,1-1.5c0.2-0.6,0.5-1.1,0.8-1.6c0-0.1,0.1-0.1,0.2-0.2
			c0-0.5,0-1,0-1.4c0.1-0.1,0.2-0.2,0.3-0.3c0-0.1,0.1-0.1,0.1-0.2c0-14.4,0-28.8,0-43c0.5-0.9,0.8-1.7,1.2-2.4
			c0.4-0.7,1.3-0.8,1.9-1.4c0.4,0,0.9,0,1.3,0c0.2-0.2,0.4-0.3,0.6-0.5c3.5,0,7,0,10.5,0c0.1,0.1,0.3,0.3,0.5,0.5c0.5,0,0.9,0,1.4,0
			c0.2,0.2,0.4,0.3,0.5,0.5c0.2,0,0.3,0,0.5,0c0.5,0.5,1,1,1.5,1.5c0.1,0.3,0.3,0.7,0.6,1.4c0,0.1,0,0.6,0.1,1.1
			c0.1,0.1,0.3,0.3,0.4,0.4c0,0.1,0.1,0.3,0.1,0.4c0,13.4,0,26.9,0,40.3c0,0.6-0.1,1.3,0,1.9c0.1,0.5,0.6,0.9,0.4,1.5
			c0.5,0.4,0.4,1.2,0.9,1.5c0.1,0,0,0.3,0,0.5c0.7,0.7,1.4,1.4,2,2c0.7,0.3,1.4,0.6,1.9,1c0.5,0.4,1.3-0.1,1.7,0.7
			c21.8,0,43.5,0,65.3,0c0.2,0.2,0.4,0.3,0.5,0.5c0.5,0,0.9,0,1.3,0c0.8,0.5,1.7,0.7,2.1,1.5c0.4,0.7,0.6,1.4,1.1,2.1
			c0,3.6,0,7.3,0,11.1c-0.5,0.3-0.4,0.8-0.4,1.1c-0.6,0.6-1.2,1.2-1.9,1.9c-0.4,0-0.9,0.9-1.7,0.5c-0.2,0.2-0.3,0.3-0.5,0.5
			c-21.7,0-43.5,0-65.2,0c-0.2,0.2-0.3,0.3-0.5,0.5c-0.5,0-1,0-1.4,0c-0.1,0.1-0.2,0.3-0.3,0.3c-0.5,0.3-1.1,0.5-1.7,0.7
			c-0.6,0.6-1.3,1.3-2,2c0,0.2,0,0.3-0.1,0.5c-0.2,0.5-0.5,0.9-0.8,1.4c0,0.1-0.1,0.1-0.2,0.2c0,0.3,0,0.6,0,0.9
			c-0.2,0.2-0.3,0.4-0.5,0.5c0,9.8,0,19.5,0,29.3c0.1,0.1,0.2,0.2,0.4,0.4c0,0.6,0,1.3,0,1.8c0.2,0.3,0.4,0.5,0.5,0.7
			c0.1,0.3,0,0.7,0.1,0.9c0.6,0.8,0.9,1.7,1.3,2.6c0.1,0.3,0.3,0.6,0.5,0.7c0.5,0.4,0.5,1.1,1,1.5c0.4,0.3,0.6,0.9,0.9,1.3
			c0.3,0.4,0.7,0.7,1,1c0.5,0.5,0.5,1.3,1.2,1.7c0.6,0.4,1,1,1.5,1.5c0.6,0.6,1.1,1.1,1.7,1.7c0.5,0.5,1,1,1.5,1.5
			c0.5,0.5,1,1,1.5,1.5c0.7,0.7,1.4,1.4,1.9,2.3c0.6,0.9,1.5,1.6,2.3,2.4c0.7,0.7,1.5,1.5,2.2,2.2c0.7,0.7,1.5,1.5,2.2,2.2
			c0.7,0.7,1.5,1.5,2.2,2.2c0.8,0.8,1.6,1.6,2.4,2.4c0.7,0.7,1.4,1.5,2.2,2.2c0.6,0.5,0.7,1.4,1.3,1.9c0.7,0.5,1.3,1.2,1.9,1.8
			c0.6,0.6,1.2,1.1,1.7,1.7c0.3,0.4,0.6,0.9,0.9,1.3c0.3,0.4,0.9,0.8,1,1.3c0.2,0.6,0.7,0.8,1,1.3c0,0.1,0,0.2,0,0.2
			c0.6,1.2,1.1,2.4,1.9,3.5c0,0.1,0,0.1,0,0.2C1358.6,258.2,1358.6,258.5,1358.6,258.7z"/>
	</g>
</g>
</svg>
