<svg fill="none" height="24" viewBox="0 0 64 64" width="24" xmlns="http://www.w3.org/2000/svg"><g fill="#6E6E6E"><path fill="#6E6E6E" d="m32 1.30005c-17 0-30.70001 13.69995-30.70001 30.69995s13.70001 30.8 30.70001 30.8 30.8-13.8 30.8-30.8-13.8-30.69995-30.8-30.69995zm0 57.99995c-15 0-27.20001-12.3-27.20001-27.3s12.20001-27.19995 27.20001-27.19995 27.3 12.19995 27.3 27.19995-12.3 27.3-27.3 27.3z"/><path d="m33.7 11.9c-2.9-.5-5.8.3-7.9 2.1-2.2 1.8-3.5 4.5-3.5 7.4 0 1.1.2 2.2.6 3.2.3.9 1.3 1.4001 2.2 1.1001s1.4-1.3001 1.1-2.2001c-.2-.7-.4-1.3-.4-2.1 0-1.8.8-3.5 2.2-4.7s3.2-1.7 5.1-1.3c2.5.4 4.5 2.5 4.9 4.9.5 2.9-1 5.7-3.7 6.8-2.5 1-4.1 3.5-4.1 6.4v6.4001c0 1 .8 1.8 1.8 1.8s1.8-.8 1.8-1.8v-6.4001c0-1.4.8-2.7 1.9-3.1 4.2-1.7 6.6-6.0999 5.8-10.6999-.7-3.9-3.9-7.1001-7.8-7.8001z"/><path d="m32.1 46.8h-.3c-1 0-1.8.8-1.8 1.8s.8 1.8001 1.8 1.8001h.3c1 0 1.8-.8001 1.8-1.8001s-.8-1.8-1.8-1.8z"/></g></svg>