<?xml version="1.0" encoding="utf-8"?>
<!-- Generator: Adobe Illustrator 28.3.0, SVG Export Plug-In . SVG Version: 6.00 Build 0)  -->
<svg version="1.1" id="Layer_1" xmlns="http://www.w3.org/2000/svg" xmlns:xlink="http://www.w3.org/1999/xlink" x="0px" y="0px" width="800px" height="800px"
	 viewBox="0 0 256 256" style="enable-background:new 0 0 256 256;" xml:space="preserve">
<style type="text/css">
	.st0{fill:none;stroke:#494949;stroke-miterlimit:10;}
	.st1{fill:#494949;}
</style>
<g>
	<g>
		<path class="st0" d="M128,238.13c-60.72,0-110.13-49.4-110.13-110.13S67.28,17.87,128,17.87S238.13,67.28,238.13,128
			S188.73,238.13,128,238.13z M128,26.87C72.24,26.87,26.87,72.24,26.87,128S72.24,229.13,128,229.13S229.13,183.76,229.13,128
			S183.76,26.87,128,26.87z"/>
	</g>
	<g>
		<path class="st1" d="M119.92,78.88c0-1.85,0.84-2.69,2.69-2.69h3.53c1.85,0,2.69,0.84,2.69,2.69v82.31
			c0,12.28-5.72,18.5-17.32,18.5H80.63c-11.6,0-17.32-6.22-17.32-18.5v-21.69c0-1.85,0.84-2.69,2.69-2.69h3.7
			c1.85,0,2.69,0.84,2.69,2.69v20.18c0,7.74,3.53,11.6,10.42,11.6h16.9c3.36,0,5.04-1.68,5.04-5.05v-20.27
			c0-7.23,1.18-10.42,4.03-14.46l8.25-13.28c3.03-4.37,2.87-7.4,2.87-15.47V78.88z"/>
		<path class="st1" d="M139.77,107.22c0-3.87,2.02-5.72,6.05-5.72h29.88c11.27,0,16.98,5.38,16.98,16.14v10.76
			c0,1.85-0.84,2.69-2.69,2.69h-3.36c-1.85,0-2.69-0.84-2.69-2.69v-9.42c0-6.39-3.36-9.58-10.26-9.58h-21.81
			c-2.19,0-3.36,1.01-3.36,3.03v10.26c0,3.53,0.01,5.38,2.36,7.9l8.09,10.26c2.69,2.86,3.87,5.88,3.87,11.1v25.22
			c0,1.68-0.84,2.52-2.69,2.52h-17.68c-1.85,0-2.69-0.84-2.69-2.52V107.22z"/>
	</g>
</g>
</svg>
