<?xml version="1.0" encoding="utf-8"?>
<!-- Generator: Adobe Illustrator 28.3.0, SVG Export Plug-In . SVG Version: 6.00 Build 0)  -->
<svg version="1.1" xmlns="http://www.w3.org/2000/svg" xmlns:xlink="http://www.w3.org/1999/xlink" x="0px" y="0px"
	width="335.04px" height="93.12px" viewBox="0 0 246 46" style="enable-background:new 0 0 246 46;" xml:space="preserve">
<style type="text/css">
	.st0{display:none;}
	.st1{display:inline;}
	.st2{fill:#98AF43;}
	.st3{fill:#E5AD3C;}
	.st4{fill:#01598C;}
	.st5{fill:#DD7A00;}
	.st6{fill:#61388E;}
</style>
<g id="Evie" class="st0">
	<g class="st1">
		<path class="st2" d="M127.87,13.45h-6.19v1.03c-0.03,0.55,0.12,1.3,0.89,1.95c-0.01,3.24-0.27,6.41-0.77,9.42
			c-0.96,5.67-2.31,6.52-3.03,6.52c-0.71,0-1.4-1.27-1.89-3.48c-0.24-1.08-0.58-3.76-1.03-7.96c-0.53-4.48-1.06-5.73-1.4-6.28
			l-0.41-0.64l-4.08,3.48l0.42,0.51c0.51,0.62,1.25,2.21,1.83,6.23c0.57,4.12,1.07,6.74,1.55,8.01c1.04,2.82,2.87,4.25,5.43,4.25
			c2.89,0,4.94-2.71,6.09-8.04l0.01-0.04c0.55-3.47,1.12-7.01,1.71-10.51l0.55-1.45c0.32-0.84,0.46-1.38,0.46-1.75
			c0-0.08-0.01-0.22-0.06-0.65L127.87,13.45z"/>
		<path class="st2" d="M134.46,11.11c2.77,0,3.18-1.73,3.18-2.77c0-0.77-0.27-1.44-0.79-1.98c-0.53-0.55-1.2-0.83-1.98-0.83
			c-0.8,0-1.49,0.27-2.03,0.79c-0.55,0.53-0.83,1.21-0.83,2.03c0,0.6,0.22,1.2,0.65,1.79C133.26,10.94,133.97,11.11,134.46,11.11z"
			/>
		<path class="st2" d="M132.01,13.5v0.68c0,0.62,0.18,1.32,0.53,2.07c0.37,0.79,0.4,1.1,0.4,1.17v15.17
			c-0.02,0.06-0.04,0.11-0.06,0.16c-0.06,0.18-0.16,0.44-0.28,0.8c-0.53,1.5-0.59,2.07-0.59,2.37v0.68h4.58
			c0.28,0,0.55-0.02,0.79-0.06l0.57-0.09v-0.58c0-0.74-0.2-1.48-0.61-2.21c-0.37-0.66-0.43-0.89-0.44-0.94V17.49
			c0.08-0.45,0.15-0.62,0.17-0.67c0.58-0.65,0.87-1.51,0.87-2.58v-0.66l-2.51-0.07L132.01,13.5z"/>
		<path class="st2" d="M158.99,29.1c-0.73-1.46-1.63-2.44-2.67-2.92l-0.3-0.14l-0.74,0.37l-0.09,0.25c-0.5,1.33-1.01,2.69-1.54,4.04
			c-0.61,0.91-1.69,1.35-3.3,1.35c-0.78,0-1.53-0.24-2.29-0.73c-0.55-0.35-0.91-0.75-1.09-1.22c5.04-3.38,8.92-5.95,11.52-7.65
			l0.33-0.22l-0.02-0.39c-0.11-1.96-1.02-3.86-2.68-5.66c-1.69-1.82-3.54-2.75-5.5-2.75c-3.09,0-5.44,1.3-6.99,3.87
			c-1.24,2.01-1.87,4.64-1.87,7.81c0,3.69,0.72,6.53,2.13,8.42c1.46,1.95,3.65,2.94,6.53,2.94c1.67,0,3.52-0.75,5.49-2.22
			c2.02-1.51,3.08-3.14,3.16-4.84l0.01-0.18L158.99,29.1z M149.57,17.31c1.08,0,2.07,0.35,3.03,1.06l0.02,0.01
			c0.95,0.65,1.48,1.37,1.61,2.2c-3.66,2.42-6.55,4.32-8.62,5.66c-0.08-0.25-0.16-0.71-0.16-1.56c0-1.66,0.35-3.27,1.03-4.76
			C147.31,18.17,148.32,17.31,149.57,17.31z"/>
		<path class="st2" d="M107.74,29.91c-0.52,0.41-0.9,0.75-1.14,1.02c-0.3,0.3-0.6,0.58-0.9,0.84c-0.44,0.35-0.85,0.52-1.25,0.52
			H92.34c-0.16,0-0.48,0-0.48-1.11V25c0-0.29,0.24-1.11,2.46-2.36c1.63-0.89,2.91-1.34,3.82-1.34c0.51,0,0.69,0.12,0.74,0.17
			l0.01,0.01c0.56,0.53,0.86,0.81,0.9,0.84l0.27,0.25l0.36-0.08c0.85-0.19,1.02-1.33,1.02-3.11c0-2.41-0.19-3.71-1.22-3.71
			c-0.53,0-1.56,0.17-4.37,1.64c-2.62,1.38-3.31,1.48-3.46,1.48c-0.46,0-0.53-0.96-0.53-1.53V8.96c0-0.47,0.09-0.47,0.21-0.47h10.94
			c0.75,0,1.3,0.14,1.62,0.41c1.09,0.94,1.47,1.19,1.65,1.3l0.63,0.36l0.49-0.98l-0.05-0.24c-0.33-1.47-0.66-2.54-1.01-3.28
			l-0.85-1.71l-0.37-0.04c-1.47-0.18-5.03-0.27-6.95-0.27c-1.14,0-3.69,0.03-5.81,0.11c-2.15,0.07-3.75,0.11-4.74,0.11h-0.69v0.69
			c0,0.52,0.18,0.96,0.52,1.26c0.31,1.01,0.38,1.54,0.38,1.81v24.77c0,0.14-0.05,0.49-0.39,1.22c-0.35,0.75-0.51,1.34-0.51,1.8v0.69
			h19.82l0.19-0.4c1.75-3.74,1.97-4.83,1.97-5.37v-0.07l-0.29-1.43L107.74,29.91z"/>
	</g>
</g>
<g id="Marvin" class="st0">
	<g class="st1">
		<g>
			<path class="st3" d="M62.76,35.76c0,0.58-0.26,0.84-0.84,0.84h-1.1c-0.58,0-0.84-0.26-0.84-0.84V8.22c0-1.05-0.47-1.57-1.47-1.57
				h-8.67c-2.2,0-3.29,1.2-3.29,3.66v1.99c0,2.51,0.58,3.45,1.52,4.81l2.88,4.13c0.84,1.26,1.26,2.25,1.26,4.5v10.02
				c0,0.58-0.26,0.84-0.84,0.84h-6.75c-0.58,0-0.84-0.26-0.84-0.84V9.79c0-3.82,1.78-5.75,5.39-5.75h22.89
				c3.61,0,5.39,1.94,5.39,5.75v25.97c0,0.58-0.26,0.84-0.84,0.84h-1.15c-0.58,0-0.84-0.26-0.84-0.84V10.31
				c0-2.46-1.1-3.66-3.24-3.66h-7.15c-0.99,0-1.47,0.52-1.47,1.57V35.76z"/>
			<path class="st3" d="M102.34,17.71c0-1.99-1.05-2.98-3.19-2.98H88.63c-2.09,0-3.14,0.99-3.14,2.98v2.25
				c0,0.58-0.26,0.84-0.84,0.84h-1.05c-0.58,0-0.84-0.26-0.84-0.84V17.3c0-3.35,1.73-5.02,5.18-5.02h11.77
				c3.56,0,5.34,1.67,5.34,5.02v15.9c0,2.25-1.1,3.4-3.3,3.4h-13.7c-3.5,0-5.28-1.67-5.28-5.02V27.7c0-3.35,1.78-5.02,5.28-5.02
				h12.71c1.05,0,1.57-0.52,1.57-1.57V17.71z M88.69,24.93c-2.14,0-3.19,0.99-3.19,3.03v3.19c0,1.99,1.05,2.98,3.19,2.98h6.8
				c1.05,0,1.57-0.52,1.57-1.57V26.5c0-1.05-0.52-1.57-1.57-1.57H88.69z"/>
			<path class="st3" d="M111.58,14.05c0-1.2,0.63-1.78,1.88-1.78h13.65c3.5,0,5.28,1.67,5.28,5.02v3.35c0,0.58-0.26,0.84-0.84,0.84
				h-1.05c-0.58,0-0.84-0.26-0.84-0.84v-2.93c0-1.99-1.05-2.98-3.19-2.98h-11.14c-0.68,0-1.05,0.31-1.05,0.94v3.19
				c0,1.1,0.31,1.67,1.05,2.46l3.14,3.19c0.84,0.89,1.2,1.83,1.2,3.45v7.85c0,0.52-0.26,0.78-0.84,0.78h-6.43
				c-0.58,0-0.84-0.26-0.84-0.78V14.05z"/>
			<path class="st3" d="M146.44,36.6c-1.41,0-2.46-0.58-3.09-1.67l-4.6-7.79c-0.84-1.41-1.26-2.88-1.26-4.34v-9.73
				c0-0.52,0.26-0.78,0.78-0.78h1.1c0.58,0,0.84,0.26,0.84,0.78v2.93c0,1.26,0.1,1.83,0.89,2.67l2.98,3.4
				c0.84,0.94,1.05,2.04,1.05,3.71v5.6c0,1.31,0.68,2.25,2.09,2.25H150c0.84,0,1.46-0.31,1.83-0.99l4.03-7.11
				c0.58-0.99,0.89-2.09,0.89-3.24v-9.21c0-0.52,0.26-0.78,0.84-0.78h1.05c0.58,0,0.84,0.26,0.84,0.78v9.73
				c0,1.46-0.42,2.93-1.26,4.34l-4.6,7.79c-0.68,1.1-1.67,1.67-3.09,1.67H146.44z"/>
			<path class="st3" d="M169.49,4.06c0.58,0,0.84,0.31,0.84,0.94v5.91c0,0.58-0.26,0.84-0.84,0.84h-2.93
				c-0.58,0-0.84-0.26-0.84-0.84V5c0-0.63,0.26-0.94,0.84-0.94H169.49z M165.72,15.87c0-0.52,0.26-0.78,0.84-0.78h1.05
				c0.58,0,0.84,0.26,0.84,0.78v5.81c0,1.1,0.31,1.67,1.05,2.46l3.14,3.19c0.84,0.89,1.2,1.83,1.2,3.45v5.03
				c0,0.52-0.26,0.78-0.84,0.78h-6.43c-0.58,0-0.84-0.26-0.84-0.78V15.87z"/>
			<path class="st3" d="M179.94,14.05c0-1.2,0.63-1.78,1.88-1.78h15.12c3.5,0,5.28,1.67,5.28,5.02v18.52c0,0.52-0.26,0.78-0.78,0.78
				h-1.1c-0.58,0-0.84-0.26-0.84-0.78v-18.1c0-1.99-1.05-2.98-3.19-2.98H183.7c-0.68,0-1.05,0.31-1.05,0.94v3.19
				c0,1.1,0.31,1.67,1.05,2.46l3.14,3.19c0.84,0.89,1.2,1.83,1.2,3.45v7.85c0,0.52-0.26,0.78-0.84,0.78h-6.43
				c-0.58,0-0.84-0.26-0.84-0.78V14.05z"/>
		</g>
	</g>
</g>
<g id="Willoughby" class="st0">
	<g class="st1">
		<path class="st4" d="M20.34,36.6l-4.27-28c-0.14-0.8-0.38-1.37-0.75-1.72c-0.36-0.35-0.91-0.59-1.63-0.72V4.03h9.67v2.12
			c-0.86,0.1-1.47,0.3-1.84,0.6c-0.36,0.3-0.55,0.76-0.55,1.36c0,0.16,0.01,0.38,0.02,0.67c0.01,0.29,0.04,0.54,0.08,0.77
			l2.67,17.29l4.13-22.81h3.81l3.84,22.81l2.95-17.15c0.11-0.54,0.17-0.97,0.17-1.29c0-0.64-0.19-1.12-0.58-1.43
			c-0.39-0.32-0.87-0.63-1.85-0.7V4.03h7.51v2.24c-0.82,0.13-1.29,0.52-1.69,0.91c-0.4,0.4-0.69,1.01-0.87,1.84L35.95,36.6h-3.78
			L28.3,13.58L24.26,36.6H20.34z"/>
		<path class="st4" d="M45.83,6.27V4.03h9.88v2.24h-0.37c-1.45,0-2.17,0.97-2.17,2.94v21.97c0,1.97,0.72,2.96,2.17,2.96h0.37v2.29
			h-9.88v-2.29h0.37c1.47,0,2.21-0.99,2.21-2.96V9.21c0-1.97-0.74-2.94-2.21-2.94H45.83z"/>
		<path class="st4" d="M75.48,25.88v10.56H58.36v-2.29h0.31c1.5,0,2.06-0.99,2.06-2.96V9.21c0-1.97-0.75-2.94-2.24-2.94h-0.12V4.03
			h9.95v2.24h-0.37c-1.47,0-2.21,0.97-2.21,2.94v23.74c0,0.57,0.23,0.86,0.68,0.86h2.11c1.25,0,2.23-0.65,2.96-1.96
			c0.72-1.3,1.11-3.3,1.16-5.97H75.48z"/>
		<path class="st4" d="M95.24,25.88v10.56H78.12v-2.29h0.31c1.5,0,2.06-0.99,2.06-2.96V9.21c0-1.97-0.75-2.94-2.24-2.94h-0.12V4.03
			h9.95v2.24h-0.37c-1.47,0-2.21,0.97-2.21,2.94v23.74c0,0.57,0.23,0.86,0.68,0.86h2.11c1.25,0,2.23-0.65,2.96-1.96
			c0.72-1.3,1.11-3.3,1.16-5.97H95.24z"/>
		<path class="st4" d="M108.53,37.15c-3.49,0-6.07-1.24-7.75-3.72c-0.47-0.67-0.87-1.43-1.2-2.27c-0.33-0.84-0.6-1.79-0.81-2.84
			s-0.37-2.24-0.46-3.58c-0.1-1.34-0.14-2.85-0.14-4.54c0-1.66,0.05-3.14,0.14-4.44c0.1-1.31,0.24-2.46,0.45-3.49
			c0.2-1.02,0.47-1.93,0.8-2.74c0.33-0.81,0.73-1.57,1.2-2.27c0.89-1.34,1.99-2.35,3.29-3.03c1.3-0.68,2.8-1.03,4.5-1.03
			c3.44,0,6.02,1.26,7.72,3.77c0.47,0.67,0.87,1.42,1.21,2.25c0.34,0.83,0.62,1.78,0.83,2.84c0.21,1.07,0.37,2.26,0.46,3.58
			c0.1,1.32,0.14,2.83,0.14,4.51s-0.04,3.18-0.13,4.47c-0.09,1.29-0.23,2.45-0.43,3.49c-0.2,1.03-0.47,1.96-0.8,2.77
			c-0.33,0.81-0.73,1.57-1.2,2.27C114.51,35.82,111.91,37.15,108.53,37.15z M108.5,34.53c2.51,0,4.01-1.97,4.5-5.92
			c0.06-0.54,0.12-1.07,0.16-1.58c0.04-0.51,0.07-1.08,0.08-1.72c0.01-0.64,0.02-1.39,0.03-2.27c0.01-0.87,0.02-1.97,0.02-3.27
			c0-1.75-0.02-3.22-0.05-4.42c-0.03-1.19-0.09-2.2-0.16-3.01c-0.08-0.81-0.18-1.5-0.3-2.06c-0.13-0.56-0.3-1.1-0.51-1.65
			c-0.38-0.95-0.89-1.66-1.51-2.12c-0.63-0.46-1.36-0.7-2.19-0.7c-1.23,0-2.23,0.48-3,1.43s-1.27,2.42-1.5,4.4
			c-0.06,0.54-0.12,1.07-0.16,1.6s-0.07,1.12-0.08,1.77c-0.01,0.65-0.02,1.43-0.03,2.32s-0.02,1.97-0.02,3.25
			c0,1.78,0.02,3.26,0.05,4.42c0.03,1.16,0.09,2.15,0.18,2.96c0.08,0.81,0.2,1.5,0.35,2.08c0.15,0.58,0.33,1.13,0.54,1.67
			c0.34,0.83,0.82,1.51,1.44,2.03S107.67,34.53,108.5,34.53z"/>
		<path class="st4" d="M121.92,6.27V4.03h10.09v2.24h-0.34c-1.47,0-2.21,0.97-2.21,2.94V27.6c0,2.26,0.37,3.98,1.1,5.16
			c0.73,1.18,1.36,1.76,2.74,1.76c1.4,0,2.26-0.61,3.07-1.84c0.81-1.22,1.22-2.9,1.22-5.04V9.21c0-1.97-0.95-2.94-2.43-2.94h-0.45
			V4.03h8.12v2.24h-0.48c-1.47,0-2.19,0.97-2.19,2.94v19.2c0,1.53-0.06,2.93-0.56,4.23c-0.5,1.29-1.15,2.25-1.94,2.89
			c-0.73,0.57-1.27,0.98-2.19,1.24c-0.92,0.25-1.42,0.49-2.76,0.49c-2.95,0-5.09-0.77-6.43-2.32c-1.34-1.54-1.9-3.79-1.9-6.53V9.21
			c0-1.97-0.6-2.94-2.1-2.94H121.92z"/>
		<path class="st4" d="M163.65,3.95v10.93h-2.89c-0.06-3.17-0.47-5.08-1.24-6.51c-0.76-1.42-1.84-2.14-3.23-2.14
			c-0.93,0-1.7,0.27-2.31,0.81c-0.61,0.54-1.1,1.33-1.46,2.38c-0.36,1.05-0.61,2.35-0.75,3.92c-0.14,1.57-0.21,3.37-0.21,5.4
			c0,2.35,0.02,4.29,0.06,5.83c0.04,1.54,0.13,2.96,0.25,4.26c0.19,1.84,0.67,3.3,1.44,4.38c0.77,1.08,1.73,1.61,2.87,1.61
			c0.87,0,1.54-0.25,2.03-0.76c0.49-0.51,0.73-1.22,0.73-2.14v-3.47c0-2.03-0.7-3.05-2.09-3.05h-0.35v-2.28h9.83v2.28h-0.32
			c-1.37,0-2.06,1.02-2.06,3.05v7.51h-0.51c-0.25,0-0.56,0.04-0.94,0.12c-0.37,0.08-0.93,0.25-1.67,0.5
			c-0.59,0.19-1.11,0.34-1.54,0.45c-0.43,0.11-0.83,0.2-1.17,0.26c-0.35,0.07-0.68,0.1-0.99,0.12s-0.63,0.02-0.97,0.02
			c-1.61,0-3.06-0.33-4.37-0.98c-1.3-0.65-2.38-1.59-3.22-2.83c-1.06-1.55-1.75-3.43-2.08-5.64c-0.33-2.2-0.49-4.71-0.49-7.54
			c0-2.22,0.1-4.07,0.29-5.54c0.19-1.47,0.46-2.81,0.82-4.02c1.37-4.85,4.36-7.28,8.97-7.28c0.97,0,1.82,0.12,2.54,0.36
			c0.72,0.24,1.41,0.63,2.09,1.17l0.86-1.19H163.65z"/>
		<path class="st4" d="M178.7,34.14v2.29h-10.06v-2.29h0.37c1.47,0,2.21-0.99,2.21-2.96V9.21c0-1.97-0.74-2.94-2.21-2.94h-0.37V4.03
			h10.06v2.24h-0.37c-1.47,0-2.21,0.97-2.21,2.94V17c0,0.6,0.22,0.91,0.67,0.91h4.64c0.2,0,0.37-0.08,0.5-0.24
			c0.13-0.16,0.2-0.38,0.2-0.67V9.21c0-1.97-0.75-2.94-2.24-2.94h-0.37V4.03h10.26v2.24h-0.34c-1.47,0-2.21,0.97-2.21,2.94v21.97
			c0,1.97,0.55,2.96,2.03,2.96h0.34v2.29h-10.07v-2.29h0.37c1.5,0,2.24-0.99,2.24-2.96v-9.69c0-0.26-0.07-0.48-0.2-0.67
			c-0.14-0.19-0.3-0.29-0.5-0.29h-4.64c-0.18,0-0.34,0.09-0.47,0.26c-0.13,0.17-0.2,0.39-0.2,0.65v9.74c0,1.97,0.74,2.96,2.21,2.96
			H178.7z"/>
		<path class="st4" d="M203.72,4.03c1.68,0,3,0.63,3.98,2.03c0.97,1.4,1.46,3.31,1.46,5.73c0,2.07-0.37,3.79-1.11,5.16
			c-0.74,1.37-1.81,2.13-3.21,2.29c3.72,0.32,5.57,3.04,5.57,8.17c0,2.8-0.6,5.01-1.8,6.61c-1.2,1.61-2.83,2.41-4.9,2.41h-11.35
			v-2.29h0.37c1.47,0,2.21-0.99,2.21-2.96V9.26c0-2.01-0.74-2.99-2.21-2.99h-0.37V4.03H203.72z M203.71,12
			c0-1.98-0.18-3.38-0.53-4.19s-0.95-1.22-1.78-1.22h-1c-0.43,0-0.65,0.26-0.65,0.77v9.74c0,0.54,0.21,0.82,0.65,0.82h1
			c0.79,0,1.38-0.48,1.75-1.44C203.52,15.51,203.71,14.02,203.71,12z M204.76,26.98c0-4.3-0.9-6.45-2.69-6.45h-1.42
			c-0.18,0-0.33,0.09-0.46,0.26c-0.12,0.17-0.19,0.39-0.19,0.65V33c0,0.23,0.06,0.42,0.17,0.58c0.11,0.16,0.26,0.24,0.44,0.24h1.46
			C203.86,33.81,204.76,31.54,204.76,26.98z"/>
		<path class="st4" d="M223.64,19.34l3.02-10.35c0.11-0.38,0.17-0.73,0.17-1.05c0-1.02-0.54-1.56-1.63-1.66V4.03h7.12v2.24
			c-0.77,0.06-1.18,0.27-1.68,0.67c-0.5,0.4-0.91,1.03-1.22,1.89l-4.47,13.58v8.76c0,1.98,0.74,2.97,2.21,2.97h0.35v2.29h-10.68
			v-2.29h0.68c1.5,0,2.24-0.99,2.24-2.97v-8.76l-4.72-13.68c-0.36-0.93-0.75-1.57-1.17-1.94c-0.42-0.37-0.99-0.53-1.72-0.53V4.03
			h9.56v2.24c-1.09,0.06-1.64,0.54-1.64,1.46c0,0.35,0.07,0.74,0.2,1.15L223.64,19.34z"/>
	</g>
</g>
<g id="Marvin_Jr">
	<g>
		<path class="st5" d="M22.92,35.76c0,0.58-0.26,0.84-0.84,0.84h-1.1c-0.58,0-0.84-0.26-0.84-0.84V8.22c0-1.05-0.47-1.57-1.47-1.57
			h-8.67c-2.2,0-3.29,1.2-3.29,3.66v1.99c0,2.51,0.58,3.45,1.52,4.81l2.88,4.13c0.84,1.26,1.26,2.25,1.26,4.5v10.02
			c0,0.58-0.26,0.84-0.84,0.84H4.78c-0.58,0-0.84-0.26-0.84-0.84V9.79c0-3.82,1.78-5.75,5.39-5.75h22.89c3.61,0,5.39,1.94,5.39,5.75
			v25.97c0,0.58-0.26,0.84-0.84,0.84h-1.15c-0.58,0-0.84-0.26-0.84-0.84V10.31c0-2.46-1.1-3.66-3.24-3.66h-7.15
			c-0.99,0-1.47,0.52-1.47,1.57V35.76z"/>
		<path class="st5" d="M62.5,17.71c0-1.99-1.05-2.98-3.19-2.98H48.8c-2.09,0-3.14,0.99-3.14,2.98v2.25c0,0.58-0.26,0.84-0.84,0.84
			h-1.05c-0.58,0-0.84-0.26-0.84-0.84V17.3c0-3.35,1.73-5.02,5.18-5.02h11.77c3.56,0,5.34,1.67,5.34,5.02v15.9
			c0,2.25-1.1,3.4-3.3,3.4h-13.7c-3.5,0-5.28-1.67-5.28-5.02V27.7c0-3.35,1.78-5.02,5.28-5.02h12.71c1.05,0,1.57-0.52,1.57-1.57
			V17.71z M48.85,24.93c-2.14,0-3.19,0.99-3.19,3.03v3.19c0,1.99,1.05,2.98,3.19,2.98h6.8c1.05,0,1.57-0.52,1.57-1.57V26.5
			c0-1.05-0.52-1.57-1.57-1.57H48.85z"/>
		<path class="st5" d="M71.75,14.05c0-1.2,0.63-1.78,1.88-1.78h13.65c3.5,0,5.28,1.67,5.28,5.02v3.35c0,0.58-0.26,0.84-0.84,0.84
			h-1.05c-0.58,0-0.84-0.26-0.84-0.84v-2.93c0-1.99-1.05-2.98-3.19-2.98H75.51c-0.68,0-1.05,0.31-1.05,0.94v3.19
			c0,1.1,0.31,1.67,1.05,2.46l3.14,3.19c0.84,0.89,1.2,1.83,1.2,3.45v7.85c0,0.52-0.26,0.78-0.84,0.78h-6.43
			c-0.58,0-0.84-0.26-0.84-0.78V14.05z"/>
		<path class="st5" d="M106.61,36.6c-1.41,0-2.46-0.58-3.09-1.67l-4.6-7.79c-0.84-1.41-1.26-2.88-1.26-4.34v-9.73
			c0-0.52,0.26-0.78,0.78-0.78h1.1c0.58,0,0.84,0.26,0.84,0.78v2.93c0,1.26,0.1,1.83,0.89,2.67l2.98,3.4
			c0.84,0.94,1.05,2.04,1.05,3.71v5.6c0,1.31,0.68,2.25,2.09,2.25h2.77c0.84,0,1.46-0.31,1.83-0.99l4.03-7.11
			c0.58-0.99,0.89-2.09,0.89-3.24v-9.21c0-0.52,0.26-0.78,0.84-0.78h1.05c0.58,0,0.84,0.26,0.84,0.78v9.73
			c0,1.46-0.42,2.93-1.26,4.34l-4.6,7.79c-0.68,1.1-1.67,1.67-3.09,1.67H106.61z"/>
		<path class="st5" d="M129.65,4.06c0.58,0,0.84,0.31,0.84,0.94v5.91c0,0.58-0.26,0.84-0.84,0.84h-2.93c-0.58,0-0.84-0.26-0.84-0.84
			V5c0-0.63,0.26-0.94,0.84-0.94H129.65z M125.88,15.87c0-0.52,0.26-0.78,0.84-0.78h1.05c0.58,0,0.84,0.26,0.84,0.78v5.81
			c0,1.1,0.31,1.67,1.05,2.46l3.14,3.19c0.84,0.89,1.2,1.83,1.2,3.45v5.03c0,0.52-0.26,0.78-0.84,0.78h-6.43
			c-0.58,0-0.84-0.26-0.84-0.78V15.87z"/>
		<path class="st5" d="M140.1,14.05c0-1.2,0.63-1.78,1.88-1.78h15.12c3.5,0,5.28,1.67,5.28,5.02v18.52c0,0.52-0.26,0.78-0.78,0.78
			h-1.1c-0.58,0-0.84-0.26-0.84-0.78v-18.1c0-1.99-1.05-2.98-3.19-2.98h-12.61c-0.68,0-1.05,0.31-1.05,0.94v3.19
			c0,1.1,0.31,1.67,1.05,2.46l3.14,3.19c0.84,0.89,1.2,1.83,1.2,3.45v7.85c0,0.52-0.26,0.78-0.84,0.78h-6.43
			c-0.58,0-0.84-0.26-0.84-0.78V14.05z"/>
		<path class="st5" d="M207,4.88c0-0.58,0.26-0.85,0.85-0.85h1.11c0.58,0,0.85,0.26,0.85,0.85v25.89c0,3.86-1.8,5.82-5.45,5.82
			h-13.81c-3.65,0-5.45-1.96-5.45-5.82v-6.82c0-0.58,0.26-0.85,0.85-0.85h1.16c0.58,0,0.85,0.26,0.85,0.85v6.35
			c0,2.43,1.11,3.65,3.28,3.65h8.46c1.06,0,1.59-0.53,1.59-1.59v-6.38c0-2.27,0.37-3.28,1.27-4.55l2.91-4.18
			c0.95-1.38,1.53-2.33,1.53-4.87V4.88z"/>
		<path class="st5" d="M216.72,13.8c0-1.22,0.64-1.8,1.9-1.8h13.81c3.54,0,5.34,1.69,5.34,5.08v3.39c0,0.58-0.26,0.85-0.85,0.85
			h-1.06c-0.58,0-0.85-0.26-0.85-0.85V17.5c0-2.01-1.06-3.02-3.23-3.02h-11.27c-0.69,0-1.06,0.32-1.06,0.95v3.23
			c0,1.11,0.32,1.69,1.06,2.49l3.17,3.23c0.85,0.9,1.22,1.85,1.22,3.49v7.93c0,0.53-0.26,0.79-0.85,0.79h-6.51
			c-0.58,0-0.85-0.26-0.85-0.79V13.8z"/>
		<path class="st5" d="M241.21,27.6c0.58,0,0.85,0.32,0.85,0.95v7.19c0,0.58-0.26,0.85-0.85,0.85h-3.23c-0.58,0-0.85-0.26-0.85-0.85
			v-7.19c0-0.64,0.26-0.95,0.85-0.95H241.21z"/>
	</g>
</g>
<g id="FAQ" class="st0">
	<g class="st1">
		<path class="st6" d="M91.76,3.97v4.81h-14.4v9.61h12.15v4.83H77.37v13.23h-6.09V3.97H91.76z"/>
		<path class="st6" d="M121.74,36.45h-4.67c-0.52,0-0.95-0.13-1.29-0.39c-0.34-0.26-0.58-0.59-0.73-0.98l-2.43-6.63H99.17
			l-2.43,6.63c-0.12,0.34-0.36,0.66-0.71,0.94c-0.35,0.28-0.78,0.43-1.29,0.43h-4.69l12.76-32.47h6.18L121.74,36.45z M100.72,24.19
			h10.35l-3.95-10.8c-0.18-0.48-0.38-1.04-0.59-1.7c-0.22-0.65-0.43-1.36-0.64-2.12c-0.21,0.76-0.42,1.47-0.62,2.13
			c-0.2,0.66-0.4,1.24-0.59,1.73L100.72,24.19z"/>
		<path class="st6" d="M155.09,20.21c0,1.45-0.15,2.84-0.45,4.17c-0.3,1.33-0.73,2.56-1.29,3.72c-0.56,1.15-1.25,2.21-2.05,3.18
			c-0.81,0.97-1.73,1.82-2.76,2.55l8.24,8.98h-4.99c-0.72,0-1.37-0.1-1.94-0.29c-0.58-0.19-1.1-0.55-1.58-1.08l-4.76-5.25
			c-0.76,0.21-1.55,0.37-2.35,0.47c-0.8,0.1-1.64,0.16-2.5,0.16c-2.46,0-4.7-0.42-6.73-1.25c-2.03-0.83-3.77-1.99-5.21-3.47
			c-1.44-1.48-2.56-3.24-3.36-5.27c-0.79-2.03-1.19-4.23-1.19-6.61c0-2.38,0.4-4.58,1.19-6.61c0.79-2.03,1.91-3.78,3.36-5.27
			c1.44-1.48,3.18-2.64,5.21-3.47c2.03-0.83,4.27-1.25,6.73-1.25c2.46,0,4.69,0.42,6.72,1.26c2.02,0.84,3.75,1.99,5.19,3.47
			c1.44,1.47,2.55,3.23,3.35,5.26C154.7,15.63,155.09,17.83,155.09,20.21z M148.89,20.21c0-1.78-0.24-3.38-0.71-4.79
			c-0.47-1.41-1.15-2.62-2.03-3.6c-0.88-0.99-1.96-1.74-3.22-2.27c-1.27-0.52-2.69-0.79-4.28-0.79s-3.02,0.26-4.29,0.79
			c-1.27,0.52-2.35,1.28-3.25,2.27c-0.89,0.99-1.58,2.19-2.05,3.6c-0.48,1.42-0.72,3.01-0.72,4.79c0,1.78,0.24,3.38,0.72,4.8
			c0.48,1.41,1.16,2.61,2.05,3.59c0.89,0.98,1.97,1.73,3.25,2.26c1.27,0.52,2.7,0.79,4.29,0.79s3.01-0.26,4.28-0.79
			c1.26-0.52,2.34-1.28,3.22-2.26c0.88-0.98,1.56-2.18,2.03-3.59C148.66,23.59,148.89,21.99,148.89,20.21z"/>
		<path class="st6" d="M173.22,17.9c-0.15,0.24-0.31,0.41-0.47,0.51c-0.16,0.1-0.37,0.15-0.63,0.15c-0.27,0-0.56-0.08-0.86-0.22
			c-0.31-0.15-0.66-0.32-1.07-0.51c-0.4-0.19-0.86-0.36-1.38-0.51c-0.52-0.15-1.13-0.22-1.83-0.22c-1.09,0-1.95,0.23-2.58,0.7
			c-0.63,0.46-0.94,1.07-0.94,1.82c0,0.49,0.16,0.91,0.48,1.25c0.32,0.34,0.75,0.63,1.28,0.89c0.53,0.25,1.13,0.48,1.81,0.69
			c0.67,0.2,1.36,0.42,2.07,0.66c0.7,0.24,1.39,0.51,2.07,0.82c0.67,0.31,1.28,0.7,1.81,1.17c0.53,0.47,0.96,1.04,1.28,1.7
			c0.32,0.66,0.48,1.45,0.48,2.38c0,1.11-0.2,2.13-0.61,3.07c-0.4,0.94-1,1.74-1.77,2.42c-0.78,0.68-1.74,1.21-2.89,1.6
			c-1.15,0.38-2.46,0.57-3.94,0.57c-0.79,0-1.57-0.07-2.32-0.21c-0.76-0.14-1.48-0.34-2.18-0.6c-0.7-0.25-1.34-0.55-1.93-0.9
			c-0.59-0.34-1.11-0.72-1.56-1.12l1.28-2.11c0.16-0.25,0.36-0.45,0.58-0.58s0.51-0.2,0.85-0.2s0.67,0.1,0.98,0.29
			c0.31,0.19,0.66,0.4,1.07,0.63c0.4,0.22,0.88,0.43,1.43,0.63s1.24,0.29,2.08,0.29c0.66,0,1.22-0.08,1.7-0.24
			c0.47-0.16,0.86-0.36,1.17-0.62c0.31-0.25,0.53-0.55,0.67-0.89c0.14-0.34,0.21-0.69,0.21-1.04c0-0.54-0.16-0.98-0.48-1.33
			s-0.75-0.64-1.28-0.9c-0.53-0.25-1.14-0.48-1.82-0.69c-0.68-0.2-1.38-0.42-2.09-0.66c-0.71-0.24-1.41-0.52-2.09-0.84
			c-0.68-0.32-1.29-0.73-1.82-1.22c-0.53-0.49-0.96-1.1-1.28-1.82c-0.32-0.72-0.48-1.59-0.48-2.6c0-0.94,0.19-1.84,0.56-2.69
			c0.37-0.85,0.92-1.6,1.65-2.23c0.73-0.64,1.63-1.15,2.72-1.53c1.09-0.38,2.34-0.57,3.76-0.57c1.59,0,3.03,0.26,4.33,0.79
			c1.3,0.52,2.39,1.21,3.26,2.07L173.22,17.9z"/>
	</g>
</g>
</svg>
