<?xml version="1.0" encoding="utf-8"?>
<!-- Generator: Adobe Illustrator 28.2.0, SVG Export Plug-In . SVG Version: 6.00 Build 0)  -->
<svg version="1.0" id="Layer_1" xmlns="http://www.w3.org/2000/svg" xmlns:xlink="http://www.w3.org/1999/xlink" x="0px" y="0px"
	 width="665.04px" height="93.12px" viewBox="0 0 665.04 93.12" enable-background="new 0 0 665.04 93.12" xml:space="preserve">
<g>
	<path fill="#DC7A00" d="M665.28,90.97c-0.08,0.1-0.22,0.2-0.23,0.31c-0.02,0.51-0.29,0.89-0.66,1.16
		c-0.39,0.28-0.87,0.44-1.37,0.44c-1.64,0.01-3.28,0-4.92,0c-1.8,0-3.6,0-5.31,0c-0.4-0.2-0.73-0.36-1.11-0.55
		c-0.15-0.3-0.33-0.67-0.56-1.11c0-6.92,0-13.94,0.01-20.96c0-0.37,0.04-0.75,0.11-1.14c0.15-0.8,0.72-1.16,1.21-1.62
		c3.77,0,7.52,0,11.28,0c0.37,0.27,0.73,0.54,0.99,0.73c0.17,0.64,0.3,1.15,0.43,1.65c0,0.01,0.08,0,0.12,0
		C665.28,76.92,665.28,83.94,665.28,90.97z"/>
	<path fill="#FCF6EE" d="M5.76,0.48c0-0.08,0-0.16,0-0.24c24.47,0,48.94,0,73.41,0c0,0.08,0,0.16,0,0.24
		C54.7,0.48,30.23,0.48,5.76,0.48z"/>
	<path fill="#DC7B02" d="M5.76,0.48c24.47,0,48.94,0,73.41,0c0.6,0,1.2,0.01,1.8,0c0.78-0.02,1.54,0.19,2.29,0.31
		c0.73,0.11,1.52,0.25,2.26,0.58c0.66,0.3,1.43,0.42,2.06,0.8c1.37,0.82,2.68,1.67,3.67,3.02c1.27,1.73,1.78,3.04,2.34,5.15
		c0.11,0.42,0.13,0.82,0.22,1.22c0.47,2.31,0.17,4.64,0.22,6.96c0.05,2.31,0.01,4.63,0.01,6.94c0,21.7,0,43.41,0,65.11
		c0,0.46,0.05,0.91-0.23,1.34c-0.38,0.6-0.86,0.96-1.57,0.96c-1.52,0-3.04,0-4.63,0c-0.4-0.33-0.84-0.7-1.11-0.92
		c-0.5-1.1-0.38-2.04-0.38-2.97c0-24.7,0-49.39-0.01-74.09c0-2.25-0.89-4.14-2.58-5.63c-0.86-0.76-1.96-1.04-3.03-1.37
		c-0.39-0.12-0.81-0.2-1.22-0.24c-0.4-0.04-0.8-0.01-1.2-0.01c-7.28,0-14.55,0-21.78,0c-0.62,0.37-1.25,0.63-1.73,1.17
		c-0.5,0.57-0.68,1.24-0.83,1.93c-0.06,0.27-0.01,0.56-0.01,0.84c0,26.33,0,52.66-0.01,79c0,0.41,0.06,0.8-0.2,1.24
		c-0.39,0.67-0.85,1.05-1.61,1.05c-1.48,0.01-2.96,0-4.54,0c-0.39-0.3-0.85-0.64-1.14-0.85c-0.56-1.14-0.42-2.17-0.42-3.17
		c0-25.97-0.01-51.95,0.01-77.92c0-0.95-0.28-1.73-0.92-2.37c-0.61-0.6-1.35-0.92-2.26-0.92C31.78,7.67,20.9,7.66,10.11,7.66
		C9.11,7.92,8.8,8.71,8.4,9.57c0,5.74-0.04,11.6,0.03,17.47c0.02,1.41,0.37,2.82,1.17,4.05c0.27,0.41,0.52,0.84,0.83,1.21
		c0.57,0.69,1.15,1.38,1.78,2.02c2.53,2.55,5.08,5.09,7.63,7.62c1.28,1.27,2.29,2.71,2.98,4.39c0.34,0.84,0.56,1.69,0.7,2.58
		c0.5,3.03,0.2,6.08,0.21,9.12c0.05,10.81,0.01,21.62,0.03,32.44c0,1.11-0.26,1.96-1.44,2.41c-6.7,0-13.5,0-20.34,0
		c-0.4-0.31-0.82-0.65-1.11-0.88c-0.53-1.1-0.4-2.13-0.4-3.13c0-27.61,0-55.22-0.02-82.83c0-0.82,0.17-1.61,0.34-2.38
		c0.38-1.62,1.56-2.53,3.24-2.97C4.63,0.53,5.18,0.51,5.76,0.48z"/>
	<path fill="#DC7A01" d="M116.33,47.64c-1.41,0-2.97,0.01-4.53,0c-1.1-0.01-1.49-0.5-1.71-1.55c-0.3-1.45-0.18-2.89-0.21-4.33
		c-0.03-1.44-0.13-2.89,0.03-4.3c0.12-1.05,0.1-2.1,0.23-3.13c0.1-0.77,0.29-1.55,0.47-2.31c0.17-0.71,0.46-1.41,0.82-2.05
		c0.48-0.86,1.03-1.66,1.64-2.45c0.6-0.79,1.39-1.27,2.11-1.87c1.08-0.9,2.42-1.29,3.74-1.68c0.8-0.24,1.62-0.35,2.44-0.5
		c2.28-0.41,4.57-0.17,6.86-0.21c2.32-0.05,4.64-0.01,6.96-0.01c2.32,0,4.64,0,6.96,0c6.08,0,12.16-0.03,18.23,0.02
		c1.82,0.02,3.65,0.32,5.35,0.97c1.34,0.52,2.64,1.17,3.82,2.09c1.59,1.24,2.49,2.89,3.33,4.61c0.3,0.62,0.42,1.35,0.58,2.03
		c0.38,1.59,0.5,3.19,0.5,4.83c-0.02,15.44,0,30.88-0.03,46.32c0,1.62-0.41,3.18-1.17,4.66c-0.72,1.42-1.94,2.55-3.55,3.25
		c-1.28,0.56-2.57,0.87-3.96,0.87c-13.91,0-27.83,0-41.74,0c-0.5,0-0.98,0-1.47-0.22c-0.44-0.19-1.03,0.2-1.46-0.24
		c-1.01,0.03-1.9-0.4-2.81-0.73c-1.35-0.5-2.59-1.15-3.68-2.13c-1.36-1.23-2.28-2.73-3.02-4.39c-0.32-0.72-0.47-1.48-0.69-2.23
		c-0.15-0.5-0.2-1.04-0.24-1.57c-0.04-0.52,0.08-1.06-0.03-1.55c-0.44-1.99-0.16-4.01-0.21-6.01c-0.05-2.03-0.03-4.07,0-6.1
		c0.01-0.53,0.18-1.05,0.22-1.58c0.04-0.56-0.14-1.18,0.05-1.66c0.23-0.57,0.07-1.15,0.27-1.68c0.2-0.53,0.47-1.03,0.41-1.62
		c0.83-1.29,1.31-2.78,2.44-3.91c1.16-1.15,2.39-2.12,3.93-2.7c1.01-0.38,2-0.78,3.08-0.97c0.53-0.09,1.05-0.15,1.59-0.21
		c0.53-0.06,1.02-0.29,1.58-0.24c0.51,0.05,1.04,0.01,1.56,0.01c0.56,0,1.12,0,1.68,0c11.68,0,23.35,0,35.03-0.01
		c0.65,0,1.33-0.05,1.93-0.25c0.82-0.28,1.42-0.92,1.87-1.66c0.32-0.52,0.51-1.06,0.5-1.71c-0.03-4.03,0.06-8.06-0.05-12.09
		c-0.06-2.33-0.98-4.29-3.02-5.68c-0.84-0.57-1.77-0.77-2.67-1.1c-0.78-0.28-1.62-0.14-2.41-0.27c-2.48-0.41-4.98-0.16-7.46-0.2
		c-2.52-0.05-5.04-0.01-7.56-0.01c-2.52,0-5.04,0-7.56,0c-2.52,0-5.04-0.02-7.56,0.01c-1.13,0.01-2.26,0.16-3.37,0.28
		c-1.55,0.17-3.09,0.76-4.23,1.86c-0.9,0.87-1.68,1.93-1.88,3.28c-0.1,0.66-0.37,1.3-0.45,1.96c-0.08,0.67-0.02,1.35-0.02,2.03
		c0,1.88-0.04,3.75,0.01,5.62C117.84,46.31,117.58,47.18,116.33,47.64z M136.4,59.61c-3.28,0-6.55,0.03-9.83-0.02
		c-0.95-0.02-1.84,0.28-2.78,0.29c-0.45,0-0.91,0.28-1.36,0.45c-1.7,0.65-3.03,1.75-3.82,3.39c-0.52,1.09-0.73,2.3-0.79,3.49
		c-0.1,2.07-0.07,4.15-0.01,6.22c0.05,2.04-0.15,4.08,0.19,6.13c0.27,1.64,0.93,3.05,2.06,4.17c1.16,1.15,2.75,1.61,4.32,1.96
		c0.49,0.11,1.04-0.01,1.55,0.03c0.49,0.04,0.97,0.21,1.46,0.22c2.24,0.02,4.48,0.01,6.71,0.01c2.28,0,4.56,0.03,6.83-0.01
		c2.21-0.04,4.41,0.11,6.62-0.2c2.02-0.28,3.33-1.73,3.33-3.51c0.02-6.3,0-12.6,0.02-18.9c0-0.59-0.22-1.09-0.42-1.62
		c-0.26-0.71-0.83-1.2-1.39-1.55c-0.57-0.36-1.31-0.55-2.04-0.55C143.51,59.61,139.95,59.61,136.4,59.61z"/>
	<path fill="#DC7A01" d="M568.59,2.14c0.22-0.44,0.39-0.77,0.56-1.12c0.31-0.15,0.64-0.31,1.13-0.55c1.23,0,2.62,0.04,4.01-0.01
		c0.81-0.03,1.43,0.23,1.95,0.82c0.08,0.09,0.17,0.17,0.2,0.21c0.45,1.06,0.3,2.13,0.3,3.17c0.01,24.13,0,48.26,0,72.4
		c0,0.44,0.16,0.98-0.04,1.29c-0.31,0.47-0.15,0.91-0.19,1.36c-0.04,0.42-0.18,0.83-0.21,1.22c-0.08,1.07-0.45,2.04-0.74,3.06
		c-0.67,2.36-1.99,4.28-3.82,5.83c-1.53,1.29-3.39,1.99-5.28,2.56c-0.69,0.21-1.47,0.09-2.17,0.28c-1.17,0.32-2.34,0.19-3.5,0.21
		c-1.2,0.02-2.4,0.01-3.6,0.01c-12.23,0-24.47,0.04-36.7-0.03c-2.52-0.01-4.98-0.62-7.25-1.87c-1.69-0.94-3.07-2.18-4.15-3.76
		c-0.94-1.38-1.48-3-1.97-4.82c-0.15-0.57-0.02-1.17-0.28-1.67c-0.29-0.54-0.05-1.08-0.16-1.61c-0.5-2.43-0.17-4.88-0.22-7.32
		c-0.06-2.47-0.01-4.95-0.01-7.42c0-2.47-0.01-4.95,0-7.42c0-1.07,0.44-1.82,1.27-2.08c0.54-0.17,1.11-0.26,1.67-0.29
		c0.84-0.05,1.68-0.04,2.52,0c0.53,0.03,1.05,0.16,1.7,0.27c0.3,0.36,0.67,0.8,1,1.2c0,6.69,0.01,13.31-0.02,19.93
		c0,0.6,0.25,1.12,0.27,1.7c0.02,0.53,0.11,1.06,0.24,1.57c0.13,0.54,0.28,1.09,0.53,1.57c0.75,1.42,1.72,2.68,3.19,3.41
		c1.11,0.55,2.28,0.87,3.54,1.04c1.34,0.18,2.66,0.16,3.99,0.16c7.2,0.03,14.39,0.02,21.59,0c1.1,0,2.12-0.33,3.1-0.91
		c0.72-0.42,0.98-1.08,1.19-1.7c0.19-0.59,0.32-1.24,0.31-1.92c-0.04-6.94-0.08-13.88,0.01-20.82c0.03-2.29,0.44-4.58,1.41-6.7
		c0.85-1.88,1.92-3.62,3.19-5.27c1.17-1.52,2.19-3.16,3.28-4.74c0.71-1.03,1.45-2.03,2.16-3.06c0.69-0.99,1.41-1.96,2.02-2.99
		c0.68-1.15,1.49-2.22,2.09-3.44c0.58-1.18,0.85-2.44,1.37-3.63c0.2-0.46,0.11-1.04,0.23-1.57c0.22-1.01,0.27-2.08,0.27-3.12
		C568.6,17.76,568.59,9.94,568.59,2.14z"/>
	<path fill="#DC7A01" d="M448.64,91.7c-0.37,0.37-0.79,0.79-1.16,1.16c-1.79,0-3.46,0-5.23,0c-0.39-0.29-0.84-0.64-1.25-0.95
		c-0.52-2.75-0.26-5.44-0.26-8.12c-0.03-15.4-0.01-30.8-0.02-46.2c0-2.21-0.88-4.07-2.54-5.53c-0.89-0.78-2.01-1.09-3.12-1.43
		c-0.84-0.26-1.69-0.23-2.54-0.23c-12.79,0-25.59,0-38.38,0c-0.72,0.32-1.3,0.8-1.63,1.72c0,3.69-0.03,7.56,0.02,11.43
		c0.02,1.33,0.52,2.56,1.33,3.63c0.7,0.92,1.4,1.85,2.21,2.67c2.6,2.65,5.24,5.26,7.88,7.88c1.26,1.25,2.25,2.67,2.96,4.28
		c0.24,0.55,0.35,1.13,0.51,1.71c0.6,2.23,0.44,4.49,0.45,6.75c0.01,6.74,0.01,13.48,0,20.23c0,0.34,0.01,0.66-0.12,1.02
		c-0.3,0.83-1.01,0.95-1.68,1.15c-0.22,0.06-0.48,0.01-0.72,0.01c-6.08,0-12.15,0-18.23,0c-0.46,0-0.9-0.03-1.35-0.22
		c-0.71-0.3-1.11-0.68-1.16-1.37c-0.02-0.24,0-0.48,0-0.72c0-20.86,0-41.73-0.01-62.59c0-1.17,0.29-2.19,0.99-3.18
		c0.32-0.45,0.83-0.92,1.34-1.05c0.79-0.21,1.55-0.55,2.43-0.55c15.19,0.03,30.39,0.02,45.58,0.03c0.5,0,1,0.08,1.5,0.13
		c0.46,0.04,1-0.06,1.38,0.14c0.45,0.24,1.02,0.02,1.38,0.44c1.18-0.03,2.19,0.56,3.15,1.06c1.37,0.72,2.6,1.65,3.58,2.96
		c1.03,1.38,1.56,2.95,2.25,4.47c-0.15,0.64,0.16,1.22,0.27,1.81c0.35,1.8,0.17,3.61,0.2,5.41c0.03,1.79,0.01,3.59,0.01,5.39
		c0,15.12,0,30.24,0,45.36C448.64,90.79,448.64,91.19,448.64,91.7z"/>
	<path fill="#DC7A01" d="M191.6,92.23c-0.51-1.12-0.39-2.07-0.39-2.99c0-20.42,0-40.85-0.01-61.27c0-1.19,0.4-2.22,1-3.18
		c0.48-0.76,1.4-1.02,2.2-1.3c0.68-0.24,1.42-0.28,2.17-0.28c13.55,0.02,27.1,0.01,40.66,0.02c0.5,0,1,0.09,1.5,0.13
		c0.46,0.04,1.02-0.07,1.37,0.14c0.45,0.28,1.03-0.01,1.38,0.44c1-0.1,1.76,0.58,2.67,0.79c0.61,0.14,1.09,0.63,1.64,0.94
		c1.46,0.84,2.62,2.35,3.49,4.02c0.45,0.86,0.73,1.77,1.11,2.65c0.19,0.43-0.18,0.97,0.31,1.31c-0.16,0.71,0.24,1.36,0.24,2.05
		c-0.01,3.87-0.01,7.74,0,11.61c0,0.99-0.28,1.8-1.37,2.22c-1.58,0-3.26,0-5.03,0c-0.39-0.29-0.84-0.64-1.28-0.98
		c-0.48-3.85-0.04-7.66-0.28-11.44c-0.14-2.16-0.99-4.06-2.97-5.35c-0.89-0.58-1.83-0.8-2.77-1.14c-0.76-0.28-1.54-0.12-2.3-0.24
		c-2.64-0.43-5.29-0.16-7.94-0.21c-2.64-0.05-5.28-0.01-7.92-0.01c-2.68,0-5.36,0-8.04,0c-2.64,0-5.28-0.02-7.92,0.01
		c-0.81,0.01-1.62,0.11-2.42,0.24c-0.74,0.13-1.59,1.25-1.6,2.04c-0.01,3.75-0.06,7.5,0.03,11.25c0.04,1.51,0.69,2.91,1.69,4.07
		c1.02,1.19,2.11,2.34,3.22,3.46c2.27,2.3,4.6,4.55,6.85,6.87c1,1.03,1.86,2.18,2.39,3.55c0.44,1.12,0.74,2.25,0.96,3.44
		c0.38,2.05,0.18,4.09,0.19,6.13c0.04,6.38,0.01,12.76,0.02,19.15c0,1.84-0.62,2.53-2.55,2.52c-6.12-0.01-12.23-0.01-18.35,0
		C192.75,92.88,191.99,92.72,191.6,92.23z"/>
	<path fill="#DC7A01" d="M616.59,92.52c-1.14,0.5-2.16,0.35-3.17,0.35c-5.64,0.01-11.27,0-16.91,0.01c-1.83,0-2.49-0.65-2.49-2.46
		c0-20.86,0-41.72,0-62.58c0-1.18,0.44-2.21,1.08-3.14c0.48-0.7,1.35-0.94,2.12-1.21c0.68-0.24,1.43-0.27,2.17-0.27
		c13.55,0.02,27.1,0.01,40.66,0.02c0.5,0,1-0.07,1.51,0.11c0.43,0.15,1.03-0.06,1.36,0.16c0.45,0.3,1.04-0.03,1.39,0.44
		c1-0.1,1.79,0.53,2.66,0.81c0.73,0.24,1.34,0.81,2,1.23c1.73,1.07,2.67,2.78,3.52,4.51c0.4,0.82,0.6,1.74,0.83,2.65
		c0.54,2.16,0.42,4.34,0.43,6.51c0.02,2.51,0,5.03,0.01,7.54c0,1.02-0.22,1.9-1.45,2.36c-1.23,0-2.63-0.04-4.02,0.01
		c-0.81,0.03-1.43-0.23-1.94-0.82c-0.08-0.09-0.17-0.17-0.27-0.27c-0.47-3.77-0.03-7.58-0.27-11.36c-0.14-2.16-1-4.05-2.98-5.34
		c-0.89-0.58-1.83-0.79-2.78-1.13c-0.76-0.28-1.55-0.12-2.3-0.24c-2.64-0.43-5.29-0.16-7.94-0.21c-2.64-0.05-5.28-0.01-7.92-0.01
		c-2.68,0-5.36,0-8.04,0c-2.64,0-5.28-0.02-7.92,0.01c-0.81,0.01-1.62,0.11-2.42,0.24c-0.74,0.12-1.59,1.26-1.59,2.04
		c-0.01,3.71-0.06,7.42,0.02,11.13c0.03,1.56,0.66,3,1.69,4.19c1.06,1.22,2.17,2.39,3.3,3.54c2.24,2.27,4.54,4.5,6.77,6.78
		c1,1.03,1.85,2.19,2.39,3.55c0.45,1.12,0.74,2.25,0.96,3.44c0.38,2.05,0.18,4.09,0.19,6.13c0.04,6.46,0.02,12.92,0.01,19.39
		C617.3,91.41,617.12,92.13,616.59,92.52z"/>
	<path fill="#DC7B02" d="M264.62,24.24c0.43-0.34,0.85-0.68,1.3-1.04c1.83,0.15,3.69-0.22,5.61,0.28c0.23,0.31,0.5,0.67,0.77,1.04
		c0,3.39,0.04,6.78-0.02,10.17c-0.02,0.99,0.2,1.93,0.31,2.89c0.1,0.86,0.56,1.69,1.08,2.41c0.52,0.73,1.17,1.35,1.76,2.03
		c0.43,0.5,0.85,1,1.27,1.51c0.39,0.48,1,0.77,1.2,1.42c0.03,0.1,0.17,0.17,0.25,0.26c0.91,0.98,1.84,1.94,2.71,2.95
		c1.01,1.18,2.04,2.35,3.04,3.54c1.08,1.29,1.76,2.84,2.1,4.51c0.12,0.6,0.13,1.24,0.28,1.81c0.35,1.33,0.18,2.66,0.19,3.98
		c0.03,5.42,0.01,10.85,0.01,16.27c0,0.42-0.01,0.82,0.22,1.23c0.17,0.31-0.12,0.79,0.26,1.08c0.33,1.48,1.57,2.91,3.42,3.45
		c0.52,0.15,1.03,0.25,1.58,0.25c2.96-0.02,5.92,0,8.87-0.01c2.17-0.01,3.79-0.97,4.84-2.86c0.81-1.46,1.5-2.99,2.44-4.37
		c0.59-0.87,1.02-1.83,1.57-2.72c0.54-0.86,1.05-1.79,1.53-2.71c1-1.91,2.07-3.77,3.15-5.63c0.69-1.19,1.32-2.42,2.06-3.59
		c0.57-0.9,0.99-1.9,1.49-2.85c0.58-1.09,0.89-2.26,1.22-3.45c0.35-1.28,0.47-2.56,0.46-3.88c-0.02-5.62-0.01-11.25-0.01-16.87
		c0-1.87-0.03-3.75,0.01-5.62c0.04-1.8-0.23-3.62,0.32-5.54c0.09-0.08,0.29-0.27,0.49-0.46c0.35-0.32,0.74-0.51,1.23-0.5
		c1.28,0.02,2.56-0.04,3.84,0.02c0.81,0.04,1.59,0.25,1.89,1.17c0.06,0.18,0.11,0.36,0.13,0.54c0.02,0.24,0.01,0.48,0.01,0.72
		c0,9.45,0,18.91-0.01,28.36c0,0.61,0.14,1.22-0.17,1.84c-0.27,0.54,0.15,1.24-0.3,1.79c0.02,1.35-0.51,2.58-0.99,3.78
		c-0.5,1.26-0.95,2.56-1.76,3.71c-0.7,1-1.16,2.16-1.82,3.19c-1.05,1.63-1.92,3.37-3.02,4.98c-0.69,1.01-1.18,2.14-1.8,3.2
		c-0.97,1.64-1.99,3.25-2.96,4.88c-0.65,1.09-1.24,2.2-1.87,3.29c-0.77,1.32-1.5,2.66-2.35,3.93c-1.14,1.71-2.7,3.01-4.63,3.69
		c-0.93,0.33-1.94,0.6-3,0.59c-4.56-0.04-9.12,0.06-13.67-0.05c-2.31-0.05-4.44-0.81-6.13-2.56c-0.97-1-1.74-2.1-2.38-3.33
		c-0.53-1.02-1.16-2-1.77-2.98c-0.45-0.73-0.89-1.46-1.29-2.22c-0.54-1.02-1.17-1.99-1.78-2.97c-0.47-0.76-0.84-1.58-1.33-2.33
		c-0.69-1.07-1.41-2.12-2.02-3.23c-0.58-1.04-1.18-2.07-1.8-3.08c-0.8-1.3-1.5-2.66-2.35-3.94c-0.67-1.01-1.23-2.12-1.72-3.23
		c-0.49-1.11-0.85-2.28-1.21-3.45c-0.24-0.79-0.4-1.6-0.54-2.42c-0.13-0.77-0.05-1.56-0.21-2.3c-0.45-2.04-0.18-4.09-0.2-6.13
		c-0.05-5.66-0.04-11.33-0.01-16.99C264.41,29.25,264.18,26.8,264.62,24.24z"/>
	<path fill="#DC7A01" d="M350.97,32.35c0.37,0.3,0.79,0.63,1.16,0.92c0.56,2.33,0.27,4.63,0.29,6.9c0.05,4.07-0.02,8.14,0.03,12.21
		c0.02,1.83,0.76,3.41,1.98,4.8c3.14,3.6,6.73,6.76,10,10.23c1.46,1.55,2.46,3.37,2.9,5.5c0.28,1.37,0.47,2.72,0.47,4.11
		c-0.02,4.07,0,8.14-0.01,12.21c0,0.93,0.12,1.87-0.39,3c-0.31,0.43-1,0.64-1.74,0.64c-6.36,0.01-12.71,0.01-19.07-0.01
		c-0.44,0-0.91-0.13-1.3-0.32c-0.57-0.28-0.58-0.94-0.75-1.47c-0.07-0.22-0.01-0.47-0.01-0.71c0-18.51,0-37.02,0-55.53
		c0-1.84,0.62-2.55,2.55-2.52c1.24,0.02,2.48,0,3.72,0C350.82,32.32,350.86,32.33,350.97,32.35z"/>
	<path fill="#DC7A01" d="M356.44,0.48c0.39,0.31,0.81,0.64,1.12,0.88c0.52,1.05,0.4,2.03,0.4,2.99c0,5.7,0,11.39,0,17.12
		c-0.32,0.4-0.66,0.82-0.88,1.1c-1.11,0.54-2.14,0.4-3.14,0.4c-1.8,0.01-3.59,0.02-5.39,0c-0.89-0.01-1.77-0.09-2.66-0.13
		c-0.42-0.5-0.78-0.93-1.12-1.34c0-6.24,0-12.42,0.01-18.59c0-0.45,0.15-0.89,0.25-1.43c0.09-0.08,0.25-0.2,0.39-0.34
		c0.45-0.47,0.97-0.69,1.64-0.68C350.16,0.49,353.27,0.48,356.44,0.48z"/>
</g>
</svg>
