<?xml version="1.0" encoding="utf-8"?>
<!-- Generator: Adobe Illustrator 28.0.0, SVG Export Plug-In . SVG Version: 6.00 Build 0)  -->
<svg version="1.1" id="Layer_1" xmlns="http://www.w3.org/2000/svg" xmlns:xlink="http://www.w3.org/1999/xlink" x="0px" y="0px"
	 viewBox="0 0 335 93.1" style="enable-background:new 0 0 335 93.1;" width="335.04px" height="93.12px" xml:space="preserve">
<style type="text/css">
	.st0{fill:#ffb255;}
</style>
<g>
	<path class="st0" d="M300.5,63.4c-0.1,0.1-0.1,0.1-0.1,0.1c-0.1,0.9-0.4,1.9-0.9,2.6c-0.4,0.6-1,1.1-1.6,1.5
		c-0.7,0.4-1.4,0.6-2,0.8c-0.4,0.2-0.8,0.1-1.1,0.2c-1.7,0.3-3.3,0.1-5,0.1c-1.7,0.1-3.3,0-4.9,0c-1.7,0-3.3,0-5,0
		c-1.6,0-3.1,0-4.6,0c-0.9,0-1.7-0.2-2.5-0.4c-0.6-0.2-1.2-0.5-1.7-0.8c-1.2-0.8-1.9-1.9-2.3-3.2c-0.1-0.3-0.1-0.5-0.2-0.8
		c-0.2-0.4-0.1-0.9-0.2-1.3c-0.2-0.8-0.1-1.6-0.1-2.3c0-0.8,0-1.6,0-2.4c0-0.3,0.1-0.5,0.2-0.7c0.2-0.4,0.5-0.6,0.9-0.6
		c0.7-0.1,1.3,0,1.9,0c0.2,0,0.3,0.1,0.6,0.2c0.1,0.2,0.3,0.4,0.5,0.6c0,1.4,0,2.7,0,4c0,0.7,0.2,1.3,0.4,2c0.1,0.3,0.3,0.6,0.6,0.8
		c0.4,0.4,0.8,0.8,1.3,1c0.3,0.1,0.6,0.2,0.8,0.3c0.7,0.2,1.4,0.1,2.1,0.1c3.5,0,7.1,0,10.6,0c0.5,0,0.9-0.2,1.3-0.5
		c0.3-0.2,0.4-0.5,0.5-0.7c0.1-0.3,0.2-0.7,0.2-1c0-2.8,0-5.7,0-8.5c0-0.4-0.1-0.7-0.2-1c-0.1-0.1-0.1-0.2-0.1-0.3
		c-0.3-0.6-0.9-0.9-1.5-0.9c-4.2,0-8.5,0-12.7,0c-0.6,0-1.2-0.2-1.8-0.2c-0.4,0-0.8-0.1-1.2-0.3c-0.4-0.1-0.8-0.2-1.1-0.4
		c-0.4-0.2-0.8-0.4-1.2-0.8c-0.5-0.5-1-1-1.3-1.7c-0.2-0.5-0.4-0.9-0.5-1.4c-0.1-0.4-0.1-0.7-0.1-1c-0.2-0.8-0.1-1.5-0.1-2.3
		s0-1.5,0-2.3s0-1.5,0-2.3c0-0.6,0-1.1,0.2-1.6c0.2-0.7,0.4-1.4,0.7-1.9c0.3-0.5,0.7-0.9,1.1-1.3c0.8-0.6,1.6-1,2.5-1.2
		c0.5-0.1,1-0.2,1.5-0.3c0.7-0.2,1.4-0.1,2.1-0.1c5.7,0,11.5,0,17.3,0c0.4,0,0.8,0.1,1.2,0.1c0.4,0.1,0.7,0.2,1.1,0.3
		c0.6,0.1,1,0.3,1.5,0.5c0.7,0.4,1.4,0.9,1.9,1.5c0.5,0.7,0.9,1.5,1.1,2.3c0.1,0.3,0.1,0.7,0.2,1c0,0.1,0.1,0.1,0.1,0.2
		c0,1.7,0,3.4,0,5.1c-0.2,0.2-0.4,0.4-0.5,0.6c-0.8,0.2-2.1,0.2-2.9,0c-0.2-0.2-0.3-0.3-0.5-0.4c-0.3-1.4-0.1-2.7-0.1-4
		c0-0.8-0.3-1.4-0.7-2c-0.6-0.9-1.6-1.4-2.7-1.5c-0.9-0.1-1.9-0.2-2.8-0.2c-0.8,0.1-1.7,0-2.5,0c-1.3,0-2.6,0-3.9,0
		c-1.3,0-2.6,0-3.9,0c-1.3,0-2.6-0.1-3.8,0.1c-0.4,0.1-0.9,0.1-1.3,0.1c-0.6,0.1-1.1,0.4-1.6,0.6c-0.3,0.2-0.5,0.3-0.6,0.5
		c-0.4,0.6-0.7,1.2-0.7,1.9c0,1.6,0,3.3,0,4.9c0,0.4,0.1,0.8,0.1,1.1c0.2,1.1,0.9,1.7,1.8,2.2c0.2,0.1,0.5,0.1,0.7,0.2
		c0.2,0.1,0.5,0,0.6,0.1c0.3,0.1,0.5,0.1,0.7,0.1c5.6,0,11.2,0,16.9,0c0.7,0,1.4-0.1,2,0.1c0.5,0.1,0.9,0.2,1.4,0.3
		c0.9,0.2,1.6,0.7,2.2,1.2c0.7,0.6,1.1,1.3,1.4,2.1c0.1,0.3,0.2,0.5,0.3,0.8c0.1,0.5,0.3,1,0.3,1.5c0,0,0.1,0.1,0.1,0.1
		C300.5,57.6,300.5,60.5,300.5,63.4z"/>
	<path class="st0" d="M34.6,38.8c0.1-0.1,0.1-0.1,0.1-0.1c0.1-1.1,0.3-1.8,1-2.7c0.4-0.6,0.7-0.9,1.4-1.3c0.6-0.4,1.3-0.7,2-0.9
		c0.5-0.1,0.9-0.2,1.4-0.3c1.6-0.3,3.3-0.1,4.9-0.1c1.7-0.1,3.3,0,4.9,0s3.3,0,4.9,0c1.6,0,3.1,0,4.7,0c0.5,0,1.1,0,1.5,0.2
		c0.6,0.2,1.3,0.2,1.8,0.6c0.8,0.2,1.3,0.7,1.8,1.1c0.8,0.7,1.2,1.6,1.5,2.6c0.1,0.2,0.2,0.4,0.2,0.6c0,0.2,0.1,0.4,0.1,0.6
		c0.3,1.5,0.1,3.1,0.1,4.6c0.1,0.6-0.1,1-0.6,1.3c-0.7,0.3-1.5,0.1-2.3,0.1c-0.4,0-0.7-0.2-1-0.6c-0.3-1.3-0.1-2.6-0.2-3.9
		c-0.1-1.3-0.6-2.4-1.8-3c-0.3-0.2-0.7-0.3-1.1-0.4c-0.2-0.1-0.4-0.1-0.6-0.1c-0.2,0-0.4,0-0.6,0c-2.5-0.3-5-0.1-7.5-0.1s-5,0-7.6,0
		c-0.4,0-0.7,0.2-1,0.2c-0.4,0-0.7-0.1-1,0c-0.8,0.2-1.6,0.4-2.2,0.9c-0.5,0.4-0.8,1-0.9,1.6c-0.2,0.8-0.1,1.6-0.1,2.4
		c0,1.2-0.1,2.3,0,3.5c0,0.6,0.2,1.2,0.5,1.8c0.3,0.5,1,1,1.3,1.2c0.9,0.4,1.7,0.5,2.6,0.5c5.7,0,11.5,0,17.3,0c0.5,0,1,0.1,1.5,0.1
		c0.5,0.1,0.9,0.3,1.4,0.4c0.9,0.3,1.6,0.8,2.1,1.4c0.5,0.5,1.2,1.7,1.3,2.5c0.1,0.4,0.2,0.9,0.3,1.3c0.2,0.6,0.1,1.1,0.1,1.7
		c0,2.2,0,4.3,0,6.4c0,0.2,0.1,0.5,0,0.7c-0.2,0.5-0.2,1.1-0.4,1.6c-0.3,0.8-0.8,1.5-1.4,2c-0.5,0.4-1.6,1-2.3,1.2
		c-0.6,0.2-1.3,0.3-1.9,0.4c-0.8,0.1-1.5,0.1-2.2,0.1c-5.7,0-11.5,0-17.3,0c-0.3,0-0.5,0-0.8-0.1c-0.2-0.1-0.5,0.1-0.7-0.2
		c-0.8-0.1-1.5-0.4-2.3-0.7c-0.7-0.4-1.8-1.3-2.1-2c-0.2-0.3-0.3-0.6-0.5-0.9c0.1-0.2,0-0.2,0-0.3c0.1-0.4-0.3-0.7-0.3-1.1
		c0-0.4-0.2-0.8-0.2-1.2c0,0-0.1-0.1-0.1-0.1c0-1.7,0-3.5,0-5.2c0.3-0.1,0.2-0.4,0.4-0.6c0.3-0.1,0.6-0.3,0.9-0.3
		c0.8,0,1.5-0.1,2.2,0.2c0.5,0.5,0.5,0.5,0.5,1.3c0,1.2,0,2.3,0,3.5c0,0.4,0.1,0.7,0.2,1.1c0.1,0.2,0.2,0.4,0.2,0.6
		c0.2,0.6,0.6,1.1,1.1,1.4c0.4,0.3,0.7,0.4,1.1,0.6c0.7,0.3,1.5,0.4,2.3,0.4c3.4,0.1,6.9,0,10.3,0c0.4,0,0.8-0.1,1.2-0.1
		c0.3-0.1,0.5-0.2,0.7-0.4c0.2-0.2,0.4-0.4,0.5-0.7c0.1-0.4,0.3-0.7,0.3-1.1c0-2.8,0-5.6,0-8.4c0-0.4-0.1-0.8-0.2-1.1
		c-0.1-0.5-0.6-1-1.1-1.1c-0.5-0.2-1.1-0.3-1.6-0.3c-4.3,0-8.6,0-12.9,0c-0.5,0-0.9,0-1.3-0.2c-0.4-0.1-0.7-0.2-1.1-0.4
		c-0.4-0.2-0.7-0.3-1.1-0.5c-0.6-0.3-1.1-0.8-1.5-1.3c-0.5-0.7-0.8-1.4-0.9-2.2c-0.2-0.2-0.1-0.5-0.1-0.8c0-0.1-0.1-0.1-0.1-0.1
		C34.6,44.1,34.6,41.5,34.6,38.8z"/>
	<path class="st0" d="M174.2,17.4c0.2,0.2,0.4,0.4,0.6,0.5c0.3,0.6,0.2,1.2,0.2,1.7c0,2.6,0,5.2,0,7.8c0,0.5-0.1,1-0.6,1.3
		c-0.5,0.2-1.1,0.1-1.6,0.2c-0.8,0-1.6,0-2.4,0c-0.5,0-1.1,0.1-1.6-0.2c-0.1-0.1-0.2-0.2-0.3-0.3c-0.2-0.2-0.3-0.4-0.3-0.6
		c0-3,0-6,0-9.1c0-0.2,0.1-0.4,0.1-0.7c0.2-0.2,0.4-0.4,0.6-0.5C170.7,17.4,172.5,17.4,174.2,17.4z"/>
	<path class="st0" d="M231.7,69.7c0.2,0.2,0.3,0.4,0.5,0.6c0,1.4,0,2.7,0,4.1c0,0.7,0.2,1.3,0.4,1.9c0.4,0.9,1.1,1.5,2.1,1.8
		c0.5,0.2,1,0.3,1.5,0.3c3.6,0,7.3,0,10.9,0c0.4,0,0.7-0.1,1-0.4c0.3-0.2,0.5-0.5,0.5-0.8c0.1-0.3,0.2-0.6,0.2-1c0-2.5,0-4.9,0-7.4
		c0-0.4-0.1-0.9-0.3-1.2c-0.3-0.4-0.5-0.7-1-0.8c-0.1,0-0.1-0.1-0.2-0.1c-3.8,0-7.7,0-11.5,0c-0.6,0-1.1-0.1-1.7-0.2
		c-0.5-0.1-1-0.1-1.4-0.3c-0.5-0.2-0.9-0.3-1.3-0.6c-0.5-0.3-1.3-0.7-1.7-1.4c-0.4-0.3-0.5-0.7-0.8-1c-0.3-0.4-0.4-0.9-0.5-1.4
		c-0.2-0.6-0.3-1.2-0.3-1.8c-0.3-1.3-0.1-2.5-0.1-3.7c0-5.3,0-10.6,0-15.9c0-0.6,0.1-1.1,0.2-1.7c0.1-0.5,0.2-1.1,0.4-1.6
		c0.3-0.5,0.5-1,0.8-1.4c0.5-0.7,1.2-1.3,1.9-1.6c0.4-0.2,0.8-0.4,1.2-0.5c0.2-0.1,0.4-0.2,0.7-0.2c1-0.2,1.9-0.3,2.9-0.3
		c6.8,0,13.5,0,20.3,0c0.8,0,1.9,0.3,2.7,0.9c0.6,0.4,1,1,1.2,1.7c0.1,0.4,0.2,0.7,0.3,1.1c0.1,0.4,0.1,0.7,0.1,1.1
		c0,12.3,0,24.7,0,37.1c0,0.4-0.1,0.7-0.1,1.1c0,0.4-0.1,0.7-0.3,1.1c-0.4,1.3-0.5,1.4-1.2,2.4c-0.2,0.3-0.4,0.5-0.7,0.7
		c-0.3,0.2-0.5,0.4-0.8,0.6c-0.9,0.5-1.2,0.6-2.3,0.9c-0.3,0.1-0.6,0-0.9,0.1c-0.3,0.1-0.6,0.1-0.9,0.1c-6.2,0-12.4,0-18.6,0
		c-0.5,0-0.9-0.1-1.3-0.1c-0.4-0.1-0.8-0.3-1.2-0.3c-0.7-0.4-1.4-0.6-2-1.1c-0.7-0.5-1.1-1.2-1.5-1.8c-0.3-0.6-0.5-1.3-0.7-1.9
		c-0.1-0.5,0-1-0.1-1.4c-0.2-0.8-0.1-1.5-0.1-2.3c-0.1-0.8,0-1.5,0-2.3c0-0.3,0.1-0.5,0.2-0.7c0.1-0.3,0.3-0.4,0.5-0.5
		c0.3-0.1,0.6-0.1,0.9-0.2c0.3,0,0.6,0,0.9,0C230.9,69.6,231.2,69.7,231.7,69.7z M256.4,61.9c0-0.1,0-0.1,0-0.2c0-7.5,0-15,0-22.4
		c0-0.1,0-0.1,0-0.2c0-0.3-0.3-1-0.5-1.3c-0.5-0.5-1.1-0.8-1.8-0.8c-6.1,0-12.1,0-18.2,0c-0.5,0-0.9,0.1-1.4,0.3
		c-1,0.4-1.5,0.8-2,1.7c-0.4,0.7-0.5,1.3-0.5,2c0,5.9,0,11.9,0,17.8c0,0.6,0.1,1.1,0.3,1.6c0.1,0.6,0.4,1,0.7,1.4
		c0.3,0.5,0.8,0.7,1.3,1c0.5,0.2,1.5,0.4,2,0.4c5.9,0,11.9,0,17.9,0c0.3,0,0.5-0.1,0.8-0.1c0.6-0.2,1-0.4,1.2-1
		C256.3,62.1,256.3,62,256.4,61.9z"/>
	<path class="st0" d="M105.5,56.3c0.2,0.2,0.4,0.4,0.5,0.7c0,1.9,0.1,3.7,0,5.5c-0.1,0.8-0.2,1.6-0.5,2.3c-0.5,1.4-1.4,2.4-2.7,3
		c-0.6,0.3-1.2,0.6-1.9,0.6c-0.3,0.2-0.6,0.1-0.9,0.2c-0.3,0.1-0.6,0.1-0.9,0.1c-6.1,0-12.2,0-18.4,0c-0.3,0-0.6,0.1-0.9-0.1
		c-0.3-0.1-0.6,0.1-0.9-0.2c-0.7-0.1-1.4-0.3-2-0.6c-0.9-0.5-1.7-1.1-2.2-1.9c-0.2-0.4-0.4-0.7-0.6-1.1c-0.2-0.4-0.3-0.8-0.4-1.1
		c-0.1-0.4-0.2-0.7-0.2-1.1c0-7.7,0-15.3,0-22.9c0-1.3,0.4-2.4,1.2-3.5c0.6-0.9,1.5-1.5,2.5-1.9c0.5-0.2,1-0.4,1.5-0.5
		c0.3-0.1,0.6-0.1,0.9-0.1c0.3-0.1,0.6-0.1,0.8-0.1c0.3,0,0.6,0,0.9,0c5.8,0,11.7,0,17.6,0c0.3,0,0.5-0.1,0.8,0.1
		c0.2,0.2,0.5-0.1,0.7,0.2c0.4-0.1,0.7,0.1,1,0.2c0.9,0.3,1.3,0.5,2.1,1.1c1.1,0.8,1.7,2.2,2,3.1c0.1,0.3,0.1,0.7,0.2,1
		c0.3,1.2,0.1,2.4,0.1,3.6c0.1,1.2,0.1,2.5,0,3.7c0,0.4-0.2,0.8-0.2,1.1c-0.1,0.8-0.4,1.4-0.8,2.1c-0.3,0.5-0.9,1.1-1.3,1.5
		c-0.3,0.3-0.6,0.5-0.9,0.6c-0.5,0.3-0.9,0.5-1.4,0.6c-0.5,0.2-1.1,0.2-1.6,0.3c-0.7,0.1-1.3,0.1-1.9,0.1c-3.5,0-7,0-10.5,0
		c-0.5,0-0.9,0.2-1.3,0.4c-0.4,0.2-0.6,0.6-0.7,1.1c-0.1,0.4-0.1,0.9-0.1,1.3c0,2.5,0,5,0,7.6c0,0.6,0.2,1.2,0.6,1.6
		c0.3,0.3,0.6,0.4,1.1,0.4c3.8,0,7.6,0,11.3,0c1.1,0,2.1-0.4,2.8-1.3c0.4-0.5,0.6-1,0.7-1.5c0.1-0.4,0.1-0.7,0.1-1.1
		c0-1.1,0-2.3,0-3.4c0-0.2,0.2-0.8,0.3-1c0.1-0.2,0.2-0.2,0.3-0.3c0.3-0.2,0.6-0.3,0.9-0.3c0.3,0,0.6,0,0.9,0
		C104.7,56.2,105.1,56.1,105.5,56.3z M88.9,49.3c2.8,0,5.7,0,8.5,0c0.6,0,1.1,0,1.6-0.1c0.8-0.2,1.4-0.5,2-1
		c0.8-0.7,1.1-1.5,1.1-2.5c0.1-1.6,0-3.1,0-4.7c0-0.4,0-0.8-0.1-1.2c-0.2-0.6-0.4-1.2-0.8-1.6c-0.7-0.7-1.5-1-2.4-1.2
		c-0.7,0.1-1.3-0.2-2-0.1c-1.7,0-3.4,0-5.1,0c-1.7,0-3.3,0-5,0s-3.4-0.1-5,0.1c-0.8,0.1-1.5,0.3-2.2,0.7c-0.3,0.2-0.6,0.4-0.8,0.6
		c-0.3,0.4-0.6,0.9-0.7,1.4c-0.1,0.4-0.2,0.8-0.2,1.2c0,2,0,4,0,6c0,0.3,0.1,0.6,0.1,0.9c0.1,0.9,1,1.4,1.7,1.4
		C82.7,49.3,85.8,49.3,88.9,49.3z"/>
	<path class="st0" d="M220.3,67.9c-0.1,0.1-0.1,0.2-0.1,0.2c-0.2,0.4-0.5,0.5-0.9,0.5c-0.7,0-1.5,0-2.2,0c-0.2-0.2-0.5-0.4-0.7-0.5
		c-0.3-1.2-0.2-2.4-0.2-3.6c0-7.9,0-15.9,0-23.8c0-1.1-0.5-2.1-1.3-2.8c-0.5-0.4-1-0.6-1.6-0.7c-0.2-0.1-0.5-0.1-0.7-0.1
		s-0.5,0-0.7,0c-6.4,0-12.8,0-19.3,0c-0.4,0.2-0.7,0.4-0.9,0.9c0,1.9,0,3.8,0,5.8c0,0.7,0.3,1.3,0.7,1.8c0.4,0.5,0.8,1,1.2,1.4
		c1.3,1.3,2.6,2.6,3.9,3.9c0.7,0.6,1.1,1.4,1.5,2.2c0.1,0.3,0.3,0.6,0.3,0.9c0,0.2,0.1,0.4,0.1,0.6c0,0.2,0,0.4,0.1,0.5
		c0.1,0.1,0,0.3,0,0.4c0,4.1,0,8.2,0,12.2c0,0.2-0.1,0.3-0.1,0.5c-0.1,0.5-0.5,0.5-0.8,0.6c-0.1,0.1-0.2,0-0.3,0c-3.1,0-6.2,0-9.4,0
		c-0.5,0-0.9-0.2-1-0.4c-0.1-0.1,0-0.1-0.1-0.2c0-0.1-0.1-0.1-0.1-0.1c0-10.7,0-21.4,0-32c0-0.6,0.1-1.1,0.5-1.6
		c0.3-0.3,0.5-0.5,0.9-0.6c0.5-0.2,1-0.3,1.4-0.3c7.6,0,15.1,0,22.7,0c0.7,0,1.4,0.2,2.1,0.3c0.5,0.1,1,0.3,1.4,0.5
		c0.8,0.4,1.5,0.9,2,1.6c0.5,0.7,0.8,1.5,1.1,2.3c0.1,0.2-0.1,0.5,0.2,0.7c-0.1,0.5,0.2,0.9,0.2,1.4
		C220.3,49.4,220.3,58.7,220.3,67.9z"/>
	<path class="st0" d="M110.6,37c-0.5-0.3-0.7-0.5-0.7-1.2c0-0.5,0-1,0-1.5c0.1-0.2,0.2-0.4,0.3-0.5c0.5-0.4,0.9-0.4,1.4-0.4
		c0.9,0,1.8,0,2.7,0c0.5,0,0.9-0.2,1.3-0.4c0.3-0.2,0.5-0.5,0.6-0.9c0.1-0.4,0.1-0.7,0.1-1c0-2.3,0-4.6,0-6.9c0-0.2-0.1-0.4,0.1-0.6
		c0-0.6,0.5-0.7,0.9-0.7c0.7-0.1,1.4,0,2.1,0c0.2,0,0.4,0.1,0.5,0.2s0.3,0.2,0.3,0.3c0.3,0.6,0.2,1.2,0.2,1.7c0,2.3,0,4.6,0,6.9
		c0.1,0.3,0.2,0.5,0.3,0.6c0.2,0.2,0.3,0.4,0.6,0.5c0.3,0.1,0.6,0.2,0.8,0.2c0.1,0.1,0.3,0,0.4,0c3.9,0,7.9,0,11.7,0
		c0.2,0.1,0.4,0.2,0.5,0.3c0.4,0.5,0.4,1,0.4,1.5c0,0.2,0,0.5,0,0.7c0,0.5-0.2,0.9-0.8,1.1c-0.9,0-1.9,0-2.9,0c-2.8,0-5.5,0-8.4,0
		c-0.5,0-1,0.1-1.5,0.2c-0.4,0.1-0.8,0.3-1,0.7c-0.1,0.2-0.2,0.3-0.3,0.5c0,1.8-0.1,3.7,0,5.5c0,0.5,0.3,1,0.6,1.5s0.7,0.9,1.1,1.3
		c0.5,0.5,1.1,1,1.5,1.5c1,1.1,2.1,2.1,3,3.2c0.7,0.8,1.2,1.7,1.4,2.7c0.1,0.6,0.3,1.1,0.3,1.7c0,3.9,0,7.8,0,11.7
		c0,0.2-0.1,0.4-0.1,0.5c-0.1,0.4-0.3,0.6-0.7,0.7c-3.2,0-6.6,0-9.9,0c-0.2,0-0.5-0.1-0.6-0.1c-0.3-0.2-0.4-0.5-0.5-0.8
		c-0.1-0.2,0-0.3,0-0.4c0-9.4,0-18.9,0-28.3c0-0.4-0.2-0.7-0.3-1.1c-0.2-0.5-0.7-0.7-1.1-0.8c-0.4-0.1-0.9-0.1-1.3-0.2
		C112.6,37,111.5,37,110.6,37z"/>
	<path class="st0" d="M138.5,37c-0.5-0.3-0.7-0.5-0.7-1.2c0-0.5,0-1,0-1.5c0.1-0.2,0.2-0.4,0.3-0.5c0.5-0.4,0.9-0.4,1.4-0.4
		c0.9,0,1.8,0,2.7,0c0.5,0,0.9-0.2,1.3-0.4c0.3-0.2,0.5-0.5,0.6-0.9c0.1-0.4,0.1-0.7,0.1-1c0-2.3,0-4.6,0-6.9c0-0.2-0.1-0.4,0.1-0.6
		c0-0.6,0.5-0.7,0.9-0.7c0.7-0.1,1.4,0,2.1,0c0.2,0,0.4,0.1,0.5,0.2s0.3,0.2,0.3,0.3c0.3,0.6,0.2,1.2,0.2,1.7c0,2.3,0,4.6,0,6.9
		c0.1,0.3,0.2,0.5,0.3,0.6c0.2,0.2,0.3,0.4,0.6,0.5c0.3,0.1,0.6,0.2,0.8,0.2c0.1,0.1,0.3,0,0.4,0c3.9,0,7.9,0,11.7,0
		c0.2,0.1,0.4,0.2,0.5,0.3c0.4,0.5,0.4,1,0.4,1.5c0,0.2,0,0.5,0,0.7c0,0.5-0.2,0.9-0.8,1.1c-0.9,0-1.9,0-2.9,0c-2.8,0-5.5,0-8.4,0
		c-0.5,0-1,0.1-1.5,0.2c-0.4,0.1-0.8,0.3-1,0.7c-0.1,0.2-0.2,0.3-0.3,0.5c0,1.8-0.1,3.7,0,5.5c0,0.5,0.3,1,0.6,1.5s0.6,1,1.1,1.3
		c0.2,0.1,0.3,0.3,0.4,0.4c1.4,1.4,2.8,2.8,4.1,4.2c0.7,0.8,1.2,1.7,1.4,2.8c0.1,0.6,0.3,1.1,0.3,1.7c0,3.9,0,7.8,0,11.7
		c0,0.2-0.1,0.4-0.1,0.5c-0.1,0.4-0.3,0.6-0.7,0.7c-3.2,0-6.6,0-9.9,0c-0.2,0-0.5-0.1-0.6-0.1c-0.3-0.2-0.4-0.5-0.5-0.8
		c-0.1-0.2,0-0.3,0-0.4c0-9.4,0-18.9,0-28.3c0-0.4-0.2-0.7-0.3-1.1c-0.2-0.5-0.7-0.7-1.1-0.8c-0.4-0.1-0.9-0.1-1.3-0.2
		C140.5,37,139.5,37,138.5,37z"/>
	<path class="st0" d="M171.4,33.5c0.2,0.2,0.4,0.3,0.6,0.5c0.3,1.1,0.2,2.3,0.2,3.4c0,2.1,0,4.2,0,6.3c0,0.9,0.4,1.7,1,2.4
		c1.6,1.8,3.4,3.4,5,5.1c0.8,0.8,1.3,1.7,1.5,2.8c0.2,0.7,0.3,1.4,0.3,2.1c0,3.6,0,7.2,0,10.8c0,0.5,0.1,0.9-0.2,1.4
		c-0.2,0.4-0.6,0.5-0.9,0.5c-3.2,0-6.4,0-9.6,0c-0.2,0-0.5-0.1-0.6-0.1c-0.3-0.2-0.4-0.5-0.5-0.8c-0.1-0.1,0-0.3,0-0.4
		c0-10.9,0-21.7,0-32.6c0-0.9,0.3-1.3,1.3-1.3c0.6,0,1.3,0,1.9,0C171.3,33.5,171.3,33.5,171.4,33.5z"/>
</g>
</svg>
