<?xml version="1.0" encoding="utf-8"?>
<!-- Generator: Adobe Illustrator 28.2.0, SVG Export Plug-In . SVG Version: 6.00 Build 0)  -->
<svg version="1.1" id="Layer_1" xmlns="http://www.w3.org/2000/svg" xmlns:xlink="http://www.w3.org/1999/xlink" x="0px" y="0px"
	width="335.04px" height="93.12px" viewBox="0 0 665.04 93.12" enable-background="new 0 0 665.04 93.12" xml:space="preserve"
	>
<style type="text/css">
	.st0{fill:#DC7A00;}
</style>
<g>
	<path class="st0" d="M527.8,91.3c-0.1,0.1-0.2,0.1-0.2,0.2c-0.2,1.8-0.8,3.7-1.8,5.1c-0.8,1.2-2,2.1-3.2,2.9
		c-1.3,0.8-2.7,1.1-4,1.6c-0.7,0.3-1.5,0.2-2.2,0.3c-3.3,0.5-6.6,0.2-9.9,0.2c-3.3,0.1-6.6,0-9.8,0c-3.3,0-6.6,0-10,0
		c-3.1,0-6.2,0-9.2,0c-1.7,0-3.3-0.4-4.9-0.8c-1.2-0.3-2.3-0.9-3.4-1.6c-2.4-1.5-3.7-3.7-4.6-6.3c-0.2-0.5-0.2-1-0.3-1.5
		c-0.3-0.8-0.1-1.7-0.3-2.5c-0.4-1.5-0.1-3.1-0.2-4.6c0-1.6,0-3.1,0-4.7c0-0.5,0.2-1,0.3-1.4c0.3-0.8,1-1.2,1.7-1.2
		c1.3-0.1,2.6,0,3.8,0c0.3,0,0.6,0.2,1.1,0.3c0.2,0.3,0.6,0.7,0.9,1.2c0,2.7,0,5.3,0,7.9c0,1.3,0.4,2.6,0.8,3.9
		c0.2,0.6,0.5,1.2,1.1,1.6c0.8,0.7,1.5,1.6,2.6,1.9c0.5,0.2,1.1,0.3,1.6,0.5c1.4,0.4,2.8,0.2,4.2,0.2c7,0,14.1,0,21.1,0
		c1,0,1.8-0.4,2.5-0.9c0.5-0.3,0.7-0.9,0.9-1.4c0.2-0.6,0.3-1.3,0.3-1.9c0-5.6,0-11.3,0-16.9c0-0.7-0.2-1.4-0.3-1.9
		c-0.1-0.2-0.1-0.4-0.2-0.5c-0.6-1.2-1.7-1.8-3-1.8c-8.4,0-16.8,0-25.2,0c-1.2,0-2.4-0.3-3.6-0.3c-0.8,0-1.6-0.2-2.3-0.5
		c-0.7-0.2-1.5-0.4-2.2-0.7c-0.8-0.4-1.6-0.8-2.3-1.5c-1-1-2-1.9-2.5-3.3c-0.4-0.9-0.7-1.8-0.9-2.8c-0.1-0.7-0.1-1.3-0.2-1.9
		c-0.4-1.5-0.2-3-0.2-4.5c0-1.5,0-3,0-4.5s0-3,0-4.5c0-1.1,0-2.2,0.3-3.2c0.3-1.3,0.7-2.7,1.4-3.8c0.6-1,1.3-1.8,2.1-2.5
		c1.5-1.2,3.1-2,5-2.4c1-0.2,2-0.3,3-0.5c1.4-0.3,2.7-0.2,4.1-0.2c11.4,0,22.9,0,34.3,0c0.8,0,1.5,0.2,2.3,0.2
		c0.7,0.1,1.4,0.4,2.1,0.5c1.1,0.2,2,0.6,2.9,1c1.4,0.7,2.7,1.7,3.7,3c1,1.4,1.7,2.9,2.2,4.5c0.2,0.6,0.2,1.3,0.3,2
		c0,0.1,0.2,0.2,0.2,0.3c0,3.3,0,6.7,0,10.1c-0.4,0.4-0.7,0.8-1,1.2c-1.5,0.4-4.1,0.4-5.8,0c-0.3-0.3-0.6-0.6-0.9-0.8
		c-0.5-2.7-0.2-5.3-0.2-7.9c0-1.5-0.6-2.8-1.3-3.9c-1.2-1.8-3.2-2.7-5.4-2.9c-1.8-0.2-3.7-0.4-5.5-0.3c-1.6,0.1-3.3,0-4.9,0
		c-2.6,0-5.1,0-7.7,0s-5.1,0-7.7,0c-2.5,0-5.1-0.2-7.6,0.2c-0.8,0.1-1.7,0.1-2.5,0.2c-1.1,0.2-2.1,0.7-3.1,1.2
		c-0.5,0.3-0.9,0.6-1.2,1c-0.8,1.1-1.3,2.4-1.3,3.8c0,3.2,0,6.5,0,9.7c0,0.7,0.1,1.5,0.2,2.2c0.4,2.1,1.8,3.4,3.5,4.4
		c0.4,0.2,0.9,0.2,1.3,0.4c0.4,0.2,0.9,0,1.2,0.2c0.5,0.2,0.9,0.2,1.4,0.2c11.1,0,22.3,0,33.5,0c1.3,0,2.7-0.1,4,0.2
		c0.9,0.2,1.8,0.3,2.7,0.5c1.7,0.4,3.1,1.3,4.4,2.3c1.3,1.1,2.1,2.6,2.8,4.1c0.2,0.5,0.4,1,0.5,1.5c0.2,1,0.5,2,0.5,3
		c0,0,0.1,0.1,0.2,0.1C527.8,79.8,527.8,85.5,527.8,91.3z"/>
	<path class="st0" d="M0,42.4c0.1-0.1,0.2-0.1,0.2-0.2c0.2-2.2,0.6-3.5,1.9-5.4c0.7-1.1,1.4-1.7,2.7-2.5c1.2-0.8,2.6-1.3,4-1.7
		c0.9-0.2,1.8-0.4,2.7-0.5c3.2-0.5,6.5-0.1,9.7-0.2c3.3-0.1,6.6,0,9.8,0s6.6,0,9.8,0c3.1,0,6.2,0,9.4,0c1,0,2.1,0,3,0.3
		c1.2,0.3,2.5,0.4,3.5,1.1c1.5,0.3,2.6,1.3,3.6,2.2c1.5,1.4,2.3,3.2,3,5.1c0.1,0.4,0.3,0.8,0.3,1.2c0,0.4,0.2,0.7,0.2,1.1
		c0.5,3,0.1,6.1,0.2,9.1c0.1,1.1-0.2,1.9-1.2,2.6c-1.4,0.5-3,0.2-4.6,0.2c-0.8,0-1.4-0.4-1.9-1.1c-0.5-2.5-0.1-5.1-0.3-7.7
		c-0.1-2.6-1.2-4.7-3.5-6c-0.6-0.4-1.4-0.5-2.1-0.7c-0.4-0.1-0.8-0.2-1.2-0.2c-0.4,0-0.8,0-1.2,0c-5-0.5-9.9-0.2-14.9-0.2
		c-5,0-10,0-15,0c-0.7,0-1.3,0.3-1.9,0.3c-0.7,0-1.4-0.1-2,0c-1.5,0.3-3.1,0.7-4.3,1.7c-1,0.8-1.5,1.9-1.8,3.2
		c-0.3,1.6-0.2,3.1-0.2,4.7c0,2.3-0.1,4.6,0,7c0,1.2,0.3,2.4,0.9,3.5c0.5,0.9,1.9,1.9,2.6,2.3c1.7,0.7,3.4,0.9,5.2,0.9
		c11.4,0,22.9,0,34.3,0c1,0,2,0.1,2.9,0.2c0.9,0.2,1.8,0.5,2.7,0.8c1.7,0.5,3.1,1.5,4.2,2.8c0.9,0.9,2.3,3.4,2.5,4.9
		c0.2,0.8,0.3,1.7,0.5,2.6c0.3,1.1,0.2,2.2,0.2,3.3c0,4.3,0,8.5,0,12.8c0,0.4,0.1,0.9,0,1.3c-0.3,1-0.4,2.1-0.8,3.1
		c-0.6,1.6-1.5,2.9-2.7,4c-0.9,0.8-3.2,2-4.5,2.4c-1.2,0.3-2.5,0.6-3.8,0.8c-1.5,0.2-2.9,0.2-4.3,0.2c-11.4,0-22.9,0-34.3,0
		c-0.5,0-1,0-1.5-0.2c-0.4-0.2-1,0.2-1.4-0.3c-1.6-0.1-3-0.8-4.5-1.4c-1.4-0.7-3.5-2.6-4.2-4c-0.3-0.6-0.6-1.2-0.9-1.8
		C1.1,93.7,1,93.6,1,93.5c0.1-0.8-0.5-1.4-0.5-2.2c0-0.8-0.3-1.5-0.3-2.3c0,0-0.1-0.1-0.2-0.1c0-3.4,0-6.9,0-10.3
		c0.5-0.2,0.3-0.8,0.7-1.1c0.6-0.2,1.2-0.5,1.8-0.5c1.5,0,2.9-0.2,4.4,0.3c1,1,1,1,1,2.5c0,2.3,0,4.6,0,6.9c0,0.7,0.1,1.4,0.3,2.2
		c0.1,0.4,0.3,0.8,0.4,1.1c0.4,1.1,1.1,2.1,2.1,2.8c0.7,0.5,1.4,0.8,2.2,1.2c1.4,0.6,3,0.7,4.5,0.7c6.8,0.1,13.7,0,20.5,0
		c0.8,0,1.5-0.1,2.3-0.2c0.5-0.1,1-0.4,1.4-0.7c0.4-0.3,0.8-0.7,0.9-1.3c0.2-0.7,0.5-1.4,0.5-2.2c0-5.6,0-11.1,0-16.6
		c0-0.8-0.2-1.5-0.3-2.2c-0.2-0.9-1.1-1.9-2.1-2.2c-1-0.3-2.1-0.5-3.2-0.5c-8.5,0-17.1,0-25.7,0c-0.9,0-1.7,0-2.5-0.3
		c-0.7-0.2-1.4-0.4-2.1-0.7c-0.7-0.3-1.4-0.6-2.1-1c-1.2-0.6-2.1-1.6-2.9-2.6c-0.9-1.3-1.6-2.7-1.7-4.3c-0.4-0.4-0.2-1-0.2-1.5
		c0-0.1-0.2-0.1-0.2-0.2C0,53,0,47.7,0,42.4z"/>
	<path class="st0" d="M277.2,0c0.4,0.3,0.8,0.7,1.1,0.9c0.5,1.2,0.3,2.3,0.4,3.3c0,5.1,0,10.3,0,15.4c0,1-0.2,1.9-1.1,2.5
		c-1,0.4-2.1,0.2-3.2,0.3c-1.6,0-3.1,0-4.7,0c-1,0-2.1,0.1-3.2-0.3c-0.1-0.1-0.3-0.3-0.5-0.5c-0.4-0.3-0.5-0.8-0.5-1.2
		c0-6,0-12,0-18.1c0-0.4,0.1-0.8,0.2-1.3c0.3-0.3,0.8-0.7,1.2-1C270.3,0,273.8,0,277.2,0z"/>
	<path class="st0" d="M391.2,103.8c0.3,0.4,0.6,0.8,1,1.2c0,2.7,0,5.4,0,8.2c0,1.3,0.3,2.5,0.8,3.7c0.8,1.8,2.2,3,4.1,3.6
		c0.9,0.3,1.9,0.5,2.9,0.5c7.2,0,14.5,0,21.7,0c0.8,0,1.4-0.2,2-0.7c0.5-0.4,0.9-0.9,1-1.5c0.1-0.6,0.3-1.2,0.3-1.9
		c0-4.9,0-9.7,0-14.6c0-0.8-0.1-1.7-0.5-2.3c-0.5-0.7-1-1.4-2-1.6c-0.1,0-0.2-0.2-0.3-0.2c-7.6,0-15.2,0-22.8,0
		c-1.1,0-2.2-0.2-3.4-0.3c-0.9-0.1-1.9-0.2-2.8-0.6c-0.9-0.3-1.8-0.6-2.6-1.1c-1-0.6-2.6-1.4-3.3-2.7c-0.8-0.5-1-1.3-1.5-2
		c-0.5-0.8-0.8-1.8-1-2.7c-0.3-1.2-0.6-2.4-0.5-3.6c-0.5-2.5-0.2-5-0.2-7.4c0-10.5,0-21.1,0-31.6c0-1.1,0.2-2.2,0.3-3.4
		c0.1-1,0.3-2.2,0.8-3.1c0.5-0.9,0.9-1.9,1.5-2.7c1-1.3,2.3-2.5,3.7-3.2c0.8-0.4,1.5-0.8,2.3-1c0.4-0.1,0.8-0.3,1.3-0.4
		c1.9-0.3,3.8-0.5,5.7-0.5c13.4,0,26.8,0,40.2,0c1.6,0,3.7,0.5,5.3,1.7c1.1,0.8,1.9,1.9,2.3,3.3c0.2,0.7,0.4,1.4,0.5,2.1
		c0.1,0.7,0.2,1.4,0.2,2.1c0,24.5,0,49.1,0,73.6c0,0.8-0.2,1.4-0.2,2.2c0,0.7-0.2,1.4-0.5,2.1c-0.7,2.5-0.9,2.7-2.3,4.7
		c-0.4,0.5-0.8,1-1.4,1.3c-0.5,0.3-0.9,0.8-1.5,1.1c-1.8,0.9-2.4,1.2-4.5,1.7c-0.6,0.1-1.2,0-1.7,0.2c-0.6,0.2-1.1,0.2-1.7,0.2
		c-12.3,0-24.6,0-37,0c-0.9,0-1.7-0.1-2.5-0.2c-0.8-0.1-1.5-0.5-2.3-0.5c-1.3-0.7-2.7-1.2-3.9-2.1c-1.3-1-2.2-2.3-2.9-3.6
		c-0.6-1.2-1-2.5-1.3-3.8c-0.2-0.9,0-1.9-0.2-2.8c-0.4-1.5-0.1-3-0.2-4.5c-0.1-1.5,0-3,0-4.6c0-0.5,0.2-0.9,0.3-1.4
		c0.1-0.6,0.6-0.8,1-1c0.6-0.2,1.2-0.2,1.8-0.3c0.6,0,1.1,0,1.7,0C389.8,103.6,390.4,103.7,391.2,103.8z M440.4,88.2
		c0-0.1,0-0.2,0-0.3c0-14.8,0-29.7,0-44.5c0-0.1,0-0.2,0-0.4c0-0.6-0.6-2-1-2.5c-0.9-1-2.1-1.5-3.5-1.5c-12.1,0-24.1,0-36.2,0
		c-0.9,0-1.8,0.2-2.7,0.5c-1.9,0.7-3,1.5-3.9,3.3c-0.7,1.3-1,2.6-1,4c0,11.8,0,23.6,0,35.4c0,1.1,0.2,2.1,0.5,3.2
		c0.2,1.1,0.7,2,1.3,2.8c0.6,0.9,1.6,1.4,2.6,1.9c0.9,0.4,3,0.8,4,0.8c11.8,0,23.7,0,35.5,0c0.5,0,1-0.1,1.6-0.2
		c1.1-0.3,2-0.7,2.4-1.9C440.1,88.7,440.2,88.5,440.4,88.2z"/>
	<path class="st0" d="M140.8,77.2c0.3,0.4,0.7,0.8,1,1.3c0,3.7,0.1,7.3,0,10.9c-0.1,1.6-0.4,3.1-1,4.6c-1,2.7-2.8,4.7-5.3,6
		c-1.2,0.6-2.4,1.1-3.7,1.2c-0.5,0.4-1.2,0.1-1.7,0.3c-0.6,0.2-1.1,0.2-1.7,0.2c-12.2,0-24.3,0-36.5,0c-0.6,0-1.2,0.1-1.8-0.2
		c-0.5-0.2-1.2,0.1-1.7-0.3c-1.4-0.1-2.7-0.6-3.9-1.2c-1.7-0.9-3.3-2.1-4.3-3.8c-0.4-0.7-0.8-1.4-1.2-2.2c-0.3-0.7-0.6-1.5-0.7-2.2
		c-0.1-0.7-0.3-1.4-0.3-2.2c0-15.2,0-30.3,0-45.5c0-2.5,0.8-4.8,2.3-6.9c1.2-1.8,2.9-3,4.9-3.8c0.9-0.4,1.9-0.8,3-0.9
		c0.6-0.1,1.2-0.1,1.7-0.2c0.5-0.2,1.1-0.2,1.6-0.2c0.6,0,1.2,0,1.8,0c11.6,0,23.3,0,34.9,0c0.5,0,1-0.2,1.5,0.2
		c0.4,0.3,1-0.2,1.4,0.3c0.7-0.1,1.4,0.2,2,0.3c1.8,0.6,2.5,1,4.1,2.2c2.2,1.5,3.4,4.3,4,6.2c0.2,0.6,0.1,1.3,0.3,1.9
		c0.5,2.4,0.2,4.8,0.2,7.2c0.1,2.4,0.1,4.9,0,7.3c0,0.7-0.3,1.5-0.4,2.2c-0.2,1.5-0.8,2.8-1.5,4.2c-0.5,0.9-1.7,2.2-2.5,2.9
		c-0.6,0.5-1.2,0.9-1.8,1.2c-0.9,0.5-1.8,0.9-2.8,1.1c-1,0.3-2.1,0.4-3.1,0.6c-1.3,0.2-2.5,0.2-3.8,0.2c-7,0-13.9,0-20.9,0
		c-1,0-1.8,0.4-2.5,0.8c-0.7,0.4-1.1,1.2-1.3,2.1c-0.2,0.8-0.2,1.7-0.2,2.5c0,5,0,10,0,15c0,1.2,0.3,2.3,1.2,3.2
		c0.6,0.5,1.2,0.8,2.1,0.8c7.5,0,15,0,22.4,0c2.1,0,4.1-0.8,5.5-2.5c0.7-0.9,1.2-1.9,1.4-3c0.2-0.7,0.2-1.4,0.2-2.2
		c0-2.2,0-4.5,0-6.7c0-0.4,0.4-1.6,0.5-2c0.1-0.3,0.3-0.4,0.6-0.6c0.6-0.3,1.1-0.5,1.7-0.5c0.6,0,1.1,0,1.7,0
		C139.2,76.9,139.9,76.8,140.8,77.2z M107.8,63.3c5.6,0,11.3,0,16.9,0c1.1,0,2.1,0,3.1-0.2c1.5-0.3,2.8-0.9,3.9-1.9
		c1.5-1.3,2.1-3,2.2-5c0.1-3.1,0-6.2,0-9.3c0-0.8,0-1.5-0.2-2.3c-0.3-1.2-0.8-2.3-1.6-3.2c-1.3-1.4-3-1.9-4.8-2.4
		c-1.3,0.2-2.6-0.3-4-0.2c-3.4,0-6.7,0-10.1,0c-3.3,0-6.6,0-9.9,0c-3.3,0-6.7-0.1-10,0.2c-1.6,0.1-3,0.6-4.4,1.3
		c-0.6,0.3-1.1,0.7-1.5,1.2c-0.6,0.8-1.2,1.7-1.4,2.8c-0.2,0.8-0.4,1.6-0.4,2.3c0,4,0,8,0,12c0,0.6,0.1,1.2,0.2,1.8
		c0.2,1.8,1.9,2.8,3.4,2.8C95.5,63.2,101.6,63.3,107.8,63.3z"/>
	<path class="st0" d="M368.6,100.2c-0.1,0.2-0.2,0.3-0.2,0.4c-0.4,0.7-1,0.9-1.7,0.9c-1.4,0-2.9,0-4.4,0c-0.4-0.3-0.9-0.7-1.3-0.9
		c-0.6-2.4-0.3-4.8-0.3-7.2c0-15.7,0-31.5,0-47.2c0-2.2-0.9-4.1-2.5-5.5c-0.9-0.8-2-1.1-3.1-1.4c-0.4-0.1-0.9-0.2-1.3-0.2
		c-0.4,0-0.9,0-1.3,0c-12.8,0-25.5,0-38.3,0c-0.7,0.3-1.3,0.8-1.7,1.8c0,3.7,0,7.6,0,11.5c0,1.3,0.5,2.5,1.3,3.5
		c0.7,1,1.5,1.9,2.3,2.8c2.6,2.6,5.2,5.2,7.8,7.8c1.3,1.2,2.2,2.7,3,4.3c0.2,0.5,0.5,1.1,0.5,1.7c0,0.4,0.2,0.7,0.2,1.1
		c0,0.3,0,0.7,0.2,1c0.1,0.2,0,0.5,0,0.7c0,8.1,0,16.2,0,24.3c0,0.3-0.1,0.6-0.1,0.9c-0.2,0.9-1,1-1.6,1.2c-0.2,0.1-0.4,0-0.6,0
		c-6.2,0-12.4,0-18.6,0c-0.9,0-1.7-0.3-2-0.8c-0.1-0.1,0-0.2-0.1-0.3c0-0.1-0.1-0.1-0.2-0.2c0-21.2,0-42.4,0-63.6
		c0-1.1,0.2-2.2,1-3.1c0.5-0.6,1-0.9,1.7-1.2c0.9-0.4,1.9-0.5,2.8-0.5c15,0,30,0,45,0c1.4,0,2.8,0.3,4.2,0.6c1,0.2,1.9,0.5,2.7,0.9
		c1.5,0.7,2.9,1.7,4,3.2c1,1.4,1.6,2.9,2.2,4.5c0.2,0.4-0.1,0.9,0.3,1.3c-0.1,0.9,0.3,1.8,0.3,2.8
		C368.6,63.5,368.6,81.9,368.6,100.2z"/>
	<path class="st0" d="M150.9,38.8c-1-0.6-1.3-0.9-1.3-2.4c0-1,0-2,0-2.9c0.2-0.4,0.4-0.8,0.5-1c0.9-0.8,1.8-0.7,2.8-0.7
		c1.8,0,3.5,0,5.3,0c1,0,1.8-0.4,2.6-0.8c0.6-0.3,0.9-1,1.1-1.8c0.2-0.7,0.2-1.3,0.2-2c0-4.6,0-9.1,0-13.6c0-0.4-0.2-0.8,0.2-1.1
		c0-1.1,0.9-1.3,1.7-1.3c1.4-0.1,2.7,0,4.1,0c0.4,0,0.7,0.2,1,0.4c0.3,0.2,0.5,0.4,0.6,0.6c0.5,1.2,0.3,2.3,0.3,3.4
		c0,4.6,0,9.1,0,13.6c0.2,0.5,0.4,0.9,0.6,1.2c0.3,0.4,0.6,0.8,1.1,1c0.5,0.2,1.1,0.3,1.6,0.4c0.2,0.1,0.5,0,0.7,0
		c7.8,0,15.6,0,23.3,0c0.4,0.2,0.7,0.4,1,0.5c0.8,0.9,0.7,1.9,0.7,2.9c0,0.4,0,0.9,0,1.3c0,1-0.3,1.8-1.5,2.2c-1.8,0-3.7,0-5.7,0
		c-5.5,0-11,0-16.6,0c-1,0-1.9,0.2-2.9,0.3c-0.8,0.1-1.6,0.6-2,1.4c-0.1,0.3-0.3,0.5-0.5,0.9c0,3.6-0.1,7.3,0,11c0,1,0.5,2,1.1,2.9
		c0.6,0.9,1.3,1.8,2.1,2.6c1,1,2.1,1.9,3,3c1.9,2.2,4.1,4.1,6,6.3c1.4,1.5,2.4,3.3,2.8,5.4c0.2,1.1,0.5,2.2,0.5,3.3
		c0,7.8,0,15.5,0,23.2c0,0.3-0.1,0.7-0.1,1c-0.1,0.7-0.5,1.2-1.4,1.4c-6.4,0-13.1,0-19.7,0c-0.4,0-0.9-0.1-1.2-0.2
		c-0.6-0.3-0.7-1-0.9-1.6c-0.1-0.3,0-0.6,0-0.8c0-18.7,0-37.5,0-56.2c0-0.8-0.3-1.4-0.5-2.1c-0.3-1-1.3-1.4-2.1-1.6
		c-0.8-0.2-1.8-0.2-2.6-0.3C154.8,38.8,152.8,38.8,150.9,38.8z"/>
	<path class="st0" d="M206.3,38.8c-1-0.6-1.3-0.9-1.3-2.4c0-1,0-2,0-2.9c0.2-0.4,0.4-0.8,0.5-1c0.9-0.8,1.8-0.7,2.8-0.7
		c1.8,0,3.5,0,5.3,0c1,0,1.8-0.4,2.6-0.8c0.6-0.3,0.9-1,1.1-1.8c0.2-0.7,0.2-1.3,0.2-2c0-4.6,0-9.1,0-13.6c0-0.4-0.2-0.8,0.2-1.1
		c0-1.1,0.9-1.3,1.7-1.3c1.4-0.1,2.7,0,4.1,0c0.4,0,0.7,0.2,1,0.4c0.3,0.2,0.5,0.4,0.6,0.6c0.5,1.2,0.3,2.3,0.3,3.4
		c0,4.6,0,9.1,0,13.6c0.2,0.5,0.4,0.9,0.6,1.2c0.3,0.4,0.6,0.8,1.1,1c0.5,0.2,1.1,0.3,1.6,0.4c0.2,0.1,0.5,0,0.7,0
		c7.8,0,15.6,0,23.3,0c0.4,0.2,0.7,0.4,1,0.5c0.8,0.9,0.7,1.9,0.7,2.9c0,0.4,0,0.9,0,1.3c0,1-0.3,1.8-1.5,2.2c-1.8,0-3.7,0-5.7,0
		c-5.5,0-11,0-16.6,0c-1,0-1.9,0.2-2.9,0.3c-0.8,0.1-1.6,0.6-2,1.4c-0.1,0.3-0.3,0.5-0.5,0.9c0,3.6-0.1,7.3,0,11c0,1,0.5,2,1.1,2.9
		c0.6,0.9,1.2,1.9,2.1,2.6c0.3,0.2,0.5,0.5,0.8,0.8c2.7,2.8,5.5,5.5,8.1,8.4c1.4,1.6,2.4,3.4,2.8,5.5c0.2,1.1,0.5,2.2,0.5,3.3
		c0,7.8,0,15.5,0,23.2c0,0.3-0.1,0.7-0.1,1c-0.1,0.7-0.5,1.2-1.4,1.4c-6.4,0-13.1,0-19.7,0c-0.4,0-0.9-0.1-1.2-0.2
		c-0.6-0.3-0.7-1-0.9-1.6c-0.1-0.3,0-0.6,0-0.8c0-18.7,0-37.5,0-56.2c0-0.8-0.3-1.4-0.5-2.1c-0.3-1-1.3-1.4-2.1-1.6
		c-0.8-0.2-1.8-0.2-2.6-0.3C210.2,38.8,208.3,38.8,206.3,38.8z"/>
	<path class="st0" d="M271.6,31.9c0.4,0.3,0.8,0.6,1.2,0.9c0.5,2.2,0.3,4.5,0.3,6.7c0,4.2,0,8.3,0,12.5c0,1.8,0.8,3.4,2,4.8
		c3.1,3.6,6.7,6.8,10,10.2c1.5,1.6,2.5,3.4,2.9,5.5c0.3,1.4,0.5,2.7,0.5,4.1c0,7.2,0,14.3,0,21.4c0,0.9,0.2,1.8-0.3,2.7
		c-0.4,0.7-1.1,0.9-1.8,0.9c-6.4,0-12.7,0-19.1,0c-0.4,0-0.9-0.1-1.2-0.2c-0.6-0.3-0.7-1-0.9-1.6c-0.1-0.2,0-0.5,0-0.7
		c0-21.6,0-43.1,0-64.7c0-1.8,0.6-2.6,2.5-2.5c1.2,0,2.5,0,3.7,0C271.5,31.9,271.5,31.9,271.6,31.9z"/>
</g>
</svg>
